<?xml version="1.0" encoding="utf-8"?>
<!-- Generator: Adobe Illustrator 28.1.0, SVG Export Plug-In . SVG Version: 6.00 Build 0)  -->
<svg version="1.1" id="Layer_1" xmlns="http://www.w3.org/2000/svg" xmlns:xlink="http://www.w3.org/1999/xlink" x="0px" y="0px"
	 viewBox="0 0 500 500" style="enable-background:new 0 0 500 500;" xml:space="preserve">
<style type="text/css">
	.st0{fill:#FFFFFF;}
	.st1{fill:#FFFFFF;stroke:#FFFFFF;stroke-width:0.3943;stroke-miterlimit:10;}
</style>
<g>
	<g>
		<path d="M389.04,160.7c1.89,0,3.43-1.53,3.43-3.43v-2.24c0-1.89-1.53-3.43-3.43-3.43s-3.43,1.53-3.43,3.43v2.24
			C385.61,159.16,387.15,160.7,389.04,160.7z"/>
		<path d="M431.08,450.35c-0.38-1.85-2.18-3.05-4.04-2.67c-0.12,0.02-7.8,1.54-23.75,2.6l-29.3-21.67V308.2l16.17-22.95
			c2.21-1.02,4.35-2.19,6.4-3.54c0.05-0.03,0.09-0.06,0.14-0.1c13.62-8.99,21.74-24.09,21.74-40.41c0-2.81-0.26-5.7-0.78-8.6
			l-9.82-106.99c-0.16-1.76-1.64-3.11-3.41-3.11H335.5c-1.77,0-3.25,1.35-3.41,3.11l-4.71,51.29c-1.09,0.8-1.63,2.21-1.27,3.61
			c0.14,0.56,0.43,1.04,0.8,1.44l-4.65,50.65c-0.52,2.9-0.78,5.8-0.78,8.6c0,16.35,8.17,31.48,21.84,40.49
			c2.18,1.44,4.47,2.67,6.83,3.73l16.97,22.61v120.88l-28.32,21.4c-15.79-1.05-22.98-2.59-23.13-2.62c-1.84-0.4-3.68,0.75-4.09,2.6
			c-0.41,1.85,0.75,3.68,2.6,4.09c0.68,0.15,17.19,3.75,56.37,3.75c39.14,0,57.1-3.58,57.85-3.73
			C430.26,454.01,431.46,452.2,431.08,450.35z M338.63,129.35h45.63l1.36,16c0.15,1.79,1.65,3.14,3.41,3.14c0.1,0,0.2,0,0.29-0.01
			c1.89-0.16,3.28-1.82,3.12-3.71l-1.31-15.42h10.14l6.75,73.57c-2.06,0.31-5.87,0.79-12.8,1.43c-18.57,1.71-29.08-7.3-39.25-16.01
			c-1.5-1.29-2.99-2.56-4.48-3.78c-7.14-5.86-13.1-7.82-17.19-8.36L338.63,129.35z M369.96,282.81c-8.17,0-16.07-2.36-22.86-6.84
			c-11.75-7.73-18.76-20.73-18.76-34.76c0-2.47,0.23-4.94,0.7-7.53c0.02-0.1,0.03-0.2,0.04-0.3l4.62-50.36
			c2.93,0.44,7.57,1.99,13.47,6.83c1.46,1.19,2.9,2.44,4.37,3.69c9.83,8.42,20.86,17.88,39.15,17.88c1.67,0,3.4-0.08,5.19-0.24
			c6.18-0.57,10.16-1.02,12.8-1.41l2.17,23.62c0.01,0.1,0.02,0.2,0.04,0.3c0.47,2.59,0.7,5.05,0.7,7.52
			c0,14.05-7.02,27.05-18.77,34.76c-0.05,0.03-0.1,0.06-0.14,0.1C385.92,280.47,378.07,282.81,369.96,282.81z"/>
	</g>
	<g>
		<path d="M236.37,112.84c-1.47-1.2-1.68-3.36-0.49-4.82l1.42-1.73c1.2-1.47,3.36-1.68,4.82-0.49c1.47,1.2,1.68,3.36,0.49,4.82
			l-1.42,1.73C240,113.82,237.84,114.03,236.37,112.84z"/>
		<path d="M20.12,315.42c0.48,0.59,12.13,14.72,42.44,39.48c30.34,24.78,45.41,32.44,46.03,32.75c1.69,0.85,3.75,0.16,4.6-1.53
			c0.85-1.69,0.15-3.75-1.53-4.6c-0.13-0.07-6.68-3.42-19.57-12.59l-8.4-34.49l76.46-93.63l27.45-6.78c2.5,0.67,5.05,1.17,7.65,1.43
			c16.29,1.68,32.19-4.88,42.53-17.54c1.77-2.17,3.4-4.58,4.83-7.15l28.44-42.17c0.54-0.07,1.07-0.26,1.53-0.6
			c1.16-0.85,1.64-2.29,1.3-3.6l28.8-42.71c0.99-1.47,0.7-3.45-0.67-4.57l-53.38-43.59c-1.37-1.12-3.37-1.01-4.61,0.25l-75.28,76.66
			c-2.24,1.92-4.27,3.99-6.05,6.17c-10.32,12.64-13.58,29.47-8.72,45.05c0.02,0.06,0.03,0.11,0.05,0.16
			c0.73,2.34,1.65,4.61,2.71,6.79l-1.99,28l-76.16,93.26l-36.4-1.75c-11.68-10.9-16.68-16.94-16.75-17.04
			c-1.21-1.47-3.36-1.68-4.82-0.48C19.14,311.8,18.92,313.95,20.12,315.42z M268.95,159.44c-3.51-2.17-9.37-4.42-18.6-4.39
			c-1.93,0.01-3.89,0.05-5.86,0.1c-13.39,0.32-27.22,0.65-40.53-12.42c-4.97-4.88-7.61-7.66-9.01-9.21l51.76-52.71l7.86,6.42
			L243.8,98.34c-1.32,1.36-1.28,3.53,0.08,4.85c0.07,0.07,0.15,0.13,0.22,0.2c1.36,1.11,3.38,1.02,4.63-0.27l11.18-11.53
			l35.35,28.86L268.95,159.44z M160.6,199.9c-0.01-0.06-0.03-0.11-0.05-0.17c-4.23-13.41-1.44-27.91,7.45-38.8
			c1.57-1.92,3.3-3.68,5.3-5.39c0.08-0.07,0.15-0.14,0.22-0.21l16.62-16.92c1.79,1.97,4.59,4.84,9.02,9.19
			c1.28,1.26,2.57,2.42,3.86,3.47c14.17,11.57,28.69,11.22,41.63,10.91c1.93-0.05,3.83-0.09,5.72-0.1
			c7.62-0.02,12.2,1.72,14.75,3.23l-28.27,41.93c-0.06,0.08-0.11,0.17-0.16,0.26c-1.27,2.3-2.66,4.36-4.22,6.27
			c-8.88,10.87-22.53,16.5-36.52,15.06c-8.09-0.83-15.7-3.99-22.03-9.16C167.63,214.35,163.03,207.58,160.6,199.9z"/>
	</g>
	<g>
		<path d="M351.48,88.92c-1.46,0-2.91-0.62-3.93-1.82c-1.83-2.17-1.56-5.41,0.6-7.24l15.88-13.44c2.17-1.83,5.41-1.56,7.24,0.6
			c1.83,2.17,1.56,5.41-0.6,7.24L354.8,87.7C353.84,88.52,352.66,88.92,351.48,88.92z"/>
	</g>
	<g>
		<path d="M311.5,72.5c-2.37,0-4.5-1.65-5.02-4.07l-4.35-20.34c-0.59-2.78,1.17-5.51,3.95-6.1c2.77-0.59,5.51,1.18,6.1,3.95
			l4.35,20.34c0.59,2.78-1.17,5.51-3.95,6.1C312.22,72.46,311.86,72.5,311.5,72.5z"/>
	</g>
	<g>
		<path d="M335.6,71.81c-0.63,0-1.26-0.12-1.88-0.36c-2.64-1.04-3.94-4.03-2.9-6.67l7.63-19.35c1.04-2.64,4.03-3.94,6.67-2.9
			c2.64,1.04,3.94,4.03,2.9,6.67l-7.63,19.35C339.59,70.58,337.65,71.81,335.6,71.81z"/>
	</g>
</g>
</svg>
