<?xml version="1.0" encoding="iso-8859-1"?>
<!-- Uploaded to: SVG Repo, www.svgrepo.com, Generator: SVG Repo Mixer Tools -->
<!DOCTYPE svg PUBLIC "-//W3C//DTD SVG 1.1//EN" "http://www.w3.org/Graphics/SVG/1.1/DTD/svg11.dtd">
<svg fill="#ffffff" xmlns="http://www.w3.org/2000/svg" xmlns:xlink="http://www.w3.org/1999/xlink" id="Capa_1" x="0px" y="0px" viewBox="0 0 612 792" style="enable-background:new 0 0 612 792;" xml:space="preserve">
<style type="text/css">.st0{display:none;fill:#FFFFFF;}</style>
    <g>	
        <path class="st0" d="M26.724,3.537c190.172,0,380.343,0,570.515,0c0,261.339,0,522.678,0,784.018c-190.172,0-380.343,0-570.515,0  C26.724,526.215,26.724,264.876,26.724,3.537z M266.796,544.382c16.659,73.625,25.895,148.204,29.535,223.812  c6.041-0.813,11.908-1.244,17.615-2.441c15.672-3.286,28.771-11.286,40.017-22.556c1.738-1.741,2.26-3.443,1.95-5.846  c-0.968-7.49-1.665-15.014-2.547-22.516c-1.943-16.531-3.811-33.072-5.945-49.579c-1.842-14.25-3.884-28.477-6.067-42.68  c-2.528-16.446-5.098-32.891-8.035-49.267c-3.182-17.744-6.564-35.461-10.306-53.094c-4.03-18.99-8.307-37.936-12.967-56.78  c-5.996-24.246-12.938-48.237-20.883-71.928c-8.668-25.846-18.525-51.217-30.358-75.792c-6.424-13.342-13.398-26.381-21.751-38.644  c-1.058-1.553-1.83-2.385-3.934-1.159c-8.251,4.81-17.308,7.067-26.78,7.785c-0.544,0.041-1.1-0.084-1.651-0.132  c3.321-1.192,6.672-1.745,9.844-2.823c5.734-1.949,11.391-4.14,17.003-6.42c0.857-0.348,1.775-1.669,1.863-2.616  c1.505-16.065,2.822-32.147,4.342-48.211c0.299-3.165,1.231-6.276,1.941-9.396c1.068-4.692,2.973-9.352,3.087-14.06  c0.117-4.835-1.492-9.711-2.278-14.184c2.127-1.892,4.465-3.973,6.804-6.054c-0.646,1.892-1.487,3.586-2.447,5.209  c-0.814,1.377-1.107,2.689-0.768,4.344c1.629,7.962,0.677,15.739-1.943,23.375c-0.538,1.569-1.303,3.264-1.162,4.828  c0.935,10.364,1.735,20.762,3.308,31.037c0.888,5.8,2.881,11.489,4.888,17.043c2.368,6.554,14.312,10.758,20.175,3.423  c3.065-3.834,6.405-7.461,9.291-11.422c9.407-12.911,16.713-27.014,22.995-41.656c6.498-15.146,12.663-30.426,16.647-46.468  c0.406-1.636,0.07-3.639-0.485-5.282c-0.596-1.763-1.652-3.473-2.862-4.907c-6.192-7.34-12.477-14.602-18.804-21.826  c-0.538-0.614-1.614-1.011-2.464-1.057c-5.053-0.274-10.112-0.454-15.171-0.588c-3.004-0.079-6.015-0.094-9.015,0.044  c-0.705,0.032-1.377,0.797-2.064,1.225c0.659,0.476,1.26,1.215,1.989,1.376c1.884,0.417,3.825,0.58,5.743,0.844  c0.057,0.2,0.114,0.4,0.171,0.6c-6.047,2.554-12.095,5.107-17.708,7.478c-4.181-1.588-7.997-3.059-11.83-4.481  c-1.574-0.584-3.362-0.778-4.756-1.633c-9.427-5.785-18.775-11.7-28.149-17.573c-2.045-1.281-3.208-3.181-3.734-5.481  c-0.392-1.713-0.771-3.437-1.002-5.176c-0.4-3.008-0.68-6.032-1.022-9.153c-2.727,1.088-5.232,2.087-7.737,3.086  c-0.088-0.199-0.176-0.399-0.263-0.598c1.049-0.587,2.101-1.171,3.148-1.762c3.79-2.14,6.523-5.225,7.954-9.332  c1.325-3.801,2.439-7.675,3.678-11.507c0.384-1.187,0.872-2.341,1.295-3.465c3.667,2.569,3.525,5.773,2.294,9.175  c-0.67,1.851-1.331,3.718-2.188,5.485c-1.798,3.708-1.037,7.675,2.098,10.31c0.728,0.612,1.451,1.242,2.099,1.935  c1.389,1.486,1.804,3.155,0.747,5.023c-0.901,1.592-1.834,3.167-2.695,4.781c-0.597,1.12-1.096,2.292-1.638,3.441  c1.466-1.339,2.388-3.095,3.799-4.258c3.054-2.515,3.325-8.72,1.736-11.018c-2.731-3.947-1.678-7.805-0.366-11.754  c2.139-6.44,2.284-12.962,0.569-19.477c-0.385-1.461-0.408-2.592,0.247-3.903c2.015-4.031,2.903-8.212,2.055-12.775  c-0.285-1.533,0.403-3.236,0.578-4.869c0.152-1.42,0.766-3.154,0.189-4.212c-1.2-2.202-0.889-3.993,0.171-5.99  c0.679-1.28,0.636-2.617-0.63-3.558c-1.795-1.334-2.064-2.973-1.833-5.147c0.45-4.235-0.278-8.216-4.084-10.965  c-3.918-2.828-7.887-5.591-11.707-8.547c-3.5-2.708-7.233-3.763-11.522-2.424c-1.884,0.588-3.735,1.298-5.643,1.785  c-1.004,0.256-2.185,0.443-3.14,0.163c-6.441-1.89-12.291-1.828-17.465,3.423c-3.588,3.642-7.808,6.652-11.607,10.097  c-2.408,2.183-4.465,4.689-4.544,8.236c-0.009,0.41-0.239,0.858-0.478,1.213c-3.743,5.572-2.948,11.957-3.18,18.135  c-0.034,0.895,0.837,1.799,1.172,2.74c0.264,0.739,0.426,1.536,0.495,2.319c0.125,1.426-0.244,3.041,0.311,4.246  c0.697,1.515,0.75,2.806,0.479,4.379c-0.934,5.415-1.126,10.582,2.236,15.622c1.615,2.421,1.85,5.926,2.136,8.993  c0.125,1.338-0.944,3.011-1.901,4.179c-1.757,2.145-3.95,3.932-5.722,6.066c-0.777,0.936-1.627,2.591-1.302,3.52  c1.092,3.128,2.697,6.077,4.106,9.095c0.258-0.095,0.515-0.191,0.773-0.286c0-2.266,0.352-4.602-0.081-6.782  c-0.677-3.404,0.543-5.693,3.211-7.501c2.738-1.855,4.136-4.521,4.548-7.708c0.356-2.76,0.536-5.542,0.802-8.314  c0.048-0.496,0.133-0.988,0.269-1.972c1.73,4.573,3.175,8.636,4.803,12.625c1.671,4.095,4.775,7.125,8.227,9.849  c-0.122,0.13-0.244,0.26-0.366,0.39c-1.376-0.738-2.751-1.477-4.261-2.287c-0.329,3.185-0.73,6.15-0.924,9.127  c-0.468,7.163-3.445,12.756-9.829,16.354c-2.041,1.15-3.969,2.502-6.018,3.636c-9.292,5.143-18.651,10.166-27.902,15.38  c-7.411,4.177-12.914,10.122-14.372,18.723c-0.936,5.523-1.235,11.224-1.137,16.834c0.135,7.764,1.288,15.515,1.338,23.276  c0.12,18.632-0.166,37.267-0.243,55.901c-0.012,2.808-0.048,5.518-1.927,7.882c-0.615,0.774-0.988,1.816-1.233,2.796  c-1.671,6.673-3.474,13.321-4.855,20.055c-1.678,8.181-2.432,16.585-4.562,24.635c-4.778,18.051-10.109,35.956-15.351,53.881  c-0.761,2.603-1.705,5.558-3.535,7.37c-6.09,6.029-12.592,11.632-20.034,16.049c-1.319,0.783-2.292,2.373-3.078,3.783  c-1.416,2.544-2.346,5.373-3.879,7.833c-3.173,5.094-6.866,9.874-9.862,15.063c-2.959,5.125-5.326,10.592-7.934,15.919  c-0.192,0.392-0.231,0.86-0.36,1.369c6.868-3.222,11.783-8.242,15.022-14.788c2.14-4.325,5.353-7.481,9.385-9.854  c3.137-1.846,6.347-3.64,9.707-5.013c2.429-0.992,4.207,0.543,4.175,3.158c-0.019,1.532-0.294,3.06-0.437,4.591  c-0.3,3.21-0.823,6.423-0.796,9.63c0.017,1.976,0.606,4.079,1.48,5.859c0.446,0.908,2.082,1.667,3.184,1.67  c0.764,0.003,1.892-1.265,2.233-2.195c1.084-2.949,1.897-6,2.776-9.023c1.956-6.729,3.12-13.722,7.179-19.716  c1.967-2.905,3.502-6.099,5.37-9.077c3.571-5.692,5.302-11.959,6.535-18.507c1.229-6.53,2.237-13.285,4.754-19.355  c8.746-21.093,18.163-41.907,27.191-62.885c2.252-5.233,4.837-10.534,5.818-16.062c2.236-12.606,2.214-25.415,1.018-38.167  c-0.499-5.315-1.919-10.562-2.182-15.877c-0.377-7.599-0.073-15.231-0.066-22.85c0.004-4.439,0.816-8.426,5.544-10.355  c0.591-0.241,1.035-0.82,1.603-1.147c0.446-0.257,0.976-0.366,2.001-0.729c-6.334,8.706-8.125,18.029-7.596,27.945  c0.224,4.202,1.459,8.043,4.144,11.376c0.523,0.649,0.905,1.522,1.05,2.345c0.406,2.309,0.657,4.646,0.964,6.972  c1.539,11.63,3.143,23.252,4.561,34.897c0.282,2.319,1.122,3.32,3.451,3.493c1.764,0.131,3.491,0.754,5.234,1.158  c-2.079,0.789-4.022,1.249-5.982,1.336c-1.676,0.074-2.405,0.879-3.032,2.288c-4.526,10.164-9.24,20.245-13.664,30.452  c-10.223,23.588-19.348,47.61-27.686,71.922c-7.819,22.797-15.096,45.778-20.736,69.218c-4.232,17.59-8.086,35.279-11.687,53.009  c-3.019,14.865-5.41,29.857-8.111,44.787c-2.936,16.228-5.931,32.446-8.862,48.675c-2.931,16.229-5.792,32.471-8.727,48.699  c-2.936,16.228-5.944,32.443-8.888,48.67c-3.166,17.453-6.226,34.925-9.518,52.354c-0.461,2.443,0.09,3.971,1.736,5.608  c6.687,6.654,14.229,12.218,21.951,17.57c3.689,2.558,7.806,4.023,12.161,4.823c16.205,2.977,32.135,0.446,48.04-2.495  c1.136-0.21,1.532-0.742,1.587-1.915c0.42-8.866,0.862-17.732,1.397-26.592c1.322-21.893,2.653-43.786,4.065-65.673  c0.94-14.566,1.897-29.133,3.078-43.681c1.352-16.667,2.84-33.324,4.492-49.964c1.377-13.864,3.074-27.696,4.638-41.542  c0.066-0.58,0.215-1.151,0.326-1.727c0.46,1.373,0.497,2.683,0.455,3.991c-0.526,16.278-1.123,32.554-1.585,48.834  c-1.293,45.543-2.451,91.092-1.844,136.657c0.18,13.488,1.128,26.964,1.638,40.449c0.069,1.812,0.912,2.483,2.459,3.028  c15.519,5.466,31.503,8.675,47.904,9.668c9.256,0.561,18.463,0.031,27.489-2.465c1.626-0.45,2.229-1.093,2.007-2.687  c-0.09-0.649-0.027-1.319-0.051-1.979c-1.688-46.04-3.305-92.083-5.087-138.12c-1.719-44.423-3.623-88.84-5.4-133.261  c-0.175-4.371-0.023-8.755-0.023-13.133c-0.052,2.17,0.411,4.318,0.615,6.491c1.451,15.481,2.891,30.963,4.252,46.452  c1.541,17.535,3.035,35.074,4.477,52.618c1.598,19.445,3.251,38.887,4.625,58.348c1.493,21.146,2.903,42.301,3.954,63.472  c0.88,17.727,1.248,35.481,1.721,53.227c0.162,6.093,0.354,6.481,6.518,6.892c0.293,0.02,0.587,0.015,0.88,0.03  c10.481,0.528,20.523-1.9,30.557-4.461c9.421-2.405,18.321-6.717,28.14-7.709c0.487-0.049,1.289-1.189,1.238-1.756  c-1.329-14.607-2.748-29.206-4.161-43.806c-1.519-15.695-3.057-31.388-4.57-47.083c-1.527-15.841-3.026-31.685-4.552-47.526  c-1.3-13.505-2.614-27.009-3.934-40.513c-1.355-13.868-2.73-27.734-4.078-41.604C266.721,546.183,266.796,545.279,266.796,544.382z   M453.18,122.682c-2.264,1.961-3.883,3.88-5.93,5.049c-10.387,5.933-21.098,11.106-32.722,14.322  c-8.102,2.241-16.19,4.367-24.527,5.545c-1.108,0.157-2.475,1.349-2.954,2.409c-0.726,1.606-0.897,3.503-1.093,5.3  c-0.63,5.763-2.482,11.15-4.408,16.59c-2.126,6.006-3.834,12.204-5.148,18.439c-1.158,5.495-1.653,11.144-2.202,16.749  c-0.727,7.429-1.488,14.872-1.726,22.325c-0.172,5.39-0.887,10.576-2.581,15.678c-0.915,2.756-1.909,5.556-2.268,8.412  c-0.857,6.825-1.327,13.698-2.021,20.545c-0.256,2.527-0.645,4.861-2.838,6.831c-2.702,2.426-3.787,5.986-3.311,9.552  c0.328,2.454,1.514,4.849,2.607,7.131c1.301,2.715,1.283,5.253,0.182,8.025c-0.709,1.784-1.212,3.772-1.251,5.679  c-0.168,8.287-0.159,16.577-0.137,24.866c0.003,1.122,0.461,2.238,0.672,3.364c0.359,1.909,0.823,3.811,0.99,5.738  c0.132,1.517-0.223,3.07-0.179,4.603c0.183,6.425,0.64,12.749,2.076,19.122c1.534,6.806,1.5,13.958,2.276,20.946  c0.345,3.106,0.619,6.315,1.661,9.213c0.579,1.61,2.491,3.111,4.159,3.802c0.844,0.35,2.479-1.206,3.572-1.8  c-1.271-2.476-2.32-4.52-3.353-6.532c5.893-4.132,17.305-7.899,21.073-6.972c-0.032,0.401,0.095,0.953-0.125,1.217  c-1.901,2.284-3.491,4.895-6.505,6.009c-3.396,1.255-5.742,3.66-7.27,6.916c-0.491,1.047-0.671,1.912,0.149,2.989  c0.819,1.075,1.601,2.367,1.831,3.664c0.524,2.949,0.844,5.953,0.988,8.947c0.412,8.561,0.942,17.127,0.973,25.692  c0.055,15.035,0.229,30.094-0.516,45.1c-0.574,11.556,0.048,22.986,1.02,34.446c0.445,5.244,1.226,10.464,1.56,15.713  c0.241,3.789,0.117,7.616-0.091,11.412c-0.088,1.612-0.425,3.458-1.316,4.73c-2.245,3.208-2.771,8.512,0.039,11.108  c2.846,2.629,2.331,5.576,2.155,8.657c-0.049,0.863-0.551,1.704-0.577,2.563c-0.272,9.214-0.707,18.423,1.122,27.572  c1.031,5.158,1.749,10.386,2.431,15.606c0.693,5.299,1.194,10.625,1.732,15.943c0.427,4.224,0.81,8.453,1.165,12.683  c0.392,4.665,0.723,9.336,1.091,14.003c0.617,7.812,1.236,15.624,1.867,23.435c0.336,4.157,0.573,8.327,1.091,12.462  c0.379,3.026,1.208,5.992,1.723,9.005c1.095,6.396,1.62,12.94,3.323,19.165c1.387,5.07-0.016,9.259-2.888,12.659  c-7.693,9.109-15.429,18.162-22.489,27.786c-2.258,3.078-2.711,6.211-1.039,9.421c0.734,1.409,2.417,3.105,3.808,3.239  c3.756,0.364,7.647,0.344,11.373-0.237c4.877-0.76,9.74-1.914,14.438-3.428c5.409-1.743,11.194-3.168,14.302-8.765  c0.735-1.324,1.474-2.665,2.015-4.074c1.811-4.715,4.562-6.097,9.423-4.689c0.746,0.216,1.631,0.366,2.353,0.174  c3.02-0.803,6.107-1.504,8.96-2.729c1.82-0.782,4.156-1.729,4.309-4.216c0.482-7.861,1.505-15.776-1.834-23.368  c-0.569-1.293-0.886-2.815-0.86-4.222c0.04-2.15,0.775-4.302,0.704-6.436c-0.631-18.975-1.318-37.949-2.115-56.918  c-0.267-6.362-0.97-12.704-1.346-19.063c-0.568-9.579-1.001-19.166-1.536-28.747c-0.315-5.651-0.998-11.215-4.215-16.13  c-0.366-0.56-0.469-1.395-0.441-2.093c0.385-9.67,0.751-19.342,1.309-29.003c0.074-1.284,0.926-2.763,1.862-3.712  c3.073-3.112,4.853-6.669,4.783-11.094c-0.032-2.049-0.117-4.108,0.038-6.147c0.466-6.131,0.907-12.269,1.611-18.375  c0.517-4.486,1.37-8.938,2.194-13.383c0.544-2.934,1.176-5.864,1.989-8.733c1.405-4.959,3.071-9.845,4.465-14.807  c1.786-6.361,3.418-12.765,5.104-19.153c1.562-5.918,3.081-11.847,4.671-17.758c0.723-2.687,1.574-5.34,2.367-8.008  c0.222,0.023,0.444,0.046,0.665,0.068c-0.116,1.676,0.21,3.546-0.424,4.995c-2.595,5.927-1.18,11.804-0.179,17.695  c0.928,5.46,2.436,10.856,2.918,16.348c0.834,9.488,1.232,19.024,1.524,28.548c0.459,14.953,0.64,29.913,1.048,44.868  c0.05,1.849,0.758,3.682,1.18,5.518c0.255,1.107,0.809,2.215,0.773,3.307c-0.113,3.367-0.581,6.724-0.67,10.091  c-0.49,18.544-0.83,37.093-1.401,55.634c-0.159,5.181-0.999,10.338-1.393,15.516c-0.421,5.53-1.768,11.168-0.276,16.582  c0.941,3.413,0.281,6.51-0.651,9.365c-1.843,5.646-4.586,10.994-6.829,16.516c-1.941,4.781-4.144,9.504-3.677,14.918  c0.269,3.123-0.008,6.311,0.463,9.393c0.79,5.163,1.778,10.313,4.685,14.86c1.163,1.818,2.493,3.737,2.915,5.782  c1.252,6.068,1.279,12.145-0.882,18.134c-0.499,1.382-0.552,3.289-0.001,4.618c1.581,3.807,1.993,7.759,2.273,11.776  c0.217,3.107,0.805,6.193,2.777,8.641c4.682,5.814,10.417,9.692,18.343,9.222c2.778-0.165,5.594,0.174,8.355-0.099  c1.809-0.179,3.885-0.609,5.266-1.673c7.085-5.459,9.89-15.655,5.561-24.875c-2.291-4.881-5.171-9.484-7.689-14.263  c-0.305-0.578-0.27-1.632,0.064-2.193c0.965-1.62,2.479-2.964,3.211-4.661c2.016-4.678,3.675-9.508,5.603-14.226  c1.732-4.239,3.758-8.361,5.411-12.629c0.961-2.483,1.501-5.138,2.125-7.742c0.796-3.318,1.797-6.629,2.146-10.001  c0.505-4.877,0.458-9.808,0.728-14.712c0.741-13.462,1.496-26.924,2.307-40.383c0.286-4.753,0.746-9.495,1.138-14.241  c0.878-10.649,1.751-21.299,2.653-31.947c0.371-4.377,0.791-8.75,1.228-13.121c0.881-8.809,1.841-17.61,2.664-26.423  c0.456-4.887,0.53-9.814,1.1-14.685c0.431-3.679,1.347-7.303,2.098-10.942c1.473-7.134,3.427-14.203,4.366-21.405  c1.268-9.721,1.751-19.544,2.6-29.32c0.746-8.599,1.502-17.196,2.311-25.789c0.391-4.157,0.845-8.311,1.435-12.443  c0.121-0.851,0.791-2.013,1.514-2.325c4.823-2.083,5.36-1.676,5.379,3.603c0.002,0.514,0.027,1.029-0.011,1.54  c-0.412,5.474-0.936,10.943-1.207,16.424c-0.121,2.455-0.053,5.007,0.488,7.387c0.74,3.25,3.958,3.961,6.412,1.556  c2.477-2.427,2.981-5.754,3.331-8.951c0.341-3.119,0.077-6.302,0.177-9.454c0.017-0.548,0.526-1.081,0.807-1.621  c0.461,0.285,1.093,0.461,1.355,0.872c1.431,2.253,2.886,4.555,2.658,7.377c-0.207,2.563-0.489,5.132-0.944,7.66  c-0.411,2.282-0.783,4.56-3.986,4.925c-1.423,0.162-3.556,1.286-3.886,2.409c-0.764,2.595-3.364,2.782-4.632,4.519  c-0.258,0.354-0.584,0.679-0.756,1.072c-0.779,1.778,0.19,3.768,1.986,3.744c2.694-0.037,5.384-0.356,8.076-0.555  c3.478-0.257,6.478-2.003,9.7-3.014c4.919-1.542,7.653-4.963,9.541-9.199c1.665-3.735,2.51-7.83,4.084-11.613  c1.44-3.46,2.043-6.912,1.782-10.632c-0.194-2.771,0.05-5.57-0.043-8.352c-0.078-2.335-0.255-4.68-0.621-6.984  c-0.103-0.652-0.928-1.521-1.583-1.699c-4.127-1.124-8.28-2.165-12.46-3.074c-5.308-1.154-10.644-2.184-15.979-3.207  c-1.93-0.37-1.491-1.911-1.61-3.095c-0.133-1.328,0.74-1.769,1.977-1.668c1.961,0.159,3.928,0.262,5.887,0.436  c4.281,0.38,8.574,0.683,12.837,1.217c4.82,0.604,9.627,1.347,14.405,2.219c0.973,0.178,1.792,1.2,2.805,1.92  c-0.055,0.098,0.277-0.289,0.392-0.732c0.893-3.439,2.108-6.846,2.528-10.346c0.706-5.885,0.975-11.828,1.291-17.753  c0.611-11.482,1.699-22.978,1.538-34.453c-0.2-14.237,1.2-28.537-1.568-42.736c-1.125-5.768-0.874-11.798-1.357-17.7  c-0.153-1.872-0.427-3.796-1.041-5.558c-1.716-4.925-2.965-9.863-2.721-15.165c0.44-9.541-0.53-19.009-1.971-28.432  c-0.387-2.528-0.884-5.043-1.174-7.582c-0.494-4.329-1.501-8.721-1.168-12.999c1.043-13.411-0.095-26.539-3.495-39.527  c-1.052-4.02-2.054-8.087-2.609-12.195c-0.871-6.455-1.291-12.971-2.045-19.444c-0.11-0.942-0.803-2.254-1.581-2.602  c-2.761-1.234-5.683-2.106-8.531-3.149c-4.972-1.819-9.938-3.654-14.901-5.5c-3.713-1.381-7.412-2.8-11.126-4.182  c-3.052-1.135-6.152-2.149-9.166-3.377c-6.9-2.811-12.903-7.039-18.475-11.928c-0.554-0.486-1.263-0.795-2.199-1.37  c0.106,1.742,0.235,3.05,0.254,4.361c0.039,2.774,0.168,5.559-0.019,8.32c-0.162,2.386-0.795,4.737-1.07,7.12  c-0.83,7.198-0.92,14.554-2.505,21.576c-3.834,16.981-8.167,33.857-12.668,50.677c-2.645,9.886-5.98,19.587-9.062,29.354  c-0.261,0.827-0.953,1.517-1.445,2.271c-0.257-0.103-0.513-0.206-0.77-0.309c0-0.848,0.005-1.696-0.001-2.545  c-0.129-20.247-0.2-40.494-0.425-60.74c-0.069-6.222-0.349-12.459-0.936-18.651c-0.426-4.497-3.58-8.626-1.687-13.49  c0.988-2.539,1.382-5.331,2.54-7.774c0.79-1.668,0.707-2.473-0.865-3.277c-0.8-0.409-1.507-1.001-2.319-1.553  c7.997-6.747,16.362-12.342,25.88-16.049c1.351-0.526,3.095-1.415,4.181-0.971c2.346,0.959,2.715-0.662,3.263-1.914  c1.691-3.861,3.34-7.75,4.78-11.709c1.192-3.277,2.147-6.649,3.05-10.02c0.735-2.742,1.036-5.611,1.892-8.308  c1.156-3.639,2.089-7.217,2.148-11.112c0.061-4.003-2.158-8.2,0.732-12.032c-0.13-5.199-0.118-10.407-0.431-15.595  c-0.286-4.738-1.018-9.449-1.319-14.187c-0.056-0.883,0.841-1.992,1.568-2.729c2.163-2.191,4.461-4.248,6.706-6.357  c-0.066-0.205-0.132-0.41-0.198-0.614c-1.2-0.08-2.416-0.069-3.596-0.268c-1.126-0.189-2.548-0.264-3.26-0.972  c-2.156-2.146-4.149-4.485-5.989-6.913c-3.136-4.14-5.914-8.525-10.728-11.108c-4.984-2.674-9.955-5.334-15.77-5.342  c-5.26-0.007-10.527,0.169-15.776,0.494c-2.454,0.152-4.867,0.733-6.858,2.517c-4.272,3.826-8.834,7.192-14.547,8.665  c-0.632,0.163-1.449,1.208-1.461,1.856c-0.03,1.645-1.056,2.234-2.26,2.562c-1.444,0.393-2.631,0.803-2.769,2.594  c-0.022,0.286-0.888,0.508-1.096,0.617c-0.255,1.254-0.096,2.844-0.815,3.621c-3.904,4.218-2.67,9.498-3.15,14.376  c-0.151,1.539,1.019,3.162,1.268,4.795c0.684,4.477,1.229,8.975,1.762,13.473c0.117,0.986,0.328,2.241-0.135,2.971  c-3.281,5.167-1.915,10.322,0.029,15.358c1.96,5.075,5.736,8.919,9.487,12.738c0.652,0.664,1.297,1.707,1.3,2.578  c0.033,8.206-0.115,16.412-0.09,24.618c0.003,1.027,0.442,2.299,1.13,3.035c2.805,2.996,5.836,5.777,8.687,8.731  c3.291,3.409,6.479,6.917,9.797,10.473c-1.938,1.22-4.294,2.702-6.8,4.28c2.481,2.842,4.853,5.315,4.492,9.081  c-0.031,0.327,0.304,0.674,0.349,1.027c0.182,1.44,0.733,2.996,0.388,4.309c-0.87,3.304-2.749,6.428-3.148,9.753  c-0.842,7.028-1.055,14.136-1.416,21.217c-0.258,5.049-0.276,10.11-0.508,15.161c-0.495,10.754-1.069,21.504-1.592,32.256  c-0.459,9.436-0.884,18.875-1.35,28.311c-0.037,0.744-0.28,1.477-0.427,2.216c-0.807-0.64-1.173-1.324-1.37-2.054  c-0.588-2.178-1.208-4.355-1.641-6.567c-1.96-10.016-3.827-20.051-5.799-30.064c-0.76-3.859-1.965-7.644-2.516-11.527  c-1.036-7.292-1.81-14.623-2.572-21.951c-0.87-8.361-1.983-16.721-2.3-25.108c-0.337-8.926,0.142-17.882,0.247-26.826  c0.016-1.388-0.097-2.776-0.095-4.164c0.004-2.464-0.145-4.951,0.128-7.388C451.828,129.788,452.538,126.462,453.18,122.682z">
        </path>	
        <path d="M266.796,544.382c0,0.897-0.075,1.801,0.011,2.689c1.348,13.869,2.722,27.735,4.078,41.604  c1.32,13.503,2.633,27.007,3.934,40.513c1.525,15.841,3.025,31.685,4.552,47.526c1.513,15.695,3.051,31.388,4.57,47.083  c1.413,14.6,2.832,29.199,4.161,43.806c0.052,0.567-0.75,1.707-1.238,1.756c-9.82,0.992-18.719,5.303-28.14,7.709  c-10.035,2.562-20.077,4.99-30.557,4.461c-0.293-0.015-0.587-0.011-0.88-0.03c-6.164-0.411-6.356-0.799-6.518-6.892  c-0.473-17.745-0.841-35.499-1.721-53.227c-1.051-21.171-2.461-42.327-3.954-63.472c-1.374-19.461-3.028-38.903-4.625-58.348  c-1.441-17.543-2.936-35.083-4.477-52.618c-1.361-15.489-2.801-30.971-4.252-46.452c-0.204-2.173-0.667-4.321-0.615-6.491  c0,4.378-0.151,8.762,0.023,13.133c1.776,44.421,3.68,88.838,5.4,133.261c1.782,46.037,3.399,92.08,5.087,138.12  c0.024,0.66-0.04,1.329,0.051,1.979c0.222,1.594-0.381,2.237-2.007,2.687c-9.027,2.496-18.234,3.026-27.489,2.465  c-16.401-0.993-32.385-4.202-47.904-9.668c-1.547-0.545-2.391-1.216-2.459-3.028c-0.51-13.485-1.458-26.961-1.638-40.449  c-0.607-45.565,0.551-91.114,1.844-136.657c0.462-16.28,1.06-32.556,1.585-48.834c0.042-1.308,0.006-2.618-0.455-3.991  c-0.111,0.575-0.26,1.146-0.326,1.727c-1.564,13.845-3.262,27.677-4.638,41.542c-1.652,16.639-3.14,33.297-4.492,49.964  c-1.18,14.548-2.138,29.115-3.078,43.681c-1.412,21.887-2.743,43.78-4.065,65.673c-0.535,8.86-0.977,17.726-1.397,26.592  c-0.056,1.173-0.451,1.705-1.587,1.915c-15.906,2.941-31.835,5.472-48.04,2.495c-4.355-0.8-8.471-2.265-12.161-4.823  c-7.722-5.353-15.264-10.916-21.951-17.57c-1.646-1.638-2.197-3.165-1.736-5.608c3.292-17.429,6.352-34.901,9.518-52.354  c2.944-16.227,5.952-32.442,8.888-48.67c2.936-16.228,5.796-32.47,8.727-48.699c2.931-16.229,5.925-32.447,8.862-48.675  c2.701-14.93,5.093-29.922,8.111-44.787c3.601-17.73,7.455-35.419,11.687-53.009c5.64-23.44,12.917-46.422,20.736-69.218  c8.339-24.312,17.464-48.334,27.686-71.922c4.424-10.207,9.138-20.289,13.664-30.452c0.627-1.409,1.357-2.213,3.032-2.288  c1.96-0.087,3.903-0.546,5.982-1.336c-1.743-0.404-3.47-1.027-5.234-1.158c-2.328-0.173-3.168-1.174-3.451-3.493  c-1.418-11.645-3.022-23.267-4.561-34.897c-0.308-2.326-0.558-4.663-0.964-6.972c-0.145-0.823-0.527-1.695-1.05-2.345  c-2.685-3.333-3.92-7.174-4.144-11.376c-0.529-9.916,1.262-19.239,7.596-27.945c-1.025,0.363-1.555,0.473-2.001,0.729  c-0.567,0.327-1.012,0.906-1.603,1.147c-4.728,1.928-5.539,5.915-5.544,10.355c-0.007,7.618-0.311,15.251,0.066,22.85  c0.263,5.315,1.683,10.562,2.182,15.877c1.196,12.752,1.218,25.56-1.018,38.167c-0.98,5.527-3.565,10.828-5.818,16.062  c-9.028,20.978-18.445,41.792-27.191,62.885c-2.517,6.07-3.524,12.825-4.754,19.355c-1.233,6.548-2.964,12.815-6.535,18.507  c-1.868,2.977-3.403,6.171-5.37,9.077c-4.058,5.993-5.223,12.987-7.179,19.716c-0.879,3.023-1.692,6.074-2.776,9.023  c-0.342,0.929-1.469,2.197-2.233,2.195c-1.101-0.004-2.738-0.762-3.184-1.67c-0.873-1.781-1.463-3.884-1.48-5.859  c-0.027-3.208,0.496-6.421,0.796-9.63c0.143-1.531,0.418-3.059,0.437-4.591c0.033-2.615-1.746-4.15-4.175-3.158  c-3.359,1.373-6.57,3.166-9.707,5.013c-4.033,2.374-7.245,5.529-9.385,9.854c-3.239,6.545-8.154,11.565-15.022,14.788  c0.129-0.509,0.168-0.976,0.36-1.369c2.608-5.326,4.975-10.793,7.934-15.919c2.996-5.189,6.689-9.97,9.862-15.063  c1.533-2.461,2.463-5.29,3.879-7.833c0.785-1.411,1.758-3,3.078-3.783c7.443-4.417,13.944-10.02,20.034-16.049  c1.83-1.812,2.774-4.767,3.535-7.37c5.242-17.925,10.573-35.83,15.351-53.881c2.13-8.049,2.884-16.453,4.562-24.635  c1.381-6.734,3.185-13.382,4.855-20.055c0.245-0.979,0.618-2.022,1.233-2.796c1.88-2.363,1.916-5.074,1.927-7.882  c0.077-18.634,0.363-37.269,0.243-55.901c-0.05-7.761-1.203-15.512-1.338-23.276c-0.098-5.609,0.201-11.311,1.137-16.834  c1.457-8.601,6.961-14.547,14.372-18.723c9.251-5.214,18.61-10.237,27.902-15.38c2.049-1.134,3.977-2.486,6.018-3.636  c6.385-3.598,9.361-9.191,9.829-16.354c0.195-2.978,0.595-5.942,0.924-9.127c1.51,0.81,2.886,1.549,4.261,2.287  c0.122-0.13,0.244-0.26,0.366-0.39c-3.452-2.724-6.556-5.754-8.227-9.849c-1.628-3.989-3.073-8.052-4.803-12.625  c-0.136,0.983-0.221,1.476-0.269,1.972c-0.266,2.772-0.446,5.554-0.802,8.314c-0.411,3.187-1.81,5.854-4.548,7.708  c-2.669,1.808-3.888,4.097-3.211,7.501c0.434,2.18,0.081,4.516,0.081,6.782c-0.258,0.095-0.515,0.191-0.773,0.286  c-1.409-3.018-3.014-5.967-4.106-9.095c-0.325-0.93,0.525-2.584,1.302-3.52c1.772-2.135,3.965-3.921,5.722-6.066  c0.957-1.168,2.027-2.841,1.901-4.179c-0.287-3.068-0.522-6.572-2.136-8.993c-3.362-5.04-3.169-10.207-2.236-15.622  c0.271-1.573,0.218-2.864-0.479-4.379c-0.555-1.206-0.186-2.821-0.311-4.246c-0.069-0.783-0.231-1.58-0.495-2.319  c-0.336-0.941-1.206-1.845-1.172-2.74c0.232-6.178-0.563-12.563,3.18-18.135c0.239-0.355,0.468-0.803,0.478-1.213  c0.08-3.546,2.137-6.053,4.544-8.236c3.8-3.445,8.019-6.455,11.607-10.097c5.174-5.252,11.024-5.313,17.465-3.423  c0.955,0.28,2.136,0.093,3.14-0.163c1.909-0.487,3.759-1.197,5.643-1.785c4.289-1.339,8.022-0.284,11.522,2.424  c3.82,2.956,7.789,5.719,11.707,8.547c3.807,2.748,4.534,6.729,4.084,10.965c-0.231,2.174,0.038,3.813,1.833,5.147  c1.267,0.941,1.31,2.278,0.63,3.558c-1.06,1.997-1.371,3.788-0.171,5.99c0.577,1.058-0.037,2.792-0.189,4.212  c-0.175,1.633-0.863,3.336-0.578,4.869c0.848,4.562-0.04,8.743-2.055,12.775c-0.655,1.31-0.632,2.442-0.247,3.903  c1.715,6.515,1.57,13.037-0.569,19.477c-1.312,3.949-2.365,7.807,0.366,11.754c1.59,2.297,1.318,8.502-1.736,11.018  c-1.411,1.162-2.333,2.919-3.799,4.258c0.543-1.149,1.041-2.322,1.638-3.441c0.861-1.614,1.794-3.189,2.695-4.781  c1.057-1.868,0.642-3.537-0.747-5.023c-0.648-0.694-1.371-1.323-2.099-1.935c-3.135-2.635-3.896-6.602-2.098-10.31  c0.857-1.767,1.518-3.635,2.188-5.485c1.232-3.402,1.373-6.605-2.294-9.175c-0.423,1.124-0.911,2.277-1.295,3.465  c-1.239,3.832-2.354,7.706-3.678,11.507c-1.431,4.107-4.165,7.192-7.954,9.332c-1.047,0.591-2.099,1.175-3.148,1.762  c0.088,0.199,0.176,0.399,0.263,0.598c2.505-0.999,5.01-1.998,7.737-3.086c0.342,3.121,0.622,6.145,1.022,9.153  c0.231,1.739,0.61,3.464,1.002,5.176c0.526,2.3,1.689,4.199,3.734,5.481c9.373,5.873,18.721,11.788,28.149,17.573  c1.394,0.855,3.181,1.049,4.756,1.633c3.834,1.422,7.649,2.893,11.83,4.481c5.613-2.37,11.661-4.924,17.708-7.478  c-0.057-0.2-0.114-0.4-0.171-0.6c-1.918-0.264-3.859-0.427-5.743-0.844c-0.729-0.161-1.33-0.9-1.989-1.376  c0.687-0.428,1.359-1.193,2.064-1.225c3-0.138,6.011-0.123,9.015-0.044c5.059,0.133,10.118,0.313,15.171,0.588  c0.85,0.046,1.926,0.443,2.464,1.057c6.327,7.224,12.612,14.486,18.804,21.826c1.21,1.434,2.267,3.145,2.862,4.907  c0.555,1.642,0.891,3.646,0.485,5.282c-3.984,16.041-10.148,31.321-16.647,46.468c-6.282,14.642-13.588,28.745-22.995,41.656  c-2.886,3.961-6.226,7.588-9.291,11.422c-5.863,7.335-17.807,3.131-20.175-3.423c-2.007-5.554-4-11.243-4.888-17.043  c-1.573-10.275-2.373-20.674-3.308-31.037c-0.141-1.564,0.624-3.259,1.162-4.828c2.62-7.636,3.572-15.414,1.943-23.375  c-0.339-1.654-0.046-2.967,0.768-4.344c0.96-1.623,1.801-3.316,2.447-5.209c-2.339,2.081-4.677,4.162-6.804,6.054  c0.786,4.474,2.394,9.35,2.278,14.184c-0.113,4.708-2.019,9.368-3.087,14.06c-0.71,3.12-1.641,6.23-1.941,9.396  c-1.519,16.063-2.837,32.146-4.342,48.211c-0.089,0.946-1.007,2.268-1.863,2.616c-5.612,2.28-11.269,4.471-17.003,6.42  c-3.172,1.078-6.523,1.631-9.844,2.823c0.551,0.048,1.107,0.173,1.651,0.132c9.472-0.717,18.529-2.975,26.78-7.785  c2.104-1.226,2.876-0.394,3.934,1.159c8.353,12.263,15.327,25.303,21.751,38.644c11.833,24.575,21.689,49.945,30.358,75.792  c7.945,23.691,14.887,47.682,20.883,71.928c4.66,18.844,8.938,37.791,12.967,56.78c3.742,17.634,7.124,35.35,10.306,53.094  c2.937,16.376,5.507,32.821,8.035,49.267c2.183,14.202,4.225,28.429,6.067,42.68c2.134,16.507,4.002,33.048,5.945,49.579  c0.882,7.502,1.579,15.026,2.547,22.516c0.311,2.403-0.212,4.105-1.95,5.846c-11.246,11.27-24.344,19.271-40.017,22.556  c-5.707,1.196-11.575,1.627-17.615,2.441C292.691,692.586,283.455,618.006,266.796,544.382z M270.447,226.19  c0.967-1.202,1.732-1.983,2.301-2.888c3.272-5.207,6.647-10.357,9.706-15.687c6.008-10.471,11.811-21.059,17.75-31.57  c0.925-1.637,0.923-3.098-0.421-4.343c-2.714-2.514-5.287-5.29-8.356-7.285c-4.094-2.663-8.636-4.63-12.916-7.019  c-1.18-0.659-2.116-1.755-3.594-3.018c4.214-1.524,7.521,0.197,11.452,0.448c-2.532-2.266-4.413-4.159-7.72-4.015  c-5.454,0.238-10.925,0.065-16.992,0.065c3.154,2.684,3.876,6.024,4.154,9.485c1.68,20.893,3.329,41.788,4.959,62.685  C270.834,223.876,270.606,224.728,270.447,226.19z"></path>	
        <path d="M453.18,122.682c-0.642,3.78-1.352,7.106-1.73,10.469c-0.274,2.437-0.124,4.923-0.128,7.388  c-0.002,1.388,0.111,2.777,0.095,4.164c-0.105,8.943-0.584,17.9-0.247,26.826c0.316,8.387,1.43,16.747,2.3,25.108  c0.762,7.327,1.536,14.659,2.572,21.951c0.552,3.883,1.756,7.668,2.516,11.527c1.972,10.014,3.839,20.048,5.799,30.064  c0.433,2.212,1.053,4.388,1.641,6.567c0.197,0.73,0.563,1.413,1.37,2.054c0.147-0.738,0.391-1.472,0.427-2.216  c0.466-9.436,0.892-18.874,1.35-28.311c0.523-10.752,1.098-21.502,1.592-32.256c0.232-5.051,0.251-10.112,0.508-15.161  c0.361-7.081,0.573-14.188,1.416-21.217c0.399-3.325,2.277-6.449,3.148-9.753c0.346-1.313-0.206-2.869-0.388-4.309  c-0.045-0.353-0.38-0.7-0.349-1.027c0.361-3.766-2.011-6.239-4.492-9.081c2.506-1.577,4.862-3.06,6.8-4.28  c-3.318-3.556-6.506-7.064-9.797-10.473c-2.851-2.954-5.883-5.736-8.687-8.731c-0.689-0.735-1.127-2.008-1.13-3.035  c-0.025-8.206,0.123-16.412,0.09-24.618c-0.003-0.871-0.648-1.914-1.3-2.578c-3.752-3.82-7.528-7.664-9.487-12.738  c-1.945-5.035-3.311-10.191-0.029-15.358c0.464-0.73,0.252-1.985,0.135-2.971c-0.533-4.498-1.078-8.997-1.762-13.473  c-0.25-1.633-1.42-3.256-1.268-4.795c0.48-4.878-0.754-10.158,3.15-14.376c0.719-0.777,0.561-2.366,0.815-3.621  c0.207-0.109,1.074-0.331,1.096-0.617c0.138-1.791,1.325-2.201,2.769-2.594c1.204-0.328,2.23-0.917,2.26-2.562  c0.012-0.649,0.83-1.693,1.461-1.856c5.713-1.473,10.275-4.84,14.547-8.665c1.992-1.784,4.404-2.364,6.858-2.517  c5.25-0.325,10.517-0.501,15.776-0.494c5.815,0.008,10.786,2.669,15.77,5.342c4.813,2.582,7.592,6.968,10.728,11.108  c1.84,2.428,3.833,4.767,5.989,6.913c0.711,0.708,2.133,0.782,3.26,0.972c1.18,0.199,2.396,0.187,3.596,0.268  c0.066,0.205,0.132,0.41,0.198,0.614c-2.245,2.109-4.543,4.167-6.706,6.357c-0.728,0.737-1.625,1.846-1.568,2.729  c0.301,4.738,1.034,9.449,1.319,14.187c0.313,5.188,0.301,10.396,0.431,15.595c-2.889,3.831-0.671,8.029-0.732,12.032  c-0.059,3.895-0.993,7.473-2.148,11.112c-0.857,2.697-1.158,5.565-1.892,8.308c-0.903,3.372-1.859,6.743-3.05,10.02  c-1.44,3.96-3.09,7.848-4.78,11.709c-0.548,1.252-0.917,2.873-3.263,1.914c-1.086-0.444-2.83,0.445-4.181,0.971  c-9.519,3.708-17.883,9.302-25.88,16.049c0.813,0.552,1.52,1.143,2.319,1.553c1.572,0.805,1.655,1.609,0.865,3.277  c-1.157,2.443-1.552,5.235-2.54,7.774c-1.893,4.864,1.261,8.993,1.687,13.49c0.587,6.192,0.867,12.429,0.936,18.651  c0.226,20.246,0.296,40.493,0.425,60.74c0.005,0.848,0.001,1.696,0.001,2.545c0.257,0.103,0.513,0.206,0.77,0.309  c0.492-0.754,1.185-1.444,1.445-2.271c3.082-9.767,6.416-19.468,9.062-29.354c4.501-16.82,8.833-33.696,12.668-50.677  c1.586-7.022,1.675-14.379,2.505-21.576c0.275-2.383,0.908-4.734,1.07-7.12c0.187-2.761,0.058-5.546,0.019-8.32  c-0.018-1.31-0.148-2.619-0.254-4.361c0.936,0.575,1.645,0.884,2.199,1.37c5.572,4.889,11.575,9.117,18.475,11.928  c3.014,1.228,6.114,2.241,9.166,3.377c3.713,1.381,7.412,2.801,11.126,4.182c4.962,1.846,9.929,3.68,14.901,5.5  c2.849,1.042,5.77,1.915,8.531,3.149c0.778,0.348,1.472,1.659,1.581,2.602c0.754,6.473,1.173,12.989,2.045,19.444  c0.555,4.109,1.556,8.176,2.609,12.195c3.4,12.988,4.539,26.116,3.495,39.527c-0.333,4.278,0.674,8.67,1.168,12.999  c0.29,2.539,0.787,5.054,1.174,7.582c1.441,9.423,2.411,18.891,1.971,28.432c-0.244,5.303,1.006,10.24,2.721,15.165  c0.614,1.762,0.888,3.686,1.041,5.558c0.483,5.902,0.232,11.932,1.357,17.7c2.768,14.2,1.369,28.499,1.568,42.736  c0.161,11.475-0.926,22.971-1.538,34.453c-0.316,5.926-0.585,11.868-1.291,17.753c-0.42,3.5-1.635,6.907-2.528,10.346  c-0.115,0.443-0.447,0.83-0.392,0.732c-1.013-0.72-1.832-1.743-2.805-1.92c-4.778-0.872-9.585-1.615-14.405-2.219  c-4.263-0.534-8.555-0.837-12.837-1.217c-1.96-0.174-3.926-0.277-5.887-0.436c-1.237-0.101-2.111,0.34-1.977,1.668  c0.119,1.184-0.32,2.724,1.61,3.095c5.335,1.023,10.671,2.053,15.979,3.207c4.18,0.908,8.333,1.949,12.46,3.074  c0.655,0.178,1.479,1.048,1.583,1.699c0.366,2.304,0.543,4.649,0.621,6.984c0.093,2.782-0.151,5.581,0.043,8.352  c0.261,3.719-0.342,7.172-1.782,10.632c-1.574,3.783-2.419,7.878-4.084,11.613c-1.888,4.237-4.622,7.658-9.541,9.199  c-3.223,1.01-6.222,2.757-9.7,3.014c-2.692,0.199-5.382,0.518-8.076,0.555c-1.796,0.024-2.764-1.966-1.986-3.744  c0.172-0.392,0.498-0.718,0.756-1.072c1.268-1.737,3.868-1.924,4.632-4.519c0.331-1.123,2.463-2.247,3.886-2.409  c3.203-0.365,3.575-2.643,3.986-4.925c0.456-2.529,0.737-5.097,0.944-7.66c0.228-2.822-1.227-5.124-2.658-7.377  c-0.261-0.412-0.894-0.588-1.355-0.872c-0.282,0.54-0.79,1.072-0.807,1.621c-0.1,3.152,0.164,6.334-0.177,9.454  c-0.35,3.197-0.854,6.524-3.331,8.951c-2.454,2.405-5.672,1.693-6.412-1.556c-0.542-2.38-0.61-4.932-0.488-7.387  c0.271-5.481,0.795-10.95,1.207-16.424c0.038-0.511,0.013-1.027,0.011-1.54c-0.019-5.279-0.556-5.687-5.379-3.603  c-0.722,0.312-1.392,1.474-1.514,2.325c-0.589,4.132-1.044,8.286-1.435,12.443c-0.809,8.593-1.565,17.191-2.311,25.789  c-0.848,9.777-1.332,19.599-2.6,29.32c-0.939,7.202-2.893,14.271-4.366,21.405c-0.751,3.638-1.667,7.263-2.098,10.942  c-0.57,4.871-0.644,9.798-1.1,14.685c-0.823,8.814-1.783,17.615-2.664,26.423c-0.437,4.371-0.857,8.744-1.228,13.121  c-0.902,10.647-1.774,21.297-2.653,31.947c-0.392,4.746-0.851,9.488-1.138,14.241c-0.811,13.458-1.566,26.92-2.307,40.383  c-0.27,4.904-0.223,9.835-0.728,14.712c-0.349,3.372-1.351,6.683-2.146,10.001c-0.624,2.603-1.163,5.258-2.125,7.742  c-1.652,4.268-3.679,8.39-5.411,12.629c-1.928,4.718-3.587,9.548-5.603,14.226c-0.731,1.697-2.245,3.041-3.211,4.661  c-0.334,0.561-0.369,1.615-0.064,2.193c2.518,4.779,5.398,9.382,7.689,14.263c4.328,9.221,1.523,19.416-5.561,24.875  c-1.381,1.064-3.457,1.494-5.266,1.673c-2.761,0.273-5.577-0.065-8.355,0.099c-7.926,0.47-13.661-3.408-18.343-9.222  c-1.972-2.449-2.56-5.535-2.777-8.641c-0.281-4.016-0.692-7.968-2.273-11.776c-0.552-1.329-0.498-3.235,0.001-4.618  c2.161-5.989,2.133-12.066,0.882-18.134c-0.422-2.045-1.752-3.964-2.915-5.782c-2.908-4.548-3.896-9.697-4.685-14.86  c-0.471-3.082-0.194-6.271-0.463-9.393c-0.467-5.414,1.736-10.138,3.677-14.918c2.243-5.523,4.986-10.87,6.829-16.516  c0.932-2.855,1.592-5.951,0.651-9.365c-1.492-5.415-0.145-11.052,0.276-16.582c0.395-5.178,1.234-10.335,1.393-15.516  c0.57-18.541,0.911-37.09,1.401-55.634c0.089-3.367,0.557-6.723,0.67-10.091c0.037-1.092-0.518-2.2-0.773-3.307  c-0.422-1.836-1.129-3.669-1.18-5.518c-0.408-14.954-0.589-29.915-1.048-44.868c-0.292-9.525-0.69-19.06-1.524-28.548  c-0.483-5.492-1.99-10.888-2.918-16.348c-1.001-5.89-2.416-11.767,0.179-17.695c0.634-1.449,0.308-3.319,0.424-4.995  c-0.222-0.023-0.444-0.046-0.665-0.068c-0.793,2.668-1.644,5.321-2.367,8.008c-1.591,5.91-3.11,11.84-4.671,17.758  c-1.686,6.389-3.318,12.793-5.104,19.153c-1.394,4.962-3.059,9.848-4.465,14.807c-0.813,2.869-1.446,5.799-1.989,8.733  c-0.824,4.445-1.676,8.897-2.194,13.383c-0.704,6.106-1.145,12.244-1.611,18.375c-0.155,2.038-0.07,4.098-0.038,6.147  c0.07,4.425-1.71,7.982-4.783,11.094c-0.937,0.949-1.788,2.428-1.862,3.712c-0.559,9.661-0.924,19.333-1.309,29.003  c-0.028,0.698,0.075,1.533,0.441,2.093c3.216,4.915,3.899,10.479,4.215,16.13c0.534,9.581,0.968,19.168,1.536,28.747  c0.377,6.359,1.079,12.701,1.346,19.063c0.797,18.969,1.484,37.943,2.115,56.918c0.071,2.134-0.664,4.286-0.704,6.436  c-0.026,1.408,0.292,2.93,0.86,4.222c3.339,7.592,2.316,15.507,1.834,23.368c-0.152,2.487-2.488,3.435-4.309,4.216  c-2.854,1.225-5.94,1.926-8.96,2.729c-0.722,0.192-1.608,0.042-2.353-0.174c-4.861-1.408-7.612-0.027-9.423,4.689  c-0.541,1.409-1.279,2.75-2.015,4.074c-3.108,5.598-8.893,7.023-14.302,8.765c-4.699,1.514-9.562,2.668-14.438,3.428  c-3.726,0.58-7.617,0.6-11.373,0.237c-1.391-0.135-3.074-1.83-3.808-3.239c-1.672-3.21-1.219-6.343,1.039-9.421  c7.06-9.624,14.796-18.676,22.489-27.786c2.871-3.4,4.275-7.589,2.888-12.659c-1.703-6.225-2.228-12.769-3.323-19.165  c-0.516-3.012-1.344-5.979-1.723-9.005c-0.518-4.135-0.755-8.305-1.091-12.462c-0.631-7.811-1.25-15.623-1.867-23.435  c-0.369-4.667-0.7-9.338-1.091-14.003c-0.355-4.231-0.737-8.459-1.165-12.683c-0.538-5.319-1.039-10.644-1.732-15.943  c-0.682-5.22-1.4-10.447-2.431-15.606c-1.829-9.149-1.394-18.358-1.122-27.572c0.025-0.859,0.528-1.7,0.577-2.563  c0.176-3.081,0.691-6.028-2.155-8.657c-2.81-2.596-2.284-7.9-0.039-11.108c0.891-1.273,1.227-3.118,1.316-4.73  c0.208-3.796,0.332-7.623,0.091-11.412c-0.334-5.249-1.115-10.469-1.56-15.713c-0.973-11.46-1.594-22.889-1.02-34.446  c0.745-15.006,0.571-30.065,0.516-45.1c-0.031-8.566-0.561-17.132-0.973-25.692c-0.144-2.994-0.465-5.998-0.988-8.947  c-0.23-1.298-1.013-2.589-1.831-3.664c-0.82-1.077-0.64-1.943-0.149-2.989c1.528-3.256,3.874-5.661,7.27-6.916  c3.014-1.114,4.604-3.725,6.505-6.009c0.22-0.264,0.092-0.816,0.125-1.217c-3.769-0.926-15.18,2.841-21.073,6.972  c1.033,2.012,2.082,4.056,3.353,6.532c-1.093,0.594-2.728,2.15-3.572,1.8c-1.667-0.691-3.58-2.193-4.159-3.802  c-1.042-2.898-1.316-6.106-1.661-9.213c-0.776-6.987-0.742-14.14-2.276-20.946c-1.437-6.373-1.893-12.697-2.076-19.122  c-0.044-1.532,0.311-3.085,0.179-4.603c-0.167-1.927-0.631-3.829-0.99-5.738c-0.212-1.126-0.669-2.242-0.672-3.364  c-0.022-8.289-0.031-16.58,0.137-24.866c0.039-1.908,0.543-3.895,1.251-5.679c1.101-2.772,1.119-5.309-0.182-8.025  c-1.093-2.282-2.279-4.677-2.607-7.131c-0.476-3.565,0.608-7.125,3.311-9.552c2.194-1.97,2.582-4.304,2.838-6.831  c0.694-6.847,1.164-13.72,2.021-20.545c0.359-2.856,1.353-5.656,2.268-8.412c1.694-5.102,2.408-10.288,2.581-15.678  c0.238-7.453,0.999-14.896,1.726-22.325c0.548-5.605,1.044-11.254,2.202-16.749c1.314-6.236,3.022-12.434,5.148-18.439  c1.926-5.44,3.778-10.827,4.408-16.59c0.196-1.797,0.367-3.694,1.093-5.3c0.479-1.06,1.847-2.252,2.954-2.409  c8.337-1.178,16.425-3.303,24.527-5.545c11.624-3.216,22.335-8.389,32.722-14.322C449.297,126.562,450.916,124.643,453.18,122.682z  "></path>	
        <path class="st0" d="M270.447,226.19c0.159-1.461,0.387-2.314,0.323-3.144c-1.63-20.897-3.279-41.792-4.959-62.685  c-0.278-3.461-1-6.802-4.154-9.485c6.066,0,11.538,0.173,16.992-0.065c3.307-0.144,5.188,1.749,7.72,4.015  c-3.93-0.251-7.237-1.972-11.452-0.448c1.478,1.263,2.414,2.359,3.594,3.018c4.281,2.389,8.822,4.356,12.916,7.019  c3.069,1.995,5.642,4.771,8.356,7.285c1.344,1.245,1.346,2.706,0.421,4.343c-5.939,10.511-11.742,21.099-17.75,31.57  c-3.059,5.331-6.434,10.481-9.706,15.687C272.179,224.206,271.413,224.988,270.447,226.19z"></path>
    </g>
</svg>