<?xml version="1.0" encoding="utf-8"?>
<!-- Generator: Adobe Illustrator 28.1.0, SVG Export Plug-In . SVG Version: 6.00 Build 0)  -->
<svg version="1.1" id="Layer_1" xmlns="http://www.w3.org/2000/svg" xmlns:xlink="http://www.w3.org/1999/xlink" x="0px" y="0px"
	 viewBox="0 0 500 500" style="enable-background:new 0 0 500 500;" xml:space="preserve">
<style type="text/css">
	.st0{fill:#FFFFFF;}
	.st1{fill:#FFFFFF;stroke:#FFFFFF;stroke-width:0.3943;stroke-miterlimit:10;}
</style>
<g>
	<path d="M242.71,80.92c-9.72,0-18.41,0-27.77,0c0-5.68,0-10.84,0-16.78c8.91,0,17.77,0,27.48,0c0-9.56,0-18.41,0-27.79
		c5.78,0,10.73,0,16.76,0c0,8.97,0,18.01,0,27.67c9.95,0,18.85,0,28.18,0c0,5.62,0,10.61,0,16.6c-9.08,0-18.16,0-27.89,0
		c0,9.9-0.31,18.84,0.2,27.73c0.14,2.47,2.27,5.21,4.17,7.16c24.55,25.22,49.33,50.23,73.72,75.6c2.67,2.77,4.58,7.45,4.69,11.3
		c0.49,17.71-0.03,35.45,0.43,53.17c0.09,3.54,1.98,8.05,4.58,10.35c27.47,24.28,55.25,48.2,82.94,72.22
		c1.28,1.11,2.58,2.21,3.82,3.37c3.89,3.63,5.22,7.87,1.48,12.14c-3.92,4.48-8.48,3.98-12.81,0.23
		c-13.58-11.76-27.16-23.51-40.72-35.29c-42.33-36.78-84.72-73.49-126.89-110.45c-4.14-3.63-6.45-3.04-10.22,0.24
		c-54.92,47.83-109.97,95.51-164.99,143.23c-1.1,0.95-2.16,1.96-3.33,2.83c-4,2.97-8.1,3.52-11.71-0.45
		c-3.79-4.18-3.22-8.41,0.87-12.09c6.5-5.84,13.07-11.59,19.68-17.32c22.57-19.55,45.26-38.96,67.6-58.76
		c2.46-2.18,4.18-6.48,4.26-9.85c0.45-17.72,0.42-35.45,0.2-53.17c-0.06-5.02,1.49-8.59,5.07-12.11
		c25.26-24.85,50.27-49.97,75.53-74.83c3.39-3.33,4.98-6.63,4.76-11.4C242.45,97.02,242.71,89.52,242.71,80.92z M174.29,247.34
		c3.86-3.3,6.07-5.15,8.25-7.04c19.62-17.01,39.21-34.04,58.85-51.03c7.48-6.47,9.78-6.48,17.42,0.14
		c19.62,17.01,39.17,34.11,58.77,51.14c2.24,1.94,4.64,3.69,8.19,6.5c0-13.76,0.37-25.62-0.21-37.44
		c-0.19-3.87-1.93-8.52-4.57-11.27c-15.77-16.48-32.04-32.49-48.08-48.72c-7.46-7.54-14.79-15.21-22.01-22.65
		c-1.72,0.98-2.45,1.21-2.93,1.69c-23.62,23.73-47.24,47.46-70.79,71.27c-1.28,1.29-2.73,3.18-2.76,4.82
		C174.19,218.25,174.29,231.76,174.29,247.34z"/>
	<path d="M127.21,446.73c28.07,0,54.96,0,82.78,0c0.13-2.65,0.36-5.2,0.36-7.75c0.05-18.7-0.14-37.39,0.11-56.09
		c0.29-20.95,17.16-36.73,38.89-36.8c22.97-0.07,40.04,15.52,40.22,36.99c0.16,18.69,0.03,37.39,0.07,56.09
		c0,2.36,0.21,4.72,0.34,7.44c27.64,0,54.7,0,82.8,0c0-3.12,0-5.94,0-8.76c0-27.92,0-55.84,0.01-83.77c0-2.18-0.76-5.04,0.33-6.41
		c2.29-2.9,5.62-6.99,8.43-6.92c2.79,0.07,5.88,4.35,8.02,7.37c1.04,1.46,0.23,4.24,0.23,6.43c0,32.29,0.01,64.58,0,96.88
		c0,9.99-1.99,12.16-11.82,12.18c-31.08,0.06-62.16,0.05-93.24-0.02c-9.51-0.02-11.54-2.17-11.56-11.65
		c-0.03-21.85,0.02-43.7-0.01-65.56c-0.02-14.44-9.41-23.85-23.57-23.74c-13.57,0.11-22.74,9.63-22.76,23.76
		c-0.04,21.85,0.02,43.7-0.02,65.56c-0.02,9.62-1.98,11.63-11.54,11.64c-30.84,0.04-61.67,0.04-92.51-0.01
		c-10.24-0.02-12.56-2.34-12.56-12.29c-0.02-33.02-0.01-66.04,0-99.06c0-1.7-0.56-3.93,0.29-4.99c2.1-2.6,4.88-6.47,7.37-6.47
		c2.93,0.01,6.35,3.15,8.58,5.77c1.27,1.49,0.74,4.65,0.74,7.06c0.04,28.41,0.02,56.82,0.02,85.22
		C127.21,441.21,127.21,443.6,127.21,446.73z"/>
</g>
</svg>
