<?xml version="1.0" encoding="iso-8859-1"?>
<!-- Uploaded to: SVG Repo, www.svgrepo.com, Generator: SVG Repo Mixer Tools -->
<!DOCTYPE svg PUBLIC "-//W3C//DTD SVG 1.1//EN" "http://www.w3.org/Graphics/SVG/1.1/DTD/svg11.dtd">
<svg fill="#ffffff" xmlns="http://www.w3.org/2000/svg" xmlns:xlink="http://www.w3.org/1999/xlink" id="Capa_1" x="0px" y="0px" viewBox="0 0 512 512" xml:space="preserve">
<g>	
<g>		
<path d="M162.377,214.908c28.674,0,51.891-21.905,51.891-48.97c0-16.868,6.298-32.316-7.529-41.078   c-8.29-5.327-44.686-7.846-55.437-7.846c-12.791,0-29.418,9.831-38.469,17.081c-11.253,8.961-2.38,16.852-2.38,31.827   C110.454,193.003,133.655,214.908,162.377,214.908z M126.207,161.145c9.536-1.633,16.013,1.328,16.013,1.328l15.932-7.312   c0,0-8.112,11.052-0.826,7.312c16.223-5.129,34.373-2.992,43.601-1.282c0.324,1.908,0.615,3.862,0.615,5.892   c0,20.15-16.968,36.437-38.032,36.437c-20.951,0-37.935-16.288-37.935-36.437C125.576,165.052,125.867,163.099,126.207,161.145z"></path>		<path d="M415.696,159.069c-0.243-2.793-0.486-5.572-1.133-8.258c-2.056-17.158-18.344-52.023-65.086-50.985   c-40.282,0.901-49.074,29.492-51.195,46.894c-1.425,4.274-2.348,8.747-2.655,13.403c-52.393,8.625-46.629,58.755-14.636,59.61   c-3.044-26.179,10.2-41.902,15.3-46.955c4.711,27.034,29.467,47.81,59.452,47.81c28.431,0,52.166-18.669,58.594-43.627   c4.906,8.151,13.147,24.851,11.139,42.788C475.877,219.335,451.073,165.007,415.696,159.069z M355.742,204.467   c-23.557,0-42.727-17.891-43.261-40.009c8.597-2.946,14.976-16.99,14.976-16.99s5.1,1.649,5.1,17.509   c8.921,2.931,24.415-24.638,24.415-24.638v21.722c9.828,2.534,40.817-0.824,40.817-0.824l1.15,0.916   c0.016,0.458,0.146,0.931,0.146,1.404C399.117,186.118,379.688,204.467,355.742,204.467z"></path>		<polygon points="368.371,222.052 342.871,222.052 321.58,222.052 259.23,292.881 198.887,222.937 130.287,222.937 58.433,297.308    73.491,311.947 124.928,270.564 124.928,350.827 135.242,350.827 135.242,411.841 128.685,411.841 128.685,419 158.556,419    158.556,411.841 158.556,350.827 169.744,350.827 169.744,411.841 169.744,419 199.551,419 199.551,411.841 193.01,411.841    193.01,350.827 205.525,350.827 205.525,272.075 246.65,311.886 263.455,307.978 272.765,310.176 319.346,259.909 322.001,279.83    278.739,349.926 328.639,349.926 328.639,410.955 322.082,410.955 322.082,418.054 351.921,418.054 351.921,410.955    351.954,410.955 351.954,349.926 363.109,349.926 363.109,410.955 363.109,418.054 392.964,418.054 392.964,410.955    386.407,410.955 386.407,349.926 425.087,349.926 386.974,279.83 389.063,255.314 425.475,301.323 449.599,295.659    391.863,222.052   ">
</polygon>	</g></g><g>	<g>		<path d="M256.325,1.154c-141.16,0-256,114.84-256,256s114.84,256,256,256s256-114.84,256-256S397.485,1.154,256.325,1.154z    M256.325,475.872c-120.6,0-218.718-98.118-218.718-218.718S135.725,38.436,256.325,38.436s218.718,98.118,218.718,218.718   S376.925,475.872,256.325,475.872z"></path>	</g></g><g>	<g>					<rect x="25.204" y="239.118" transform="matrix(0.7071 -0.7071 0.7071 0.7071 -107.1877 256.7366)" width="462.221" height="37.275"></rect></g></g></svg>