<?xml version="1.0" encoding="utf-8"?>
<!-- Generator: Adobe Illustrator 28.1.0, SVG Export Plug-In . SVG Version: 6.00 Build 0)  -->
<svg version="1.1" id="Layer_1" xmlns="http://www.w3.org/2000/svg" xmlns:xlink="http://www.w3.org/1999/xlink" x="0px" y="0px"
	 viewBox="0 0 500 285.5" style="enable-background:new 0 0 500 285.5;" xml:space="preserve">
<style type="text/css">
	.st0{fill:#FFFFFF;}
	.st1{fill:#FFFFFF;stroke:#FFFFFF;stroke-width:0.3943;stroke-miterlimit:10;}
</style>
<g>
	<g>
		<path class="st0" d="M158.55,163.37c-5.44-0.22-9.45-1.65-12.02-4.3c-2.58-2.65-3.86-6.22-3.86-10.72c0-3.77,0.87-8.19,2.61-13.27
			c0.65-1.89,1.69-4.37,3.1-7.45c1.41-3.08,3.03-6.54,4.84-10.39c1.81-3.84,3.7-7.8,5.66-11.86c1.96-4.06,3.79-8.01,5.49-11.86
			c1.7-3.84,3.16-7.31,4.35-10.39c1.2-3.08,1.94-5.56,2.23-7.45c0.07-0.36,0.11-0.67,0.11-0.92c0-0.25,0-0.53,0-0.82
			c0-1.67-0.47-2.88-1.41-3.64c-0.94-0.76-2.14-1.14-3.59-1.14c-2.32,0-5.15,0.8-8.49,2.39c-3.99,1.89-8.07,4.51-12.24,7.89
			c-4.17,3.37-8.25,7.45-12.24,12.24c-3.77,4.57-7.31,9.52-10.61,14.85c-3.3,5.33-6.35,10.72-9.14,16.16
			c-2.79,5.44-5.35,10.64-7.67,15.61c-2.32,4.97-4.39,9.3-6.2,13c-0.51,1.01-1.36,1.79-2.56,2.34s-2.34,0.82-3.43,0.82
			c-0.94,0-1.74-0.2-2.39-0.6c-0.65-0.4-0.87-1-0.65-1.8c1.09-1.6,2.57-4.12,4.46-7.56c1.89-3.44,3.93-7.49,6.15-12.13
			c2.21-4.64,4.44-9.59,6.69-14.85c2.25-5.26,4.3-10.52,6.15-15.77c1.85-5.26,3.28-10.21,4.3-14.85c0.72-3.19,1.09-6.16,1.09-8.92
			c0-5.08-1.18-8.68-3.54-10.82c-2.36-2.14-5.38-3.21-9.08-3.21c-3.34,0-7,0.73-10.99,2.18c-3.99,1.45-7.94,3.41-11.86,5.87
			c-6.31,3.85-11.53,8.32-15.67,13.44c-4.13,5.11-7.22,10.3-9.25,15.56c-2.03,5.26-3.05,10.14-3.05,14.63
			c0,4.72,1.14,8.63,3.43,11.75c2.28,3.12,5.67,4.68,10.17,4.68c3.84,0,7.38-0.8,10.61-2.39c3.23-1.59,6.02-3.66,8.38-6.2
			c2.36-2.54,4.19-5.18,5.49-7.94c1.31-2.76,1.96-5.29,1.96-7.62c0-2.1-0.58-3.82-1.74-5.17c-1.16-1.34-3.05-2.01-5.66-2.01
			c-0.29,0-0.58,0.02-0.87,0.05c-0.29,0.04-0.62,0.05-0.98,0.05h-0.33c-0.65,0-0.98-0.18-0.98-0.54c0-0.65,0.36-1.05,1.09-1.2
			c1.88-0.44,3.52-0.65,4.9-0.65c2.97,0,5.17,0.8,6.58,2.39c1.41,1.6,2.12,3.63,2.12,6.09c0,2.61-0.74,5.49-2.23,8.65
			c-1.49,3.15-3.59,6.13-6.31,8.92c-2.72,2.79-5.97,5.1-9.74,6.91c-3.77,1.81-7.94,2.72-12.51,2.72c-3.48,0-6.75-0.85-9.79-2.56
			c-3.05-1.7-5.49-4.15-7.34-7.34c-1.85-3.19-2.77-7.03-2.77-11.53c0-2.25,0.25-4.62,0.76-7.13c0.51-2.5,1.34-5.09,2.5-7.78
			c1.74-4.21,4.17-8.19,7.29-11.97c3.12-3.77,6.65-7.23,10.61-10.39c3.95-3.15,8-5.86,12.13-8.1c3.63-2.03,7.54-3.64,11.75-4.84
			c4.21-1.2,8.23-1.79,12.08-1.79c3.48,0,6.67,0.58,9.57,1.74c2.9,1.16,5.2,3.03,6.91,5.6c1.7,2.58,2.56,6,2.56,10.28
			c0,0.73-0.02,1.41-0.05,2.07c-0.04,0.65-0.13,1.45-0.27,2.39c-0.44,4.21-1.58,8.47-3.43,12.78c-1.85,4.32-3.72,8.5-5.6,12.57
			c-1.02,2.25-1.74,3.88-2.18,4.9c-0.44,1.02-0.65,1.6-0.65,1.74c0,0.15,0.2-0.11,0.6-0.76c0.4-0.65,0.87-1.45,1.41-2.39
			c0.54-0.94,1.03-1.74,1.47-2.39c1.67-2.61,3.7-5.58,6.09-8.92c2.39-3.33,5.15-6.89,8.27-10.66c4.06-4.93,8.36-9.46,12.89-13.6
			c4.53-4.13,8.9-7.18,13.11-9.14c1.89-0.87,3.84-1.56,5.87-2.07c2.03-0.51,3.95-0.76,5.77-0.76c2.9,0,5.44,0.74,7.62,2.23
			c2.18,1.49,3.23,4.19,3.15,8.1c0,3.26-0.78,6.89-2.34,10.88c-1.56,3.99-3.59,8.31-6.09,12.95c-2.5,4.64-5.21,9.61-8.1,14.9
			c-2.9,5.29-5.69,10.88-8.38,16.75c-1.96,4.21-3.39,8.1-4.3,11.69c-0.91,3.59-1.36,6.73-1.36,9.41c0,2.97,0.58,5.31,1.74,7.02
			c1.16,1.7,2.83,2.56,5,2.56c1.59,0,3.37-0.47,5.33-1.41c0.65-0.36,1.25-0.6,1.79-0.71s0.96-0.16,1.25-0.16
			c1.09,0,1.63,0.4,1.63,1.2c0,0.8-0.65,1.67-1.96,2.61C162.47,163,160.73,163.44,158.55,163.37z"/>
		<path class="st0" d="M192.82,147.7c-0.8,0.07-1.71-0.11-2.72-0.54c-1.02-0.44-1.9-1.23-2.67-2.39c-0.76-1.16-1.14-2.79-1.14-4.9
			c0-1.74,0.33-3.84,0.98-6.31c-0.87,1.38-2,3.06-3.37,5.06c-1.38,2-2.87,3.75-4.46,5.28c-1.38,1.31-2.68,2.25-3.92,2.83
			c-1.23,0.58-2.36,0.87-3.37,0.87c-1.89,0-3.41-0.85-4.57-2.56c-1.16-1.7-1.74-3.93-1.74-6.69c0-2.9,0.72-6.2,2.18-9.9
			c1.45-3.7,3.81-7.54,7.07-11.53c2.1-2.54,4.66-4.59,7.67-6.15c3.01-1.56,5.96-2.34,8.87-2.34c1.67,0,3.26,0.27,4.79,0.82
			s2.86,1.43,4.03,2.67c0.51,0.51,0.76,1.09,0.76,1.74c0,0.44-0.18,0.8-0.54,1.09c-0.36,0.29-0.83,0.36-1.41,0.22
			c-0.8-2.54-2.5-3.81-5.11-3.81c-1.23,0-2.65,0.4-4.24,1.2c-2.47,1.31-5.02,3.45-7.67,6.42c-2.65,2.98-4.95,6.06-6.91,9.25
			c-0.29,0.44-0.74,1.27-1.36,2.5c-0.62,1.23-1.22,2.61-1.79,4.13c-0.58,1.52-0.98,3.01-1.2,4.46c-0.07,0.44-0.11,0.74-0.11,0.92
			c0,0.18,0,0.45,0,0.82c0,2.39,0.91,3.59,2.72,3.59c2.18,0,4.64-1.59,7.4-4.79c1.88-2.32,3.59-4.75,5.11-7.29
			c1.52-2.54,3.08-5.26,4.68-8.16c1.09-1.96,2.1-3.59,3.05-4.9c0.94-1.31,2.28-1.96,4.03-1.96c0.8,0,1.59,0.11,2.39,0.33
			c0.8,0.22,1.63,0.26,2.5,0.11c-0.58,0.58-1.36,1.67-2.34,3.26c-0.98,1.6-2.01,3.41-3.1,5.44c-1.09,2.03-2.07,4.1-2.94,6.2
			c-0.87,2.1-1.49,3.92-1.85,5.44c-0.07,0.44-0.16,1.05-0.27,1.85c-0.11,0.8-0.16,1.38-0.16,1.74c0,2.03,0.58,3.05,1.74,3.05
			c1.16,0,2.41-0.69,3.75-2.07c1.34-1.38,2.67-3.08,3.97-5.11c1.31-2.03,2.5-4.08,3.59-6.15c1.09-2.07,1.96-3.75,2.61-5.06
			c0.29-0.72,0.72-1.09,1.31-1.09c0.36,0,0.54,0.26,0.54,0.76c0,0.22-0.11,0.62-0.33,1.2c-0.87,1.81-1.92,3.86-3.16,6.15
			c-1.23,2.28-2.58,4.5-4.02,6.64c-1.45,2.14-2.96,3.92-4.51,5.33C195.99,146.78,194.41,147.55,192.82,147.7z"/>
		<path class="st0" d="M197.17,148.24c3.05-6.24,6.22-12.78,9.52-19.64c3.3-6.85,6.69-13.76,10.17-20.72
			c3.48-6.96,6.93-13.6,10.33-19.91c1.23-2.18,2.37-3.88,3.43-5.11c1.05-1.23,2.45-1.85,4.19-1.85c0.65,0,1.41,0.11,2.28,0.33
			c0.87,0.22,1.7,0.25,2.5,0.11c-0.94,1.02-2.23,2.79-3.86,5.33c-1.63,2.54-3.45,5.59-5.44,9.14c-2,3.55-4.1,7.38-6.31,11.48
			c-2.21,4.1-4.39,8.23-6.53,12.4c-2.14,4.17-4.12,8.07-5.93,11.69c1.45-1.89,2.94-3.66,4.46-5.33c1.52-1.67,3.01-3.12,4.46-4.35
			c1.59-1.45,3.61-2.97,6.04-4.57c2.43-1.59,4.86-2.97,7.29-4.13c2.43-1.16,4.37-1.74,5.82-1.74c0.51,0,0.87,0.04,1.09,0.11
			c-1.6,2.9-2.99,5.48-4.19,7.72c-1.2,2.25-2.43,4.68-3.7,7.29c-1.27,2.61-2.38,5.1-3.32,7.45c-0.94,2.36-1.56,4.3-1.85,5.82
			c-0.22,1.16-0.33,2.14-0.33,2.94c0,1.16,0.22,1.94,0.65,2.34c0.44,0.4,0.91,0.6,1.41,0.6c1.23,0,2.57-0.76,4.03-2.28
			c1.45-1.52,2.86-3.39,4.24-5.6c1.38-2.21,2.63-4.37,3.75-6.47c1.12-2.1,1.98-3.73,2.56-4.9c0.44-0.8,0.87-1.2,1.31-1.2
			s0.65,0.29,0.65,0.87c0,0.29-0.11,0.73-0.33,1.31c-0.94,1.89-2.01,4.01-3.21,6.36c-1.2,2.36-2.54,4.61-4.03,6.74
			c-1.49,2.14-3.12,3.9-4.9,5.28c-1.78,1.38-3.68,2.07-5.71,2.07c-1.45,0-2.94-0.51-4.46-1.52c-1.52-1.01-2.28-2.86-2.28-5.55
			c0-0.8,0.07-1.65,0.22-2.56c0.14-0.91,0.4-1.94,0.76-3.1c0.44-1.45,1.16-3.06,2.18-4.84c1.01-1.78,2.32-4.01,3.92-6.69
			c0.72-1.23,1.09-2.21,1.09-2.94c0-0.87-0.44-1.31-1.31-1.31c-0.73,0-1.71,0.36-2.94,1.09c-1.23,0.73-2.79,2-4.68,3.81
			c-1.81,1.74-4.06,4.28-6.75,7.62c-2.68,3.34-5.55,8.02-8.59,14.03c-0.51,0.94-1.07,1.43-1.69,1.47c-0.62,0.04-1.43,0.09-2.45,0.16
			c-0.65,0.07-1.31,0.13-1.96,0.16C198.15,147.68,197.6,147.88,197.17,148.24z"/>
		<path class="st0" d="M247.43,147.37c-0.8,0-1.76-0.18-2.88-0.54c-1.12-0.36-2.1-1.03-2.94-2.01c-0.83-0.98-1.25-2.45-1.25-4.41
			c0-1.89,0.45-3.72,1.36-5.49c0.91-1.78,1.76-3.5,2.56-5.17c-0.22,0-0.45-0.07-0.71-0.22c-0.25-0.14-0.38-0.36-0.38-0.65
			c0-0.29,0.07-0.58,0.22-0.87c0.29-0.58,0.62-1.2,0.98-1.85c0.36-0.65,0.69-1.34,0.98-2.07c1.09-2.25,2.18-4.41,3.26-6.47
			s2.03-3.9,2.83-5.49c0.8-1.59,2.18-2.39,4.13-2.39h6.74c-1.23,0.94-2.34,1.98-3.32,3.1c-0.98,1.12-2.19,3.17-3.64,6.15
			c-1.02,2.03-1.9,3.83-2.67,5.39c-0.76,1.56-1.52,3.14-2.28,4.73c-0.76,1.6-1.4,2.94-1.9,4.03c-0.94,2.03-1.56,3.64-1.85,4.84
			c-0.29,1.2-0.44,2.3-0.44,3.32c0,2.39,0.8,3.59,2.39,3.59c1.74,0,3.84-1.41,6.31-4.24c2.03-2.39,4.02-5.26,5.98-8.59
			c1.96-3.33,3.82-6.78,5.6-10.33c1.78-3.55,3.35-6.75,4.73-9.57c0.8-1.59,2.21-2.39,4.24-2.39h5.98c-1.09,0.87-2,1.69-2.72,2.45
			c-0.73,0.76-1.43,1.78-2.12,3.05c-0.69,1.27-1.61,3.06-2.77,5.39c-0.94,1.96-1.94,4.04-2.99,6.26c-1.05,2.21-1.98,4.3-2.77,6.26
			c-0.8,1.96-1.31,3.55-1.52,4.79c-0.07,0.73-0.15,1.27-0.22,1.63c-0.07,0.36-0.11,0.76-0.11,1.2c0,1.38,0.23,2.36,0.71,2.94
			c0.47,0.58,1.03,0.87,1.69,0.87c1.74,0,3.5-0.98,5.28-2.94c1.78-1.96,3.48-4.35,5.11-7.18s3.03-5.51,4.19-8.05
			c0.44-0.8,0.83-1.2,1.2-1.2c0.44,0,0.65,0.25,0.65,0.76c0,0.36-0.15,0.8-0.44,1.31c-0.8,1.74-1.78,3.74-2.94,5.98
			c-1.16,2.25-2.47,4.46-3.92,6.64c-1.45,2.18-3.05,3.97-4.79,5.38c-1.74,1.41-3.63,2.12-5.66,2.12c-1.81,0-3.3-0.67-4.46-2.01
			c-1.16-1.34-1.74-3.25-1.74-5.71c0-1.96,0.36-4.06,1.09-6.31c-1.23,2.18-2.65,4.35-4.24,6.53c-1.6,2.18-3.3,3.97-5.11,5.38
			C251.06,146.67,249.24,147.37,247.43,147.37z"/>
		<path class="st0" d="M286.38,147.37c-2.68,0-4.57-0.78-5.66-2.34c-1.09-1.56-1.63-3.35-1.63-5.39c0-1.09,0.13-2.19,0.38-3.32
			c0.25-1.12,0.56-2.16,0.92-3.1l7.29-18.6c0.22-0.58,0.33-1.09,0.33-1.52c0-0.72-0.18-1.36-0.54-1.9
			c-0.36-0.54-0.62-0.92-0.76-1.14l5.98-0.22c1.09-0.07,1.87,0.05,2.34,0.38c0.47,0.33,0.71,0.71,0.71,1.14s-0.26,1.23-0.76,2.39
			l-9.03,21.21c-0.8,1.81-1.23,2.87-1.31,3.15c-0.22,1.09-0.36,1.78-0.44,2.07c-0.07,0.29-0.11,0.47-0.11,0.54c0,0.07,0,0.36,0,0.87
			c0,0.94,0.23,1.74,0.71,2.39c0.47,0.65,1.29,0.98,2.45,0.98c0.72,0,1.56-0.22,2.5-0.65c0.94-0.44,1.63-0.87,2.07-1.31
			c1.81-1.89,3.61-4.37,5.38-7.45c1.78-3.08,3.43-6.15,4.95-9.19c0.29-0.72,0.65-1.09,1.09-1.09c0.36,0,0.54,0.26,0.54,0.76
			c0,0.29-0.11,0.73-0.33,1.31c-0.73,1.52-1.63,3.41-2.72,5.66c-1.09,2.25-2.38,4.48-3.86,6.69c-1.49,2.21-3.1,4.04-4.84,5.49
			C290.29,146.65,288.41,147.37,286.38,147.37z M295.19,103.21c-1.09,0-1.98-0.38-2.67-1.14c-0.69-0.76-1.03-1.69-1.03-2.77
			c0-1.38,0.54-2.57,1.63-3.59c1.09-1.02,2.28-1.52,3.59-1.52c1.16,0,2.1,0.36,2.83,1.09c0.72,0.73,1.09,1.6,1.09,2.61
			c0,1.38-0.54,2.61-1.63,3.7S296.64,103.21,295.19,103.21z"/>
	</g>
	<g>
		<g>
			<path class="st0" d="M339.64,275.57c-0.65,0-0.78-0.49-0.38-1.47c0.4-0.98,0.78-1.87,1.14-2.67c0.65-1.31,0.98-3.34,0.98-6.09
				c0-2.39-0.44-4.97-1.31-7.72c-0.87-2.76-2.58-5.26-5.11-7.51c-3.48-3.19-7.4-5.73-11.75-7.62c-4.35-1.88-8.9-3.41-13.65-4.57
				c-4.75-1.16-9.45-2.18-14.09-3.05c-2.83,3.92-5.86,7.44-9.08,10.55c-3.23,3.12-6.65,5.51-10.28,7.18
				c-2.03,0.94-3.99,1.65-5.87,2.12c-1.89,0.47-3.66,0.71-5.33,0.71c-4.06,0-7.38-1.07-9.95-3.21c-2.58-2.14-3.86-4.66-3.86-7.56
				c0-2.75,1.25-5.46,3.75-8.1c2.5-2.65,6.65-4.84,12.46-6.58c2.32-0.65,4.9-1.14,7.72-1.47s5.77-0.49,8.81-0.49
				c1.89,0,3.75,0.05,5.6,0.16c1.85,0.11,3.57,0.34,5.17,0.71c2.1-3.19,4.06-6.51,5.88-9.95c1.81-3.44,3.7-7.2,5.66-11.26
				c-5.73,0.15-10.7-0.71-14.9-2.56c-4.21-1.85-7.45-4.33-9.74-7.45c-2.28-3.12-3.43-6.45-3.43-10.01c0-2.9,0.83-5.75,2.5-8.54
				c1.67-2.79,4.3-5.33,7.89-7.62c3.59-2.28,8.18-4.08,13.76-5.38c0.36-0.14,0.71-0.22,1.03-0.22s0.63,0,0.92,0
				c1.09,0,1.63,0.22,1.63,0.65c0,0.73-1.16,1.23-3.48,1.52c-3.77,0.44-7.09,1.78-9.95,4.03c-2.87,2.25-5.08,4.93-6.64,8.05
				c-1.56,3.12-2.34,6.27-2.34,9.46c0,2.76,0.65,5.33,1.96,7.72c1.31,2.39,3.37,4.33,6.2,5.82c2.83,1.49,6.49,2.23,10.99,2.23
				c1.59,0,3.3-0.11,5.11-0.33c0.29-0.58,0.78-1.76,1.47-3.54c0.69-1.78,1.47-3.79,2.34-6.04c0.87-2.25,1.72-4.42,2.56-6.53
				c0.83-2.1,1.79-4.57,2.88-7.4c3.34-8.34,6.76-14.89,10.28-19.64c3.52-4.75,6.93-8.1,10.23-10.06c3.3-1.96,6.26-2.94,8.87-2.94
				c2.83,0,5.17,0.83,7.02,2.5c1.85,1.67,2.85,3.55,2.99,5.66c0.07,0.65,0.11,1.12,0.11,1.41c0,0.29,0,0.65,0,1.09
				c0,4.28-0.85,8.56-2.56,12.84c-1.7,4.28-4.06,8.34-7.07,12.18c-3.01,3.85-6.46,7.33-10.33,10.44c-3.88,3.12-8.01,5.73-12.4,7.83
				c-4.39,2.1-8.83,3.55-13.33,4.35c-1.09,2.18-2.05,4.12-2.88,5.82c-0.83,1.71-1.76,3.54-2.77,5.49c-1.02,1.96-2.36,4.46-4.02,7.51
				c-0.51,0.94-0.89,1.61-1.14,2.01c-0.25,0.4-0.64,1-1.14,1.79c3.63,0.87,7.58,2.09,11.86,3.64c4.28,1.56,8.5,3.41,12.67,5.55
				c4.17,2.14,7.89,4.48,11.15,7.02c4.06,3.12,6.94,6.64,8.65,10.55c1.7,3.92,2.56,7.36,2.56,10.33c0,2.1-0.33,3.7-0.98,4.79
				c-0.94,1.59-1.89,2.61-2.83,3.05C340.88,275.32,340.15,275.57,339.64,275.57z M263.38,252.29c1.59,0,3.32-0.22,5.17-0.65
				c1.85-0.44,3.79-1.12,5.82-2.07c6.09-2.97,11.71-8.12,16.86-15.45c-1.67-0.36-3.41-0.63-5.22-0.82
				c-1.81-0.18-3.66-0.27-5.55-0.27c-1.96,0-3.97,0.11-6.04,0.33c-2.07,0.22-4.08,0.62-6.04,1.2c-4.86,1.31-8.58,2.97-11.15,5
				c-2.58,2.03-3.86,4.1-3.86,6.2c0,1.81,0.91,3.35,2.72,4.62C257.91,251.66,260.34,252.29,263.38,252.29z M312.23,204.32
				c4.93-1.09,9.75-3.06,14.47-5.93c4.71-2.86,8.96-6.34,12.73-10.44c3.77-4.1,6.78-8.56,9.03-13.38c2.25-4.82,3.37-9.74,3.37-14.74
				c0-1.23-0.33-2.25-0.98-3.05c-0.65-0.8-1.6-1.2-2.83-1.2c-1.67,0-3.81,0.92-6.42,2.77s-5.59,4.93-8.92,9.25
				c-3.34,4.32-6.93,10.25-10.77,17.79c-1.96,3.77-3.68,7.09-5.17,9.95C315.26,198.21,313.75,201.2,312.23,204.32z"/>
			<path class="st0" d="M339.1,242.72c-0.8,0-1.76-0.18-2.88-0.54c-1.12-0.36-2.1-1.03-2.94-2.01c-0.83-0.98-1.25-2.45-1.25-4.41
				c0-1.88,0.45-3.72,1.36-5.49c0.91-1.78,1.76-3.5,2.56-5.17c-0.22,0-0.45-0.07-0.71-0.22c-0.25-0.14-0.38-0.36-0.38-0.65
				c0-0.29,0.07-0.58,0.22-0.87c0.29-0.58,0.62-1.2,0.98-1.85c0.36-0.65,0.69-1.34,0.98-2.07c1.09-2.25,2.18-4.41,3.26-6.47
				s2.03-3.9,2.83-5.49c0.8-1.59,2.18-2.39,4.13-2.39H354c-1.23,0.94-2.34,1.98-3.32,3.1c-0.98,1.13-2.19,3.17-3.64,6.15
				c-1.02,2.03-1.9,3.83-2.67,5.38c-0.76,1.56-1.52,3.14-2.28,4.73c-0.76,1.6-1.4,2.94-1.9,4.03c-0.94,2.03-1.56,3.64-1.85,4.84
				c-0.29,1.2-0.44,2.3-0.44,3.32c0,2.39,0.8,3.59,2.39,3.59c1.74,0,3.84-1.41,6.31-4.24c2.03-2.39,4.02-5.26,5.98-8.59
				c1.96-3.34,3.82-6.78,5.6-10.33c1.78-3.55,3.35-6.75,4.73-9.57c0.8-1.59,2.21-2.39,4.24-2.39h5.98c-1.09,0.87-2,1.69-2.72,2.45
				c-0.73,0.76-1.43,1.78-2.12,3.05c-0.69,1.27-1.61,3.07-2.77,5.39c-0.94,1.96-1.94,4.04-2.99,6.25c-1.05,2.21-1.98,4.3-2.77,6.26
				c-0.8,1.96-1.31,3.55-1.52,4.79c-0.07,0.73-0.15,1.27-0.22,1.63c-0.07,0.36-0.11,0.76-0.11,1.2c0,1.38,0.23,2.36,0.71,2.94
				c0.47,0.58,1.03,0.87,1.69,0.87c1.74,0,3.5-0.98,5.28-2.94c1.78-1.96,3.48-4.35,5.11-7.18c1.63-2.83,3.03-5.51,4.19-8.05
				c0.44-0.8,0.83-1.2,1.2-1.2c0.44,0,0.65,0.25,0.65,0.76c0,0.36-0.15,0.8-0.44,1.31c-0.8,1.74-1.78,3.74-2.94,5.98
				c-1.16,2.25-2.47,4.46-3.92,6.64c-1.45,2.18-3.05,3.97-4.79,5.39c-1.74,1.41-3.63,2.12-5.66,2.12c-1.81,0-3.3-0.67-4.46-2.01
				c-1.16-1.34-1.74-3.25-1.74-5.71c0-1.96,0.36-4.06,1.09-6.31c-1.23,2.18-2.65,4.35-4.24,6.53c-1.6,2.18-3.3,3.97-5.11,5.39
				C342.72,242.01,340.91,242.72,339.1,242.72z"/>
			<path class="st0" d="M378.05,242.72c-2.68,0-4.57-0.78-5.66-2.34c-1.09-1.56-1.63-3.35-1.63-5.38c0-1.09,0.13-2.19,0.38-3.32
				c0.25-1.12,0.56-2.16,0.92-3.1l7.29-18.6c0.22-0.58,0.33-1.09,0.33-1.52c0-0.72-0.18-1.36-0.54-1.9
				c-0.36-0.54-0.62-0.92-0.76-1.14l5.98-0.22c1.09-0.07,1.87,0.05,2.34,0.38c0.47,0.33,0.71,0.71,0.71,1.14
				c0,0.44-0.26,1.23-0.76,2.39l-9.03,21.21c-0.8,1.81-1.23,2.87-1.31,3.16c-0.22,1.09-0.36,1.78-0.44,2.07
				c-0.07,0.29-0.11,0.47-0.11,0.54s0,0.36,0,0.87c0,0.94,0.23,1.74,0.71,2.39c0.47,0.65,1.29,0.98,2.45,0.98
				c0.72,0,1.56-0.22,2.5-0.65c0.94-0.44,1.63-0.87,2.07-1.31c1.81-1.88,3.61-4.37,5.38-7.45c1.78-3.08,3.43-6.15,4.95-9.19
				c0.29-0.72,0.65-1.09,1.09-1.09c0.36,0,0.54,0.25,0.54,0.76c0,0.29-0.11,0.73-0.33,1.3c-0.73,1.52-1.63,3.41-2.72,5.66
				c-1.09,2.25-2.38,4.48-3.86,6.69c-1.49,2.21-3.1,4.04-4.84,5.49C381.96,241.99,380.07,242.72,378.05,242.72z M386.86,198.55
				c-1.09,0-1.98-0.38-2.67-1.14c-0.69-0.76-1.03-1.69-1.03-2.77c0-1.38,0.54-2.57,1.63-3.59c1.09-1.01,2.28-1.52,3.59-1.52
				c1.16,0,2.1,0.36,2.83,1.09c0.72,0.73,1.09,1.6,1.09,2.61c0,1.38-0.54,2.61-1.63,3.7S388.31,198.55,386.86,198.55z"/>
			<path class="st0" d="M396.32,243.15c-3.55,0-6.08-0.92-7.56-2.77c-1.49-1.85-2.23-3.79-2.23-5.82c0-1.67,0.42-3.19,1.25-4.57
				c0.83-1.38,1.83-2.1,2.99-2.18c1.45-2.83,3.03-5.91,4.73-9.25c1.7-3.33,3.28-6.56,4.73-9.68c1.01-2.1,2.3-4.13,3.86-6.09
				c1.56-1.96,3.28-3.08,5.17-3.37h1.09c0.58,0,1.1,0.04,1.58,0.11c0.47,0.07,0.96,0.22,1.47,0.44c0.8,0.36,1.2,0.91,1.2,1.63
				c0,0.43-0.25,0.65-0.76,0.65c-0.22,0-0.51-0.11-0.87-0.33c-0.87-0.36-1.63-0.54-2.28-0.54c-0.44,0-0.83,0.11-1.2,0.33
				c-1.38,0.73-2.34,1.74-2.88,3.05s-0.82,2.68-0.82,4.13c0,1.16,0.13,2.34,0.38,3.54c0.25,1.2,0.56,2.27,0.92,3.21
				c0.8,2.03,1.65,4.03,2.56,5.98c0.91,1.96,1.36,4.06,1.36,6.31c0,2.18-0.73,4.48-2.18,6.91c-1.45,2.43-3.3,4.37-5.55,5.82
				l0.76,0.11c0.36,0.07,0.62,0.11,0.76,0.11c0.14,0,0.25,0,0.33,0c1.67,0,3.25-0.49,4.73-1.47c1.49-0.98,2.81-2.19,3.97-3.64
				c1.16-1.45,2.48-3.48,3.97-6.09c1.49-2.61,2.92-5.37,4.3-8.27c0.22-0.36,0.47-0.54,0.76-0.54c0.36,0,0.63,0.13,0.82,0.38
				c0.18,0.26,0.2,0.56,0.05,0.92c-0.94,2.03-2.01,4.23-3.21,6.58c-1.2,2.36-2.56,4.61-4.08,6.75c-1.52,2.14-3.28,3.88-5.28,5.22
				c-2,1.34-4.23,2.01-6.69,2.01c-0.58,0-1.2-0.04-1.85-0.11s-1.31-0.22-1.96-0.44c-0.73,0.29-1.47,0.53-2.23,0.71
				C397.68,243.06,396.97,243.15,396.32,243.15z M395.45,241.41c0.44,0,0.83-0.05,1.2-0.16c0.36-0.11,0.69-0.2,0.98-0.27
				c-1.09-0.8-2.05-1.87-2.88-3.21c-0.83-1.34-1.32-3.06-1.47-5.17c-1.31,1.38-1.96,2.87-1.96,4.46c0,1.16,0.36,2.18,1.09,3.05
				C393.13,240.98,394.14,241.41,395.45,241.41z M399.58,239.89c1.23-1.02,2.34-2.5,3.32-4.46c0.98-1.96,1.47-4.53,1.47-7.72
				c0-2.83-0.29-5.84-0.87-9.03c-0.58-3.19-0.87-6.02-0.87-8.49c0-0.51,0.02-0.96,0.05-1.36c0.04-0.4,0.09-0.78,0.16-1.14
				c-0.94,1.96-2.03,4.23-3.26,6.8c-1.23,2.58-2.47,5.06-3.7,7.45c-1.23,2.39-2.28,4.42-3.15,6.09c0.8,0.07,1.38,0.34,1.74,0.82
				c0.36,0.47,0.51,1.4,0.44,2.77c-0.07,1.81,0.34,3.5,1.25,5.06C397.06,238.24,398.21,239.31,399.58,239.89z"/>
		</g>
	</g>
	<g>
		<path class="st0" d="M257.07,173.53l5.99,9.52c0.07,0.22,0.34,0.67,0.82,1.33c2.15-2.92,3.44-6.9,3.89-11.95h-4.99v-1.33h10.13
			v1.33h-3.94c-0.34,5.46-1.79,9.79-4.35,13l4.14,5.75h3.81v1.3h-10.26c-0.75-1.07-1.43-1.98-2.05-2.71
			c-2.95,2.34-6.23,3.5-9.85,3.5c-3.6,0-6.39-0.94-8.38-2.83c-1.99-1.88-2.98-4.16-2.98-6.82c0-2.51,0.89-4.76,2.66-6.75
			c1.77-2,4.31-3.5,7.6-4.5c-1.96-3.34-2.94-5.89-2.94-7.65c0-1.84,0.81-3.46,2.42-4.85c1.61-1.39,3.62-2.08,6.02-2.08
			c2.35,0,4.38,0.56,6.09,1.69c1.71,1.13,2.56,2.59,2.56,4.4c0,1.48-0.57,2.79-1.7,3.91c-1.13,1.13-3.17,2.23-6.1,3.3L257.07,173.53
			z M249.96,173.48c-3.63,1.36-5.45,3.27-5.45,5.7c0,2.27,0.92,4.86,2.75,7.78c1.83,2.92,3.95,4.37,6.36,4.37
			c1.86,0,3.87-0.87,6.04-2.61C255.85,183.27,252.62,178.19,249.96,173.48z M255.03,170.05c1.65-0.67,2.73-1.46,3.24-2.38
			c0.5-0.92,0.75-2.17,0.75-3.73c0-3.22-1.36-4.83-4.09-4.83c-1.04,0-1.9,0.28-2.58,0.83c-0.68,0.55-1.02,1.26-1.02,2.11
			C251.32,163.56,252.55,166.23,255.03,170.05z"/>
	</g>
	<g>
		<g>
			<path class="st0" d="M129.86,9.12v23.25h-0.72L113.6,9.02h-0.07v21.91h4v0.9h-8.4v-0.9h3.5V9.12h-3.75v-0.9h9.01l11,16.55h0.07
				V9.12h-3.91v-0.9h8.38v0.9H129.86z"/>
			<path class="st0" d="M156.39,9.12h-3.85v-0.9h8.43v0.9h-3.71V23.4c0,2.07-0.16,3.59-0.47,4.58c-0.31,0.99-0.88,1.81-1.7,2.48
				c-0.82,0.67-1.8,1.16-2.95,1.46c-1.14,0.31-2.33,0.46-3.55,0.46c-2.58,0-4.47-0.4-5.67-1.21c-1.2-0.81-1.93-1.81-2.21-2.99
				c-0.28-1.19-0.41-2.77-0.41-4.77V9.12h-3.41v-0.9h11.28v0.9h-3.71v13.87c0,1.91,0.09,3.41,0.26,4.51c0.18,1.09,0.65,2,1.43,2.73
				s2,1.09,3.68,1.09c1.36,0,2.58-0.28,3.66-0.84c1.08-0.56,1.83-1.31,2.26-2.24c0.43-0.94,0.64-2.69,0.64-5.25V9.12z"/>
			<path class="st0" d="M172.09,9.12v10.12h2.13c0.75,0,1.39-0.07,1.91-0.22c0.52-0.15,0.99-0.54,1.41-1.19s0.65-1.65,0.71-3.03
				h0.92v10h-0.92c-0.09-1.9-0.46-3.15-1.1-3.76c-0.64-0.6-1.62-0.91-2.93-0.91h-2.13v10.79h4.81c2.72,0,4.61-0.57,5.66-1.72
				c1.05-1.14,1.67-2.91,1.87-5.29h0.9l-0.23,7.9h-20.93v-0.9h3.75V9.12h-3.75v-0.9h20.07l0.41,6.3h-0.9
				c-0.31-1.91-0.93-3.29-1.88-4.14s-2.53-1.27-4.75-1.27H172.09z"/>
			<path class="st0" d="M203.61,7.96l0.11,6.13h-0.83c-1.17-3.67-3.25-5.51-6.21-5.51c-1.64,0-2.92,0.46-3.83,1.36
				c-0.91,0.91-1.36,1.85-1.36,2.83c0,0.9,0.38,1.67,1.14,2.31s2.14,1.12,4.15,1.47c2.01,0.35,3.53,0.77,4.58,1.27
				c1.05,0.5,1.94,1.33,2.66,2.49c0.72,1.16,1.08,2.49,1.08,4c0,2.31-0.75,4.24-2.26,5.77c-1.51,1.54-3.38,2.31-5.61,2.31
				c-1.82,0-3.63-0.67-5.44-2.02l-1.65,1.48h-0.62v-6.6h0.76c0.69,2.08,1.66,3.64,2.9,4.68c1.24,1.04,2.6,1.57,4.08,1.57
				c1.47,0,2.81-0.48,4.04-1.45s1.84-2.19,1.84-3.67c0-1.24-0.43-2.29-1.28-3.14c-0.85-0.85-2.23-1.44-4.14-1.76
				c-1.91-0.32-3.37-0.7-4.39-1.13c-1.02-0.43-1.9-1.17-2.62-2.24c-0.73-1.06-1.09-2.24-1.09-3.53c0-1.78,0.63-3.38,1.9-4.78
				c1.27-1.4,2.99-2.1,5.16-2.1c1.82,0,3.51,0.57,5.09,1.72c0.43-0.41,0.81-0.89,1.13-1.44H203.61z"/>
			<path class="st0" d="M208.5,8.22h20.12l0.62,8.03h-0.9c-0.55-2.69-1.28-4.55-2.19-5.58c-0.91-1.03-2.1-1.55-3.58-1.55h-1.92
				v21.81h4.22v0.9h-12.62v-0.9h4.22V9.12h-1.92c-1.48,0-2.67,0.52-3.58,1.55c-0.91,1.03-1.64,2.89-2.19,5.58h-0.9L208.5,8.22z"/>
			<path class="st0" d="M236.3,30.93V9.12h-3.71v-0.9h12.94c1.69,0,3.08,0.15,4.16,0.44c1.08,0.29,2.02,0.9,2.81,1.82
				c0.79,0.92,1.18,1.98,1.18,3.18c0,1.49-0.57,2.7-1.72,3.63c-1.15,0.93-3.1,1.63-5.84,2.09v0.09c1.97,0.39,3.59,1.14,4.85,2.25
				c1.26,1.12,1.89,3,1.89,5.67c0,1.53,0.18,2.5,0.54,2.93c0.36,0.43,0.85,0.64,1.49,0.64c0.41,0,0.9-0.08,1.48-0.25v0.86
				c-1.02,0.35-2.01,0.53-2.96,0.53c-1.94,0-3.3-0.54-4.1-1.62c-0.8-1.08-1.19-2.14-1.16-3.17l0.07-2.99c0-1.04-0.33-2.07-0.99-3.09
				c-0.66-1.02-2.17-1.52-4.52-1.52h-2.2v11.21h3.71v0.9h-11.62v-0.9H236.3z M240.49,9.12v9.77h3.17c1.36,0,2.4-0.09,3.12-0.27
				c0.72-0.18,1.29-0.66,1.72-1.43s0.64-1.99,0.64-3.67c0-1.37-0.22-2.38-0.65-3.01c-0.43-0.63-0.96-1.02-1.58-1.17
				c-0.62-0.15-1.42-0.22-2.42-0.22H240.49z"/>
			<path class="st0" d="M272.7,24.47h-7.5l-2.41,6.46h4.37v0.9h-8.55v-0.9h3.26l8.61-23.25h0.55l8.26,23.25h3.17v0.9h-11.25v-0.9
				H275L272.7,24.47z M265.53,23.57h6.85l-3.33-9.45h-0.07L265.53,23.57z"/>
			<path class="st0" d="M297.32,30.93V9.12h-3.64v-0.9h12.2c1.34,0,2.46,0.07,3.38,0.2c0.92,0.13,1.79,0.48,2.64,1.05
				c0.84,0.56,1.45,1.26,1.82,2.09c0.37,0.83,0.55,1.61,0.55,2.35c0,2.8-2.15,4.64-6.46,5.51v0.09c4.86,0.79,7.29,2.8,7.29,6.06
				c0,0.8-0.22,1.64-0.65,2.53c-0.43,0.89-1.13,1.65-2.08,2.3c-0.95,0.65-1.92,1.05-2.91,1.21c-0.99,0.16-2.24,0.24-3.74,0.24
				h-12.04v-0.9H297.32z M305.12,9.12h-3.61v9.91h3.24c2.19,0,3.6-0.43,4.21-1.29c0.61-0.86,0.92-2.21,0.92-4.05
				c0-1.44-0.2-2.49-0.6-3.15c-0.4-0.66-0.91-1.06-1.52-1.21C307.14,9.2,306.26,9.12,305.12,9.12z M304.72,19.93h-3.2v11h3.31
				c1.23,0,2.21-0.09,2.95-0.28s1.36-0.69,1.88-1.5c0.52-0.82,0.77-2.1,0.77-3.85c0-1.87-0.39-3.23-1.17-4.08
				C308.47,20.36,306.96,19.93,304.72,19.93z"/>
			<path class="st0" d="M329.89,32.37c-3.05,0-5.64-1.28-7.77-3.84s-3.19-5.29-3.19-8.2c0-3.5,1.12-6.48,3.35-8.95
				s4.83-3.71,7.79-3.71c2.78,0,5.27,1.26,7.48,3.77s3.31,5.36,3.31,8.55c0,3.29-1.11,6.17-3.32,8.65S332.77,32.37,329.89,32.37z
				 M329.96,8.58c-1.29,0-2.45,0.3-3.48,0.89c-1.03,0.59-1.73,1.62-2.09,3.09s-0.55,4.02-0.55,7.67c0,2.52,0.11,4.54,0.32,6.04
				c0.21,1.5,0.75,2.75,1.61,3.73c0.86,0.99,2.21,1.48,4.06,1.48c1.13,0,2.26-0.3,3.39-0.9c1.13-0.6,1.87-1.77,2.22-3.53
				s0.52-4.45,0.52-8.09c0-3.3-0.21-5.57-0.64-6.83c-0.43-1.26-1.12-2.16-2.06-2.72C332.29,8.85,331.2,8.58,329.96,8.58z"/>
			<path class="st0" d="M347.95,30.93V9.12h-3.68v-0.9h11.14c2.46,0,4.57,0.35,6.33,1.05s3.22,2.07,4.39,4.1
				c1.17,2.04,1.76,4.25,1.76,6.63c0,2.52-0.65,4.78-1.94,6.76c-1.29,1.98-2.78,3.32-4.46,4.02c-1.68,0.7-3.73,1.05-6.15,1.05
				h-11.07v-0.9H347.95z M352.13,9.12v21.81h3.06c1.61,0,2.92-0.15,3.93-0.44c1.02-0.29,1.85-0.93,2.52-1.92s1.11-2.24,1.35-3.75
				c0.23-1.51,0.35-3.49,0.35-5.93c0-2.93-0.37-5.12-1.12-6.57c-0.75-1.44-1.66-2.34-2.74-2.68s-2.49-0.52-4.22-0.52H352.13z"/>
			<path class="st0" d="M382.14,24.47h-7.5l-2.41,6.46h4.37v0.9h-8.55v-0.9h3.26l8.61-23.25h0.55l8.26,23.25h3.17v0.9h-11.25v-0.9
				h3.82L382.14,24.47z M374.98,23.57h6.85l-3.33-9.45h-0.07L374.98,23.57z"/>
		</g>
	</g>
</g>
</svg>
