<?xml version="1.0" encoding="utf-8"?>
<!-- Generator: Adobe Illustrator 28.1.0, SVG Export Plug-In . SVG Version: 6.00 Build 0)  -->
<svg version="1.1" id="Layer_1" xmlns="http://www.w3.org/2000/svg" xmlns:xlink="http://www.w3.org/1999/xlink" x="0px" y="0px"
	 viewBox="0 0 500 287.45" style="enable-background:new 0 0 500 287.45;" xml:space="preserve">
<style type="text/css">
	.st0{fill:#FFFFFF;}
	.st1{fill:#A6DEF1;}
	.st2{fill:#FFFFFF;stroke:#FFFFFF;stroke-width:0.4431;stroke-miterlimit:10;}
	.st3{fill:none;stroke:#A6DEF1;stroke-miterlimit:10;}
</style>
<g>
	<g>
		<g>
			<path class="st0" d="M68.33,242.45v22.59h-0.7l-15.1-22.69h-0.07v21.29h3.88v0.87h-8.16v-0.87h3.4v-21.19h-3.64v-0.87h8.76
				l10.69,16.08h0.07v-15.2h-3.8v-0.87h8.14v0.87H68.33z"/>
			<path class="st0" d="M94.98,257.36h-7.29l-2.34,6.28h4.24v0.87h-8.31v-0.87h3.16l8.36-22.59h0.53l8.02,22.59h3.08v0.87H93.51
				v-0.87h3.71L94.98,257.36z M88.02,256.49h6.65l-3.23-9.18h-0.07L88.02,256.49z"/>
			<path class="st0" d="M119.07,263.64v-21.19h-3.61v-0.87h11.32v0.87h-3.64v9.8h9.9v-9.8h-3.57v-0.87h11.25v0.87h-3.61v21.19h3.61
				v0.87h-11.25v-0.87h3.57v-10.52h-9.9v10.52h3.64v0.87h-11.32v-0.87H119.07z"/>
			<path class="st0" d="M172.04,242.45h-3.75v-0.87h8.19v0.87h-3.61v13.87c0,2.01-0.15,3.49-0.45,4.45
				c-0.3,0.96-0.85,1.76-1.65,2.41s-1.75,1.12-2.86,1.42c-1.11,0.3-2.26,0.44-3.45,0.44c-2.51,0-4.34-0.39-5.51-1.18
				c-1.16-0.79-1.88-1.76-2.15-2.91c-0.27-1.15-0.4-2.7-0.4-4.63v-13.87h-3.32v-0.87h10.96v0.87h-3.61v13.48
				c0,1.86,0.09,3.32,0.26,4.38s0.63,1.94,1.39,2.65c0.75,0.71,1.94,1.06,3.57,1.06c1.32,0,2.51-0.27,3.56-0.81
				c1.05-0.54,1.78-1.27,2.2-2.18c0.42-0.91,0.62-2.61,0.62-5.1V242.45z"/>
			<path class="st0" d="M191.88,263.64v-21.19h-3.75v-0.87h11.6v0.87h-3.78v21.19h3.78v0.87h-11.6v-0.87H191.88z"/>
		</g>
	</g>
	<g>
		<g>
			<path class="st0" d="M333.33,242.45v21.19h5.15c0.99,0,1.77-0.07,2.34-0.22c0.57-0.15,1.13-0.51,1.68-1.08s0.98-1.25,1.28-2.04
				c0.3-0.79,0.62-1.88,0.97-3.28h0.8l-0.63,7.49h-19.27v-0.87h3.61v-21.19h-3.61v-0.87h11.49v0.87H333.33z"/>
			<path class="st0" d="M375.29,242.45h-3.75v-0.87h8.19v0.87h-3.61v13.87c0,2.01-0.15,3.49-0.45,4.45
				c-0.3,0.96-0.85,1.76-1.65,2.41s-1.75,1.12-2.86,1.42c-1.11,0.3-2.26,0.44-3.45,0.44c-2.51,0-4.34-0.39-5.51-1.18
				c-1.16-0.79-1.88-1.76-2.15-2.91c-0.27-1.15-0.4-2.7-0.4-4.63v-13.87h-3.32v-0.87h10.96v0.87h-3.61v13.48
				c0,1.86,0.09,3.32,0.26,4.38s0.63,1.94,1.39,2.65c0.75,0.71,1.94,1.06,3.57,1.06c1.32,0,2.51-0.27,3.56-0.81
				c1.05-0.54,1.78-1.27,2.2-2.18c0.42-0.91,0.62-2.61,0.62-5.1V242.45z"/>
			<path class="st0" d="M395.13,263.64v-21.19h-3.75v-0.87h11.6v0.87h-3.78v21.19h3.78v0.87h-11.6v-0.87H395.13z"/>
			<path class="st0" d="M429.18,241.32l0.1,5.95h-0.8c-1.14-3.57-3.15-5.35-6.04-5.35c-1.6,0-2.84,0.44-3.72,1.33
				c-0.88,0.88-1.33,1.8-1.33,2.75c0,0.88,0.37,1.62,1.1,2.24c0.74,0.62,2.08,1.09,4.03,1.43c1.95,0.34,3.43,0.75,4.46,1.23
				c1.02,0.49,1.88,1.29,2.58,2.42s1.05,2.42,1.05,3.88c0,2.25-0.73,4.12-2.2,5.61c-1.46,1.49-3.28,2.24-5.45,2.24
				c-1.77,0-3.53-0.66-5.29-1.97l-1.61,1.44h-0.6v-6.41h0.74c0.67,2.02,1.61,3.53,2.82,4.55c1.21,1.01,2.53,1.52,3.97,1.52
				c1.42,0,2.73-0.47,3.92-1.41s1.79-2.13,1.79-3.57c0-1.21-0.41-2.23-1.24-3.05c-0.83-0.83-2.17-1.4-4.02-1.71
				c-1.85-0.31-3.28-0.68-4.27-1.09c-0.99-0.42-1.84-1.14-2.55-2.17c-0.71-1.03-1.06-2.17-1.06-3.43c0-1.73,0.62-3.28,1.85-4.64
				c1.23-1.36,2.9-2.04,5.01-2.04c1.77,0,3.41,0.56,4.94,1.68c0.42-0.4,0.79-0.87,1.09-1.4H429.18z"/>
		</g>
	</g>
	<g>
		<g>
			<path class="st0" d="M250.91,251.84l4,6.36c0.04,0.15,0.23,0.44,0.55,0.89c1.44-1.95,2.3-4.61,2.6-7.99h-3.33v-0.89h6.77v0.89
				h-2.63c-0.23,3.65-1.2,6.54-2.91,8.69l2.77,3.85h2.55v0.87h-6.86c-0.5-0.72-0.96-1.32-1.37-1.81c-1.97,1.56-4.17,2.34-6.58,2.34
				c-2.41,0-4.27-0.63-5.6-1.89s-1.99-2.78-1.99-4.56c0-1.68,0.59-3.18,1.78-4.52s2.88-2.34,5.08-3.01
				c-1.31-2.23-1.97-3.94-1.97-5.11c0-1.23,0.54-2.31,1.62-3.24c1.08-0.93,2.42-1.39,4.03-1.39c1.57,0,2.93,0.38,4.07,1.13
				c1.14,0.75,1.71,1.73,1.71,2.94c0,0.99-0.38,1.86-1.14,2.62c-0.76,0.75-2.12,1.49-4.08,2.21L250.91,251.84z M246.15,251.8
				c-2.43,0.91-3.64,2.18-3.64,3.81c0,1.52,0.61,3.25,1.84,5.2c1.23,1.95,2.64,2.92,4.25,2.92c1.24,0,2.59-0.58,4.04-1.74
				C250.09,258.35,247.93,254.95,246.15,251.8z M249.54,249.51c1.11-0.44,1.83-0.97,2.16-1.59c0.34-0.62,0.51-1.45,0.51-2.5
				c0-2.16-0.91-3.23-2.74-3.23c-0.7,0-1.27,0.19-1.73,0.56c-0.46,0.37-0.68,0.84-0.68,1.41
				C247.06,245.17,247.88,246.96,249.54,249.51z"/>
		</g>
	</g>
	<g>
		<g>
			<path class="st0" d="M166.15,180.61c-5.29-0.21-9.18-1.6-11.68-4.18c-2.5-2.57-3.75-6.04-3.75-10.41c0-3.66,0.85-7.96,2.54-12.9
				c0.63-1.83,1.64-4.24,3.01-7.24c1.37-2.99,2.94-6.36,4.7-10.09c1.76-3.73,3.59-7.57,5.5-11.52c1.9-3.95,3.68-7.79,5.34-11.52
				c1.66-3.73,3.07-7.1,4.23-10.09c1.16-2.99,1.88-5.41,2.17-7.24c0.07-0.35,0.11-0.65,0.11-0.9c0-0.25,0-0.51,0-0.79
				c0-1.62-0.46-2.8-1.37-3.54c-0.92-0.74-2.08-1.11-3.49-1.11c-2.26,0-5,0.78-8.25,2.33c-3.88,1.83-7.84,4.39-11.89,7.66
				c-4.05,3.28-8.02,7.24-11.89,11.89c-3.66,4.44-7.1,9.25-10.31,14.43c-3.21,5.18-6.17,10.41-8.88,15.7
				c-2.71,5.29-5.2,10.34-7.45,15.17c-2.26,4.83-4.26,9.04-6.02,12.63c-0.49,0.99-1.32,1.74-2.48,2.27
				c-1.16,0.53-2.27,0.79-3.33,0.79c-0.92,0-1.69-0.19-2.33-0.58c-0.63-0.39-0.85-0.97-0.63-1.74c1.06-1.55,2.5-4,4.33-7.35
				c1.83-3.35,3.82-7.27,5.97-11.79c2.15-4.51,4.32-9.32,6.5-14.43c2.18-5.11,4.17-10.22,5.97-15.33c1.8-5.11,3.19-9.92,4.18-14.43
				c0.7-3.1,1.06-5.99,1.06-8.67c0-4.93-1.15-8.44-3.44-10.52c-2.29-2.08-5.23-3.12-8.83-3.12c-3.24,0-6.8,0.71-10.68,2.11
				c-3.88,1.41-7.72,3.31-11.52,5.71c-6.13,3.74-11.2,8.09-15.22,13.05c-4.02,4.97-7.01,10.01-8.99,15.12
				c-1.97,5.11-2.96,9.85-2.96,14.22c0,4.58,1.11,8.39,3.33,11.42c2.22,3.03,5.51,4.55,9.88,4.55c3.73,0,7.17-0.77,10.31-2.33
				c3.13-1.55,5.85-3.56,8.14-6.02c2.29-2.47,4.07-5.04,5.34-7.72c1.27-2.68,1.9-5.14,1.9-7.4c0-2.04-0.57-3.72-1.69-5.02
				c-1.13-1.3-2.96-1.96-5.5-1.96c-0.28,0-0.56,0.02-0.85,0.05c-0.28,0.04-0.6,0.05-0.95,0.05h-0.32c-0.63,0-0.95-0.17-0.95-0.53
				c0-0.63,0.35-1.02,1.06-1.16c1.83-0.42,3.42-0.63,4.76-0.63c2.89,0,5.02,0.78,6.39,2.33c1.37,1.55,2.06,3.52,2.06,5.92
				c0,2.54-0.72,5.34-2.17,8.4c-1.45,3.07-3.49,5.96-6.13,8.67c-2.64,2.71-5.8,4.95-9.46,6.71c-3.67,1.76-7.72,2.64-12.16,2.64
				c-3.38,0-6.55-0.83-9.51-2.48c-2.96-1.65-5.34-4.03-7.14-7.13c-1.8-3.1-2.7-6.83-2.7-11.2c0-2.18,0.25-4.49,0.74-6.92
				s1.3-4.95,2.43-7.56c1.69-4.09,4.05-7.96,7.08-11.63c3.03-3.66,6.46-7.03,10.31-10.09c3.84-3.07,7.77-5.69,11.79-7.88
				c3.52-1.97,7.33-3.54,11.42-4.7c4.09-1.16,8-1.74,11.73-1.74c3.38,0,6.48,0.56,9.3,1.69c2.82,1.13,5.06,2.94,6.71,5.44
				c1.66,2.5,2.48,5.83,2.48,9.99c0,0.71-0.02,1.37-0.05,2.01c-0.04,0.63-0.12,1.41-0.26,2.33c-0.42,4.09-1.53,8.23-3.33,12.42
				c-1.8,4.19-3.61,8.26-5.44,12.21c-0.99,2.19-1.69,3.77-2.11,4.76c-0.42,0.99-0.63,1.55-0.63,1.69c0,0.14,0.19-0.11,0.58-0.74
				c0.39-0.63,0.85-1.41,1.37-2.33c0.53-0.92,1-1.69,1.43-2.33c1.62-2.54,3.59-5.43,5.92-8.67c2.33-3.24,5-6.69,8.03-10.36
				c3.95-4.79,8.12-9.2,12.53-13.21c4.4-4.02,8.65-6.98,12.74-8.88c1.83-0.85,3.73-1.51,5.71-2.01c1.97-0.49,3.84-0.74,5.6-0.74
				c2.82,0,5.29,0.72,7.4,2.17c2.11,1.44,3.13,4.07,3.06,7.87c0,3.17-0.76,6.7-2.27,10.57c-1.52,3.88-3.49,8.07-5.92,12.58
				c-2.43,4.51-5.06,9.34-7.88,14.48c-2.82,5.15-5.53,10.57-8.14,16.28c-1.9,4.09-3.29,7.88-4.18,11.36
				c-0.88,3.49-1.32,6.54-1.32,9.14c0,2.89,0.56,5.16,1.69,6.82c1.13,1.66,2.75,2.48,4.86,2.48c1.55,0,3.28-0.46,5.18-1.37
				c0.63-0.35,1.22-0.58,1.74-0.69s0.93-0.16,1.22-0.16c1.06,0,1.58,0.39,1.58,1.16c0,0.77-0.63,1.62-1.9,2.54
				C169.96,180.25,168.27,180.67,166.15,180.61z"/>
		</g>
	</g>
	<g>
		<g>
			<path class="st0" d="M418.4,196.99c-0.63,0-0.76-0.48-0.37-1.43c0.39-0.95,0.76-1.82,1.11-2.59c0.63-1.27,0.95-3.24,0.95-5.92
				c0-2.33-0.42-4.83-1.27-7.5c-0.85-2.68-2.5-5.11-4.97-7.29c-3.38-3.1-7.19-5.57-11.42-7.4c-4.23-1.83-8.65-3.31-13.27-4.44
				c-4.62-1.13-9.18-2.11-13.69-2.96c-2.75,3.81-5.69,7.22-8.83,10.25c-3.14,3.03-6.47,5.35-9.99,6.98
				c-1.97,0.91-3.88,1.6-5.71,2.06c-1.83,0.46-3.56,0.69-5.18,0.69c-3.95,0-7.17-1.04-9.67-3.12c-2.5-2.08-3.75-4.53-3.75-7.35
				c0-2.68,1.22-5.3,3.65-7.88c2.43-2.57,6.46-4.7,12.1-6.4c2.25-0.63,4.76-1.11,7.5-1.43c2.75-0.32,5.6-0.48,8.56-0.48
				c1.83,0,3.65,0.05,5.44,0.16c1.8,0.11,3.47,0.34,5.02,0.69c2.04-3.1,3.95-6.32,5.71-9.67c1.76-3.35,3.59-6.99,5.5-10.94
				c-5.57,0.14-10.4-0.69-14.48-2.48c-4.09-1.8-7.24-4.21-9.46-7.24c-2.22-3.03-3.33-6.27-3.33-9.72c0-2.82,0.81-5.58,2.43-8.3
				c1.62-2.71,4.17-5.18,7.66-7.4s7.94-3.96,13.37-5.23c0.35-0.14,0.69-0.21,1-0.21c0.32,0,0.62,0,0.9,0c1.06,0,1.59,0.21,1.59,0.63
				c0,0.71-1.13,1.2-3.38,1.48c-3.66,0.42-6.89,1.73-9.67,3.91c-2.79,2.19-4.93,4.79-6.45,7.82c-1.52,3.03-2.27,6.1-2.27,9.2
				c0,2.68,0.63,5.18,1.9,7.5c1.27,2.33,3.28,4.21,6.03,5.65c2.75,1.45,6.31,2.17,10.68,2.17c1.55,0,3.21-0.11,4.97-0.32
				c0.28-0.56,0.76-1.71,1.43-3.44c0.67-1.73,1.43-3.68,2.27-5.87c0.84-2.18,1.67-4.3,2.48-6.34c0.81-2.04,1.74-4.44,2.8-7.19
				c3.24-8.1,6.57-14.46,9.99-19.08c3.42-4.61,6.73-7.88,9.94-9.78c3.21-1.9,6.08-2.85,8.61-2.85c2.75,0,5.02,0.81,6.82,2.43
				c1.8,1.62,2.77,3.45,2.91,5.5c0.07,0.63,0.11,1.09,0.11,1.37c0,0.28,0,0.63,0,1.06c0,4.16-0.83,8.32-2.48,12.47
				c-1.66,4.16-3.95,8.1-6.87,11.84c-2.92,3.74-6.27,7.12-10.04,10.15c-3.77,3.03-7.79,5.57-12.05,7.61
				c-4.26,2.04-8.58,3.45-12.95,4.23c-1.06,2.11-1.99,4-2.8,5.66c-0.81,1.66-1.71,3.44-2.7,5.34c-0.99,1.9-2.29,4.33-3.91,7.29
				c-0.49,0.92-0.86,1.57-1.11,1.96c-0.25,0.39-0.62,0.97-1.11,1.74c3.52,0.85,7.36,2.03,11.52,3.54c4.16,1.52,8.26,3.31,12.31,5.39
				c4.05,2.08,7.66,4.35,10.83,6.82c3.95,3.03,6.75,6.45,8.4,10.25c1.66,3.81,2.48,7.15,2.48,10.04c0,2.04-0.32,3.59-0.95,4.65
				c-0.92,1.55-1.83,2.54-2.75,2.96C419.6,196.74,418.9,196.99,418.4,196.99z M344.31,174.37c1.55,0,3.22-0.21,5.02-0.63
				s3.68-1.09,5.66-2.01c5.92-2.89,11.38-7.89,16.38-15.01c-1.62-0.35-3.31-0.62-5.07-0.79c-1.76-0.18-3.56-0.26-5.39-0.26
				c-1.9,0-3.86,0.11-5.87,0.32c-2.01,0.21-3.96,0.6-5.87,1.16c-4.72,1.27-8.33,2.89-10.83,4.86c-2.5,1.97-3.75,3.98-3.75,6.02
				c0,1.76,0.88,3.26,2.64,4.49C338.99,173.75,341.35,174.37,344.31,174.37z M391.77,127.75c4.79-1.06,9.48-2.98,14.06-5.76
				c4.58-2.78,8.7-6.17,12.37-10.15c3.66-3.98,6.59-8.31,8.77-13c2.18-4.69,3.28-9.46,3.28-14.32c0-1.2-0.32-2.18-0.95-2.96
				c-0.63-0.77-1.55-1.16-2.75-1.16c-1.62,0-3.7,0.9-6.24,2.7c-2.54,1.8-5.43,4.79-8.67,8.98c-3.24,4.19-6.73,9.95-10.46,17.28
				c-1.9,3.67-3.58,6.89-5.02,9.67C394.71,121.82,393.25,124.73,391.77,127.75z"/>
		</g>
	</g>
	<g>
		<g>
			<path class="st0" d="M298.48,146.1c-0.03,0.02-0.06,0.03-0.1,0.05c-2.89,1.15-6.14,1.42-9.25,1.19
				c-2.51-0.19-4.97-0.69-7.43-1.18c-2.28-0.45-4.67-0.84-6.98-0.35c-1.33,0.28-2.64,0.86-3.68,1.74c-0.03,0.02-0.05,0.04-0.07,0.06
				c-1.57,0.4-3.06,1.19-4.16,2.4c-0.61,0.68-1.12,1.44-1.6,2.22c-0.48,0.78-0.92,1.57-1.3,2.4c-0.06,0.13-0.11,0.25-0.17,0.38
				c0.44-1.95,0.91-3.89,1.45-5.81c0.61-2.21,1.41-4.37,2.3-6.49c0.15-0.35,0.3-0.7,0.45-1.05c0,0,0,0,0-0.01
				c1.52-2.86,3.94-5.19,6.69-6.86c1.28-0.78,2.65-1.41,4.05-1.94c1.04-0.4,2.12-0.71,3.23-0.82c0.24-0.02,0.48-0.04,0.71-0.05
				c0,0,0.01,0.01,0.01,0.01c0,0,0.01,0.01,0.01,0.01c2.07,1.98,5.1,2.88,7.92,3.04c2.82,0.16,5.62-0.27,8.43-0.5l0,0
				c0.82,0.03,1.65,0.02,2.48-0.06c0.14-0.01,0.27-0.03,0.41-0.04c0.1-0.01,0.19-0.02,0.29-0.03c0,0,0,0,0,0l0,0
				c-0.07-0.07-0.14-0.15-0.21-0.22c-0.01-0.01-0.01-0.01-0.02-0.02c-0.83-0.81-1.81-1.45-2.88-1.96c-1.56-0.74-3.21-1.35-4.84-1.89
				c-2.89-0.96-6.07-1.48-8.99-0.34c-0.94,0.37-1.87,0.92-2.6,1.66c-0.03,0.03-0.06,0.06-0.09,0.09c-0.09,0-0.17,0.01-0.26,0.01
				c-1.12,0.07-2.21,0.33-3.26,0.7c-2.94,1.04-5.71,2.6-7.98,4.75c-0.86,0.82-1.64,1.71-2.32,2.68c0.6-1.27,1.25-2.52,1.95-3.74
				c0-0.01,0.01-0.01,0.01-0.02c0.01-0.01,0.01-0.02,0.02-0.03c0,0,0,0,0,0c0.37-0.64,0.75-1.27,1.15-1.9
				c1.68-2.62,3.68-5,5.81-7.26c2.04-2.16,4.15-4.24,6.06-6.51c0.08-0.09,0.15-0.18,0.23-0.27c0.05-0.01,0.1-0.02,0.14-0.04
				c0.01,0,0.02,0,0.03-0.01c3.12-0.86,5.74-3.25,7.65-5.82c2.18-2.95,3.78-6.33,5.97-9.26c0.12-0.16,0.25-0.33,0.37-0.49
				c-0.09,0.05-0.19,0.11-0.28,0.16c-0.09,0.05-0.17,0.1-0.26,0.15c-0.14,0.08-0.29,0.16-0.43,0.24c-0.8,0.46-1.61,0.92-2.41,1.38
				c-1.5,0.87-2.99,1.78-4.36,2.86c-2.58,2.05-4.56,4.79-5.71,7.88c-0.31,0.83-0.55,1.68-0.73,2.55
				c-3.53,4.23-7.73,7.87-10.97,12.34c1.81-2.98,3.73-5.9,5.28-9.03c0.03-0.05,0.06-0.1,0.08-0.14c1.7-2.95,3.23-6.01,3.97-9.34
				c0.49-2.22,0.52-4.48,0.39-6.74c-0.12-2.02-0.27-4.02-0.22-6.05c0.02-0.99,0.07-1.99,0.17-2.98c0.02-0.22,0.05-0.44,0.08-0.66
				c-0.07,0.12-0.14,0.25-0.2,0.38c-0.03,0.06-0.07,0.13-0.1,0.19c-0.07,0.14-0.14,0.29-0.2,0.43c-0.05,0.1-0.09,0.21-0.14,0.31
				c-0.92,2.2-1.23,4.56-1.51,6.91c-0.29,2.53-0.57,5.12-1.58,7.49c-0.53,1.24-1.23,2.41-1.69,3.68c-0.36,0.99-0.56,2.02-0.57,3.08
				c-0.01,1.4,0.3,2.79,0.89,4.05c0.01,0.02,0.02,0.05,0.03,0.07c-1.52,2.93-3.36,5.71-5.06,8.51c-0.74,1.21-1.45,2.44-2.11,3.7
				c-0.82,1.44-1.58,2.92-2.27,4.42c-0.17,0.38-0.34,0.75-0.51,1.13c-0.99,2.23-1.86,4.53-2.56,6.87c-0.87,2.92-1.52,5.91-2.17,8.88
				c0,0.01,0,0.02-0.01,0.03c-0.04,0.15-0.07,0.3-0.1,0.45c0,0,0,0,0,0c-0.06,0.28-0.12,0.57-0.18,0.85c0.05-2-0.2-4.02-0.44-6.01
				c-0.11-0.93-0.21-1.83-0.41-2.74c-0.12-0.55-0.16-1.08-0.01-1.63c0.13-0.48,0.35-0.93,0.58-1.36c0.06-0.1,0.11-0.21,0.17-0.31
				c0,0.02-0.01,0.03-0.01,0.05c0.06-0.11,0.13-0.21,0.19-0.32c0.17-0.16,0.33-0.32,0.48-0.48c0.86-0.89,1.6-1.89,2.23-2.96
				c1.29-2.21,2.08-4.68,2.59-7.17c1.08-5.24,0.86-10.62,1.68-15.9c0.06-0.38,0.12-0.76,0.2-1.14c0-0.01,0-0.02,0.01-0.03
				c0.03-0.15,0.06-0.3,0.09-0.45c-0.11,0.12-0.21,0.24-0.31,0.37c0,0,0,0,0,0c-1.35,1.6-2.52,3.34-3.51,5.18
				c-1.36,2.53-2.36,5.25-2.96,8.06c-0.61,2.83-0.8,5.72-0.59,8.61c0.11,1.58,0.24,3.15-0.02,4.73c-0.07,0.4-0.15,0.79-0.24,1.19
				c-0.01,0.05-0.02,0.1-0.03,0.15c-0.26,0.47-0.49,0.95-0.67,1.45c-0.2,0.57-0.26,1.13-0.15,1.73c0.05,0.28,0.12,0.56,0.18,0.84
				c0.09,0.44,0.14,0.88,0.19,1.32c0.18,1.59,0.4,3.18,0.5,4.78c0.08,1.33,0.07,2.66-0.13,3.98c-0.64,3.09-1.22,6.2-1.7,9.32
				c-0.29,1.87-0.55,3.76-0.73,5.65c-0.13,1.38-0.23,2.79-0.13,4.18c0.02,0.25,0.05,0.49,0.09,0.73c0.02,0.15,0.26,0.14,0.24-0.01
				c-0.21-1.22-0.13-2.49-0.05-3.72c0.12-1.8,0.35-3.59,0.61-5.38c0.45-3.11,1.01-6.21,1.63-9.3c0-0.01,0-0.01,0.01-0.02
				c0.12-0.45,0.21-0.91,0.28-1.37c0.12-0.6,0.25-1.2,0.38-1.81c0.07-0.32,0.14-0.64,0.2-0.96c0,0,0,0,0,0c0-0.01,0-0.01,0-0.02
				c0.01-0.02,0.01-0.05,0.02-0.07c0.01-0.05,0.02-0.1,0.03-0.16c0-0.01,0.01-0.03,0.01-0.04c0.38-1.72,1.11-3.31,2.01-4.83
				c0.93-1.56,1.96-3.05,3.56-3.97c0.69-0.4,1.43-0.69,2.2-0.9c0.01,0.02,0.02,0.04,0.03,0.05c0.01,0.02,0.02,0.04,0.04,0.06
				c0.89,1.39,2.18,2.54,3.64,3.33c2.84,1.52,6.22,1.83,9.39,1.56c2.86-0.24,5.68-1.01,8.27-2.25c1.3-0.62,2.55-1.37,3.71-2.23
				c0.88-0.65,1.7-1.35,2.54-2.05c0.01-0.01,0.02-0.02,0.03-0.03c0.16-0.14,0.33-0.27,0.49-0.41c0.05-0.04,0.1-0.08,0.15-0.12
				c0.09-0.07,0.17-0.14,0.26-0.21C299.17,145.75,298.82,145.93,298.48,146.1z M286.13,133.86c-1.15-0.45-2.23-1.08-3.13-1.9
				c0.17,0,0.34-0.01,0.51,0c0,0,0.01,0,0.01,0c0.87,0.02,1.75,0.11,2.62,0.21c0.02,0,0.04,0,0.05,0c2.75,0.38,5.47,1.19,8.15,1.75
				c1.07,0.22,2.14,0.4,3.21,0.51C293.73,134.8,289.79,135.29,286.13,133.86z M285.03,130.33c1.24-0.54,2.6-0.77,3.94-0.77
				c1.57,0.01,3.13,0.34,4.63,0.81c1.59,0.49,3.16,1.09,4.69,1.75c0.89,0.39,1.77,0.83,2.56,1.4c0.27,0.2,0.53,0.42,0.77,0.65
				c-0.91,0.01-1.83,0.06-2.72,0.13c-0.1,0-0.21-0.01-0.31-0.01c-1.2-0.07-2.39-0.25-3.56-0.47c-2.39-0.46-4.74-1.13-7.13-1.59
				c-1.21-0.23-2.43-0.41-3.66-0.47c-0.01,0-0.02,0-0.03,0c-0.43-0.03-0.87-0.04-1.3-0.03
				C283.53,131.13,284.27,130.66,285.03,130.33z M297.11,105.51c0.01-0.01,0.02-0.02,0.03-0.04c-0.21,0.3-0.42,0.59-0.62,0.89
				c-2.61,3.94-4.6,8.48-8.44,11.44c-1.13,0.87-2.4,1.58-3.75,2c0.21-0.3,0.43-0.61,0.65-0.91c0.1-0.13,0.2-0.26,0.31-0.4
				c0.01-0.02,0.02-0.03,0.02-0.05c0.94-1.25,1.93-2.45,2.95-3.64c1.39-1.61,2.83-3.17,4.32-4.69
				C294.1,108.59,295.63,107.07,297.11,105.51z M286.92,113.43c0.93-1.37,2.06-2.6,3.34-3.66c1.3-1.07,2.72-1.97,4.17-2.82
				c0.72-0.42,1.45-0.84,2.17-1.26c-1.21,1.27-2.45,2.5-3.68,3.74c-2.88,2.92-5.66,5.97-8.1,9.28c-0.17,0.22-0.35,0.44-0.52,0.65
				C284.8,117.26,285.7,115.23,286.92,113.43z M282.41,105.82c0.16,2.3,0.25,4.61-0.15,6.9c-0.39,2.21-1.16,4.32-2.11,6.34
				c-0.21,0.45-0.44,0.9-0.67,1.35c0.25-0.63,0.48-1.27,0.68-1.92c0.47-1.22,0.89-2.45,1.18-3.72c0.31-1.33,0.41-2.69,0.5-4.05
				c0.09-1.38,0.15-2.76,0.2-4.14c0.06-1.73,0.12-3.45,0.21-5.18C282.24,102.87,282.31,104.34,282.41,105.82z M277.78,123.47
				c-0.47-1.05-0.73-2.18-0.79-3.32c-0.05-1,0.07-2,0.37-2.96c0.39-1.28,1.07-2.46,1.63-3.67c1.05-2.26,1.43-4.69,1.72-7.14
				c0.27-2.32,0.5-4.67,1.26-6.89c0.06-0.17,0.12-0.34,0.18-0.5c-0.17,2.15-0.25,4.3-0.33,6.46c-0.05,1.39-0.1,2.77-0.17,4.15
				c-0.08,1.39-0.14,2.81-0.37,4.18c-0.27,1.6-0.78,3.13-1.36,4.64c-0.44,1.16-0.93,2.3-1.4,3.44c-0.13,0.32-0.26,0.64-0.38,0.96
				c-0.01,0.01-0.01,0.03-0.02,0.04C278.02,123.06,277.9,123.26,277.78,123.47z M268.86,126.37c-0.34,5.15-0.67,10.49-2.98,15.21
				c-0.62,1.27-1.38,2.46-2.31,3.53c-0.11,0.13-0.22,0.25-0.34,0.37c0.15-0.24,0.3-0.47,0.45-0.7c0.03-0.05,0.02-0.1-0.01-0.13
				c0.1-0.2,0.2-0.4,0.29-0.6c0.77-1.64,1.21-3.35,1.52-5.13c0.71-4.13,0.78-8.34,1.76-12.42c0.56-2.38,1.36-4.68,2.3-6.93
				C269.18,121.82,269.01,124.12,268.86,126.37z M263.03,143.89c0.05-0.77,0.02-1.54-0.03-2.31c-0.1-1.49-0.21-2.96-0.16-4.45
				c0.05-1.46,0.21-2.93,0.47-4.37c0.52-2.84,1.45-5.61,2.74-8.19c0.93-1.86,2.05-3.62,3.34-5.24c-0.77,1.83-1.45,3.7-1.99,5.62
				c-0.56,1.99-0.93,4.02-1.18,6.07c-0.26,2.1-0.43,4.21-0.72,6.31c-0.27,1.92-0.59,3.86-1.32,5.67c-0.33,0.81-0.72,1.59-1.14,2.36
				c-0.09,0.14-0.18,0.28-0.27,0.42C262.89,145.15,262.99,144.52,263.03,143.89z M274.4,146.12c2.33-0.6,4.78-0.22,7.09,0.23
				c2.44,0.48,4.86,0.99,7.34,1.19c2.33,0.19,4.69,0.14,6.98-0.36c0.25-0.05,0.49-0.11,0.73-0.18c-1.35,0.58-2.73,1.05-4.17,1.37
				c-1.54,0.34-3.12,0.51-4.69,0.43c-1.76-0.09-3.45-0.57-5.13-1.05c-1.58-0.46-3.17-0.88-4.81-1c-1.4-0.1-2.82,0-4.2,0.26
				c-0.68,0.13-1.35,0.31-2.01,0.52c-0.01-0.02-0.03-0.03-0.05-0.03C272.33,146.85,273.36,146.39,274.4,146.12z M297.16,147.2
				c-1.07,0.87-2.18,1.68-3.37,2.37c-2.48,1.43-5.24,2.41-8.07,2.85c-3.06,0.48-6.35,0.43-9.3-0.61c-2.06-0.73-3.97-2.08-5.16-3.92
				c0.53-0.19,1.07-0.35,1.62-0.48c1.38-0.33,2.81-0.49,4.23-0.44c1.63,0.05,3.2,0.4,4.76,0.84c1.68,0.48,3.36,1.01,5.1,1.19
				c1.55,0.16,3.11,0.06,4.64-0.21c2.13-0.39,4.16-1.12,6.11-2.04C297.53,146.9,297.34,147.05,297.16,147.2z"/>
			<path class="st0" d="M259.97,180.71c-0.04,0-0.08-0.01-0.12-0.02c-0.11-0.04-0.19-0.13-0.2-0.25c-0.04-0.23-0.07-0.48-0.09-0.75
				c-0.11-1.42,0.01-2.86,0.13-4.21c0.15-1.66,0.38-3.4,0.73-5.66c0.46-2.93,1.02-5.98,1.71-9.33c0.17-1.17,0.21-2.46,0.12-3.92
				c-0.07-1.15-0.21-2.32-0.35-3.45c-0.05-0.44-0.11-0.88-0.15-1.32c-0.05-0.44-0.1-0.87-0.19-1.3l-0.07-0.29
				c-0.04-0.18-0.08-0.37-0.12-0.55c-0.11-0.61-0.06-1.2,0.16-1.83c0.16-0.46,0.38-0.93,0.67-1.46l0.03-0.12
				c0.09-0.39,0.17-0.78,0.23-1.18c0.25-1.49,0.14-2.95,0.03-4.5l-0.01-0.19c-0.21-2.95-0.01-5.86,0.6-8.67
				c0.61-2.83,1.61-5.56,2.98-8.11c1-1.86,2.19-3.62,3.53-5.21c0.11-0.13,0.21-0.25,0.32-0.37l0.49-0.56l-0.15,0.73
				c-0.03,0.15-0.06,0.3-0.09,0.45c-0.08,0.41-0.14,0.79-0.2,1.17c-0.36,2.33-0.52,4.73-0.68,7.05c-0.2,2.92-0.4,5.93-1,8.86
				c-0.59,2.87-1.45,5.23-2.62,7.23c-0.66,1.12-1.42,2.13-2.26,3c-0.15,0.15-0.3,0.31-0.47,0.47l-0.35,0.59
				c-0.21,0.4-0.42,0.83-0.54,1.29c-0.12,0.46-0.12,0.93,0.01,1.54c0.2,0.89,0.3,1.75,0.41,2.66l0.05,0.42
				c0.15,1.3,0.31,2.63,0.38,3.97c0.62-2.82,1.25-5.72,2.09-8.53c0.66-2.21,1.52-4.53,2.56-6.89c0.17-0.38,0.34-0.76,0.51-1.14
				c0.73-1.58,1.49-3.07,2.28-4.43c0.57-1.09,1.24-2.26,2.11-3.7c0.47-0.77,0.95-1.55,1.43-2.32c1.22-1.97,2.49-4.01,3.58-6.09
				c-0.6-1.29-0.91-2.71-0.9-4.12c0.01-1.06,0.2-2.12,0.58-3.15c0.28-0.75,0.63-1.47,0.98-2.17c0.25-0.5,0.5-1.01,0.72-1.52
				c0.97-2.26,1.26-4.75,1.54-7.17l0.03-0.26c0.28-2.42,0.61-4.77,1.52-6.96c0.04-0.11,0.09-0.21,0.14-0.32
				c0.07-0.15,0.13-0.29,0.21-0.44c0.03-0.06,0.06-0.13,0.1-0.2c0.07-0.13,0.14-0.26,0.21-0.38l0.49-0.88l-0.12,1
				c-0.03,0.22-0.05,0.43-0.07,0.65c-0.09,0.89-0.15,1.86-0.17,2.96c-0.04,1.71,0.06,3.45,0.17,5.12l0.05,0.91
				c0.16,2.75,0.04,4.84-0.39,6.79c-0.79,3.55-2.46,6.74-3.99,9.39l-0.08,0.14c-1.05,2.11-2.28,4.16-3.51,6.15
				c1.38-1.62,2.85-3.17,4.29-4.68c1.53-1.6,3.11-3.25,4.55-4.97c0.18-0.85,0.43-1.7,0.73-2.53c1.16-3.13,3.15-5.89,5.77-7.97
				c1.39-1.11,2.93-2.04,4.38-2.88c0.8-0.46,1.61-0.92,2.41-1.38l1.84-1.05l-0.62,0.79c-0.12,0.16-0.25,0.32-0.37,0.48
				c-1.11,1.47-2.08,3.1-3.02,4.67c-0.92,1.54-1.87,3.13-2.96,4.59c-1.6,2.15-4.24,4.92-7.75,5.89l-0.11,0.03l-0.19,0.22
				c-1.39,1.64-2.9,3.21-4.36,4.73c-0.57,0.59-1.14,1.19-1.71,1.79c-2.47,2.61-4.3,4.91-5.79,7.23c-0.38,0.6-0.77,1.23-1.14,1.88
				l-0.04,0.05l-0.06-0.06l-0.11-0.02l0.17,0.1c-0.37,0.65-0.74,1.33-1.1,2.03c0.37-0.42,0.76-0.83,1.17-1.22
				c2.17-2.06,4.88-3.67,8.05-4.8c1.16-0.41,2.24-0.65,3.31-0.71l0.18-0.01l0.04-0.04c0.7-0.71,1.62-1.29,2.67-1.7
				c2.5-0.98,5.49-0.87,9.12,0.33c1.95,0.65,3.5,1.25,4.87,1.9c1.17,0.56,2.13,1.21,2.93,2c0.09,0.09,0.16,0.16,0.23,0.24l0.13,0.14
				l-0.19,0.19l-0.35,0.03c-0.13,0.02-0.27,0.03-0.41,0.04c-0.81,0.07-1.65,0.09-2.51,0.06c-0.69,0.06-1.4,0.13-2.11,0.2
				c-2.06,0.21-4.2,0.42-6.33,0.3c-1.9-0.11-5.47-0.65-8.01-3.06c-0.21,0.01-0.41,0.02-0.62,0.04c-0.97,0.1-2.02,0.36-3.18,0.81
				c-1.53,0.58-2.85,1.21-4.02,1.93c-2.91,1.78-5.2,4.12-6.62,6.79l-0.01,0.01c-0.15,0.34-0.3,0.68-0.44,1.03
				c-1,2.39-1.74,4.5-2.29,6.46c-0.35,1.26-0.7,2.62-1.05,4.11c0.21-0.39,0.45-0.79,0.71-1.23c0.46-0.75,0.98-1.55,1.62-2.25
				c1.05-1.16,2.51-2,4.21-2.45l0.04-0.04c1.02-0.86,2.32-1.48,3.77-1.78c2.36-0.5,4.78-0.1,7.06,0.35l0.46,0.09
				c2.27,0.45,4.61,0.91,6.95,1.09c3.47,0.26,6.55-0.14,9.16-1.17l0.05-0.02l0.12,0.16l-0.09-0.18c0.34-0.17,0.68-0.35,1.02-0.54
				l0.22,0.33l-1.21,1.01c-0.73,0.61-1.48,1.24-2.26,1.82c-1.16,0.85-2.42,1.61-3.74,2.24c-2.64,1.27-5.45,2.03-8.34,2.27
				c-3.76,0.32-6.96-0.22-9.5-1.59c-1.54-0.83-2.82-2-3.7-3.38c-0.72,0.2-1.4,0.49-2.01,0.84c-1.48,0.85-2.46,2.17-3.49,3.9
				c-0.99,1.66-1.64,3.22-1.99,4.77l-0.27,1.25c-0.13,0.6-0.25,1.2-0.38,1.8c-0.07,0.46-0.16,0.93-0.28,1.38
				c-0.68,3.4-1.22,6.44-1.63,9.3c-0.21,1.47-0.47,3.42-0.6,5.36c-0.09,1.32-0.15,2.51,0.05,3.68c0.02,0.11-0.02,0.21-0.1,0.28
				C260.11,180.69,260.04,180.71,259.97,180.71z M260.03,180.37L260.03,180.37L260.03,180.37z M262.67,158.64
				c0,0.16-0.01,0.31-0.02,0.47c0.02-0.12,0.05-0.23,0.07-0.35l0.02-0.11L262.67,158.64z M263.7,155.01
				c-0.04,0.19-0.08,0.38-0.13,0.57c0.07-0.18,0.14-0.36,0.22-0.54L263.7,155.01z M271.56,147.99c1.11,1.61,2.85,2.89,4.92,3.63
				c2.61,0.93,5.79,1.14,9.2,0.61c2.83-0.44,5.53-1.39,8-2.83c0.91-0.52,1.81-1.14,2.76-1.88c-1.66,0.69-3.25,1.17-4.81,1.45
				c-1.62,0.29-3.2,0.37-4.7,0.21c-1.52-0.15-3.01-0.58-4.44-1l-0.7-0.2c-1.28-0.36-2.96-0.78-4.71-0.83
				c-1.4-0.04-2.81,0.11-4.18,0.44C272.46,147.71,272.01,147.84,271.56,147.99z M276.65,146.52c0.37,0,0.74,0.01,1.1,0.04
				c1.68,0.12,3.32,0.56,4.86,1c1.54,0.45,3.29,0.95,5.08,1.05c1.48,0.08,3.04-0.07,4.64-0.42c0.64-0.14,1.28-0.32,1.93-0.53
				c-1.67,0.22-3.47,0.25-5.45,0.09c-2.22-0.18-4.43-0.62-6.57-1.04l-0.79-0.16c-2.28-0.44-4.7-0.83-7-0.24
				c-0.66,0.17-1.29,0.41-1.86,0.71c0.3-0.08,0.6-0.14,0.91-0.2C274.55,146.62,275.6,146.52,276.65,146.52z M271.05,147.94
				l-0.02,0.03L271.05,147.94L271.05,147.94z M271.02,147.88l-0.02,0.03L271.02,147.88L271.02,147.88z M271.24,147.63
				c-0.02,0.02-0.05,0.04-0.07,0.06l-0.03,0.02l0.04-0.02c0.04-0.02,0.09-0.03,0.13-0.05L271.24,147.63z M296.54,146.96l0.03,0.08
				c0.19-0.08,0.38-0.16,0.57-0.25C296.94,146.85,296.74,146.91,296.54,146.96z M298.48,146.1l0.01,0.04l0.01,0L298.48,146.1z
				 M263.02,145.74l-0.01,0.04c0.04-0.04,0.07-0.07,0.1-0.11c0.05-0.05,0.1-0.1,0.15-0.15l-0.07-0.05
				C263.13,145.56,263.08,145.65,263.02,145.74z M268.64,120.65c-0.9,1.26-1.71,2.61-2.41,4.01c-1.29,2.57-2.21,5.31-2.72,8.14
				c-0.26,1.44-0.42,2.9-0.47,4.34c-0.04,1.36,0.05,2.74,0.14,4.07l0.02,0.36c0.05,0.7,0.08,1.52,0.04,2.33h0
				c-0.02,0.27-0.04,0.54-0.08,0.83c0.33-0.63,0.61-1.23,0.84-1.81c0.74-1.83,1.06-3.86,1.31-5.62c0.17-1.21,0.3-2.44,0.42-3.63
				c0.09-0.89,0.19-1.79,0.3-2.68c0.27-2.23,0.66-4.22,1.19-6.1C267.59,123.51,268.06,122.11,268.64,120.65z M269.12,121.15
				c-0.72,1.88-1.28,3.65-1.69,5.39c-0.56,2.37-0.83,4.84-1.08,7.22c-0.18,1.71-0.37,3.47-0.67,5.19c-0.35,2.01-0.82,3.63-1.48,5.07
				c0.56-0.76,1.07-1.61,1.51-2.52c2.25-4.61,2.6-9.83,2.94-14.89l0.02-0.25C268.79,124.6,268.91,122.87,269.12,121.15z
				 M268.7,139.88c-0.07,0.15-0.14,0.31-0.22,0.46c0.09-0.14,0.19-0.28,0.29-0.42L268.7,139.88z M286.2,133.68
				c3.07,1.21,6.39,1.03,9.63,0.72c-0.5-0.08-1.01-0.18-1.54-0.29c-0.96-0.2-1.95-0.44-2.91-0.67c-1.7-0.41-3.46-0.83-5.2-1.07
				c-0.02,0-0.05,0-0.08,0c-0.82-0.1-1.7-0.19-2.58-0.21C284.29,132.77,285.19,133.28,286.2,133.68L286.2,133.68z M297.57,134.4
				v0.07c0.11-0.01,0.23-0.02,0.34-0.03C297.79,134.42,297.68,134.41,297.57,134.4z M283.44,131.52c0.25,0,0.52,0.01,0.79,0.03
				c1.14,0.05,2.35,0.21,3.71,0.47c1.2,0.23,2.4,0.52,3.57,0.8c1.17,0.28,2.37,0.57,3.56,0.8c1.34,0.26,2.47,0.41,3.54,0.47
				c0.1,0.01,0.21,0.01,0.31,0.02c0.79-0.07,1.52-0.11,2.21-0.12c-0.12-0.1-0.25-0.2-0.38-0.3c-0.67-0.49-1.44-0.92-2.52-1.38
				c-1.68-0.72-3.21-1.29-4.67-1.75c-1.75-0.54-3.21-0.79-4.58-0.8c-0.01,0-0.03,0-0.04,0c-1.39,0-2.67,0.25-3.82,0.75l0,0
				C284.49,130.78,283.92,131.13,283.44,131.52z M272.96,132.11c-0.06,0.1-0.12,0.2-0.18,0.29c-0.14,0.23-0.28,0.46-0.41,0.67
				c0.21-0.31,0.43-0.62,0.65-0.92L272.96,132.11z M268.86,126.37l0.04,0L268.86,126.37z M277.58,123.74l0.02,0.01l0.03-0.04
				L277.58,123.74z M281.86,100.57c-0.46,1.7-0.67,3.47-0.87,5.19l-0.08,0.64c-0.27,2.24-0.64,4.83-1.74,7.2
				c-0.16,0.35-0.33,0.69-0.5,1.04c-0.42,0.84-0.85,1.7-1.12,2.61c-0.28,0.92-0.4,1.9-0.36,2.89c0.04,1,0.25,1.97,0.62,2.89
				l0.16-0.27c0.13-0.33,0.26-0.66,0.39-0.97c0.16-0.39,0.32-0.78,0.48-1.18c0.31-0.75,0.62-1.5,0.91-2.26
				c0.7-1.81,1.11-3.23,1.35-4.6c0.22-1.25,0.29-2.56,0.35-3.82l0.02-0.34c0.07-1.33,0.12-2.69,0.17-4.01l0-0.14
				C281.71,103.66,281.77,102.1,281.86,100.57z M279.37,120.36c-0.05,0.13-0.11,0.26-0.16,0.39c-0.16,0.38-0.31,0.75-0.46,1.13
				c0.26-0.47,0.52-0.95,0.78-1.45L279.37,120.36z M284.12,120.08l0.02,0.04l-0.01-0.04L284.12,120.08z M285.5,118.55
				c-0.01,0.02-0.02,0.05-0.04,0.07l-0.31,0.4c-0.1,0.13-0.2,0.26-0.29,0.4c1.06-0.4,2.11-0.99,3.12-1.77
				c2.81-2.16,4.65-5.24,6.43-8.22c0.44-0.74,0.89-1.49,1.36-2.23c-0.53,0.54-1.06,1.08-1.58,1.61c-0.48,0.49-0.96,0.97-1.45,1.46
				c-1.58,1.61-2.99,3.14-4.31,4.69C287.3,116.24,286.35,117.42,285.5,118.55z M287.09,113.54L287.09,113.54
				c-1.04,1.53-1.83,3.2-2.35,4.97c2.12-2.86,4.68-5.79,8.05-9.21l1.02-1.02c0.56-0.56,1.13-1.14,1.69-1.71
				c-0.32,0.19-0.64,0.37-0.96,0.56c-1.29,0.75-2.79,1.68-4.15,2.8C289.12,110.97,288.01,112.19,287.09,113.54z M282.25,106.36
				l-0.01,0.21c-0.05,1.32-0.11,2.73-0.2,4.15c-0.1,1.46-0.2,2.77-0.5,4.08c-0.05,0.21-0.1,0.42-0.16,0.63
				c0.3-0.94,0.53-1.85,0.68-2.75C282.44,110.54,282.38,108.39,282.25,106.36z M297.12,105.44l0.06,0.05
				c0.07-0.1,0.14-0.19,0.21-0.29l-0.09,0.05L297.12,105.44z M282.21,101.38l0.08,0c0-0.19,0-0.37,0.01-0.56
				c0.02-0.95,0.07-1.79,0.13-2.58c0,0,0,0.01,0,0.01L282.37,99C282.3,99.79,282.25,100.58,282.21,101.38z"/>
		</g>
		<g>
			<path class="st0" d="M228.2,136.23c0.02,0.08,0.03,0.16,0.05,0.24c0.13,0.72,0.17,1.45,0.3,2.17c0.16,0.93,0.48,1.82,0.94,2.64
				c0.93,1.68,2.41,2.99,4.17,3.73c0.99,0.42,2.04,0.69,3.07,1c1.07,0.33,2.1,0.74,3.1,1.25c1.01,0.51,2,1.03,3.05,1.46
				c1,0.41,2.03,0.75,3.08,1.02c1.34,0.35,2.72,0.57,4.1,0.68c0.02,0,0.03,0,0.05,0c0.15,0.08,0.29,0.15,0.44,0.23
				c0.85,0.44,1.68,0.91,2.48,1.44c0.33,0.22,0.65,0.45,0.97,0.69c0.01,0.02,0.02,0.04,0.03,0.06c0.04,0.07,0.08,0.15,0.12,0.22
				c0.96,1.77,1.81,3.59,2.53,5.48c0.46,1.19,0.86,2.39,1.22,3.61c0.02,0.07,0.04,0.14,0.06,0.21c0.21,0.73,0.41,1.47,0.58,2.21
				c-0.04-0.07-0.08-0.14-0.12-0.21c-0.5-0.83-1.08-1.6-1.75-2.3c-0.01-0.01-0.01-0.02-0.02-0.03c-0.04-0.07-0.08-0.13-0.13-0.2
				c-0.68-1.06-1.48-2.03-2.38-2.91c-2.28-2.23-5.22-3.89-8.39-4.38c-0.77-0.12-1.55-0.17-2.33-0.14c-0.87,0.03-1.73,0.17-2.59,0.3
				c-1.38,0.2-2.84,0.4-4.21,0.06c-0.33-0.15-0.68-0.27-1.03-0.37c-0.01,0-0.01,0-0.02-0.01c-0.1-0.03-0.13,0.12-0.05,0.16
				c0.01,0,0.01,0.01,0.02,0.01c0.34,0.17,0.7,0.29,1.05,0.38c1.35,0.6,2.51,1.57,3.61,2.55c1.23,1.09,2.43,2.24,3.84,3.1
				c0.71,0.43,1.48,0.77,2.29,0.98c0.85,0.23,1.72,0.33,2.59,0.37c1.79,0.08,3.58-0.1,5.38-0.08c0.68,0.01,1.37,0.05,2.04,0.15
				c0.06,0.06,0.12,0.13,0.19,0.19c0.19,0.2,0.38,0.42,0.56,0.63c0.56,0.67,1.05,1.4,1.46,2.17c0.04,0.08,0.08,0.16,0.12,0.23
				c0,0,0,0,0,0c0.32,1.43,0.57,2.88,0.76,4.33c0.48,3.74,0.51,7.54,0.08,11.29c-0.01,0.11,0.16,0.14,0.17,0.03
				c0.05-0.47,0.1-0.93,0.14-1.4c0.32-3.74,0.18-7.53-0.4-11.24c-0.12-0.77-0.26-1.54-0.42-2.31c-0.05-0.25-0.11-0.51-0.16-0.76
				c-0.2-0.91-0.44-1.82-0.69-2.72c-0.02-0.07-0.04-0.14-0.06-0.21c-0.48-1.64-1.04-3.25-1.69-4.83c-0.61-1.48-1.3-2.91-2.06-4.31
				c-0.01-0.01-0.01-0.02-0.02-0.03c-0.02-0.04-0.05-0.09-0.07-0.13c-0.05-0.09-0.1-0.18-0.15-0.27c-0.2-0.36-0.4-0.72-0.61-1.07
				c-0.32-0.99-0.36-2.05-0.12-3.06c0.23-0.95,0.73-1.79,1.3-2.57c0.49-0.67,1.02-1.32,1.47-2.02c0.46-0.73,0.78-1.5,0.93-2.35
				c0.16-0.92,0.14-1.86,0.11-2.78c-0.04-0.94-0.08-1.89-0.2-2.83c-0.12-0.91-0.31-1.83-0.68-2.67c-0.33-0.77-0.82-1.44-1.36-2.07
				c-0.39-0.46-0.82-0.9-1.22-1.37c-0.07-0.08-0.15-0.17-0.22-0.25c0.02,0.11,0.04,0.22,0.06,0.33c0.21,1.4,0.05,2.85-0.46,4.17
				c-0.48,1.24-1.24,2.35-1.76,3.58c-0.26,0.6-0.45,1.22-0.53,1.87c-0.37-1.42-0.86-2.8-1.56-4.09c-0.9-1.67-2.14-3.19-3.76-4.19
				c-0.96-0.59-2.03-0.98-2.93-1.66c-0.8-0.61-1.48-1.38-2.02-2.23c-0.55-0.85-0.96-1.78-1.27-2.74c-0.25-0.79-0.41-1.62-0.75-2.37
				c-0.07-0.15-0.14-0.31-0.23-0.45c-0.02-0.02-0.04-0.04-0.07-0.05c-0.07-0.05-0.14-0.1-0.22-0.15c-0.19-0.12-0.4-0.23-0.62-0.3
				c-0.11-0.04-0.23-0.08-0.34-0.11c-0.07-0.03-0.15-0.05-0.22-0.09c0.03,0.07,0.06,0.14,0.08,0.22c0,0,0,0,0,0
				c0.18,0.56,0.19,1.17,0.24,1.75c0.05,0.6,0.11,1.19,0.17,1.78c0.14,1.2,0.31,2.4,0.54,3.59c0.45,2.33,1.09,4.64,2.05,6.82
				c0.95,2.15,2.2,4.17,3.8,5.9c1.53,1.65,3.29,3.05,4.96,4.56c0.8,0.73,1.59,1.48,2.3,2.3c0.16,0.22,0.31,0.45,0.47,0.68
				c0.26,0.38,0.51,0.75,0.75,1.14c0.09,0.14,0.18,0.28,0.27,0.42c0.29,0.46,0.57,0.92,0.84,1.38c0.02,0.03,0.04,0.07,0.06,0.1
				c0.13,0.22,0.26,0.45,0.39,0.67c-1.01-0.74-2.12-1.37-3.24-1.96c-0.13-0.07-0.25-0.13-0.38-0.2c-0.02-0.01-0.04-0.02-0.06-0.03
				c-0.46-0.46-0.9-0.95-1.31-1.44c-1.35-1.62-2.5-3.39-3.84-5.02c-1.29-1.56-2.78-3.05-4.62-3.94c-0.99-0.48-2.04-0.74-3.13-0.83
				c-1.26-0.1-2.52-0.02-3.77-0.1c-1.87-0.11-4.09-0.71-5.01-2.51c-0.02-0.04-0.05-0.09-0.07-0.14
				C228.31,136.2,228.24,136.2,228.2,136.23z M250.77,140.09c-0.02,0.59,0.02,1.18,0.09,1.76c0.28,2.41,0.69,4.82,1.19,7.2
				c-0.29-0.4-0.6-0.79-0.93-1.16c-0.28-0.32-0.58-0.64-0.88-0.94c-0.62-0.62-1.27-1.22-1.92-1.8c-1.71-1.51-3.5-2.96-4.99-4.71
				c-1.55-1.83-2.74-3.94-3.62-6.17c-0.89-2.26-1.48-4.63-1.87-7.03c-0.2-1.2-0.34-2.41-0.45-3.63c-0.05-0.59-0.07-1.19-0.16-1.77
				c-0.02-0.16-0.06-0.32-0.1-0.47c0.03,0.01,0.05,0.02,0.08,0.03c0.3,0.1,0.58,0.23,0.84,0.41c0.04,0.03,0.09,0.06,0.13,0.1
				c0.09,0.16,0.18,0.33,0.25,0.51c0.41,0.98,0.58,2.05,0.97,3.04c0.36,0.93,0.84,1.81,1.44,2.61c0.59,0.78,1.3,1.47,2.12,2
				c0.93,0.6,1.98,0.98,2.89,1.61c1.6,1.13,2.78,2.76,3.61,4.52C250.03,137.45,250.45,138.76,250.77,140.09z M253.13,150.83
				c0.01,0.07,0.03,0.15,0.04,0.22c-0.03-0.05-0.06-0.1-0.09-0.15c-0.23-0.38-0.46-0.75-0.7-1.12c-0.03-0.12-0.05-0.24-0.08-0.36
				c-0.24-1.15-0.46-2.3-0.66-3.45c-0.14-0.8-0.26-1.6-0.38-2.4c-0.11-0.79-0.23-1.59-0.29-2.39c-0.01-0.1-0.01-0.2-0.02-0.3
				c-0.01-0.27-0.02-0.54,0-0.81c0.02-0.39,0.07-0.78,0.16-1.17c0.16-0.65,0.43-1.27,0.73-1.87c0.6-1.2,1.33-2.35,1.69-3.66
				c0.29-1.05,0.37-2.15,0.24-3.22c0.45,0.51,0.92,1,1.34,1.53c0.55,0.69,0.99,1.45,1.27,2.29c0.3,0.91,0.44,1.86,0.52,2.8
				c0.08,0.94,0.13,1.89,0.14,2.84c0.01,0.96-0.05,1.94-0.36,2.86c-0.55,1.6-1.82,2.78-2.69,4.2
				C253.21,147.93,252.89,149.39,253.13,150.83z M256.09,161.5c-1.07-1-2.3-1.82-3.63-2.42c-1.3-0.59-2.68-0.91-4.09-1.08
				c-1.59-0.19-3.22-0.27-4.7-0.93c-0.1-0.05-0.17,0.11-0.07,0.16c1.62,0.73,3.42,0.77,5.15,1c1.39,0.19,2.74,0.57,4.01,1.19
				c1.22,0.6,2.35,1.39,3.33,2.33c0.02,0.02,0.04,0.04,0.06,0.06c-0.78-0.1-1.57-0.12-2.35-0.12c-1.81,0.01-3.62,0.19-5.43,0.04
				c-0.88-0.07-1.77-0.22-2.61-0.52c-0.79-0.28-1.53-0.68-2.21-1.16c-1.38-0.95-2.56-2.14-3.83-3.22c-0.78-0.66-1.6-1.29-2.5-1.77
				c1.31,0.18,2.68-0.04,3.98-0.23c0.84-0.12,1.69-0.24,2.54-0.25c0.78-0.01,1.56,0.07,2.33,0.21c1.57,0.29,3.07,0.87,4.46,1.65
				C252.72,157.66,254.65,159.42,256.09,161.5z M228.48,136.87c0.01,0.02,0.03,0.04,0.04,0.06c1.19,1.68,3.45,2.11,5.37,2.17
				c1.26,0.04,2.52-0.03,3.77,0.13c1.09,0.14,2.13,0.49,3.09,1.03c1.84,1.04,3.3,2.64,4.59,4.29c1.31,1.67,2.47,3.46,3.9,5.04
				c0.13,0.14,0.25,0.28,0.38,0.41c0.08,0.08,0.16,0.16,0.24,0.24c-0.06,0-0.11-0.01-0.17-0.01c-1.53-0.14-3.04-0.43-4.52-0.87
				c-1.04-0.31-2.06-0.69-3.05-1.14c-1.03-0.47-2.02-1.03-3.04-1.5c-0.97-0.45-1.98-0.77-3.01-1.07c-1.02-0.3-2.06-0.61-3.01-1.1
				c-1.7-0.87-3.07-2.37-3.82-4.12c-0.4-0.94-0.57-1.91-0.69-2.91C228.54,137.3,228.51,137.08,228.48,136.87z"/>
			<path class="st0" d="M259.61,181.14c-0.01,0-0.02,0-0.03,0c-0.16-0.02-0.27-0.16-0.25-0.32c0.43-3.71,0.4-7.5-0.08-11.24
				c-0.19-1.44-0.44-2.9-0.76-4.32l-0.1-0.19c-0.4-0.75-0.88-1.46-1.44-2.13c-0.18-0.21-0.36-0.42-0.56-0.62l-0.14-0.14
				c-0.59-0.09-1.23-0.13-1.95-0.14c-0.77-0.01-1.57,0.02-2.33,0.05c-1,0.04-2.03,0.08-3.05,0.03c-1-0.04-1.86-0.17-2.63-0.37
				c-0.81-0.21-1.59-0.55-2.34-1c-1.21-0.73-2.27-1.68-3.29-2.6c-0.19-0.17-0.38-0.35-0.58-0.52c-1.01-0.9-2.21-1.91-3.56-2.51
				c-0.35-0.08-0.72-0.21-1.06-0.38c-0.15-0.08-0.21-0.23-0.16-0.38c0.05-0.13,0.19-0.2,0.33-0.17c0.37,0.1,0.73,0.23,1.08,0.39
				c1.33,0.32,2.8,0.11,4.1-0.08l0.3-0.04c0.75-0.11,1.53-0.23,2.31-0.25c0.77-0.03,1.57,0.02,2.36,0.15
				c3.04,0.48,6.06,2.05,8.5,4.44c0.92,0.9,1.73,1.89,2.41,2.95l0.13,0.2c0.45,0.47,0.86,0.98,1.24,1.51
				c-0.09-0.34-0.19-0.68-0.28-1.02c-0.02-0.08-0.04-0.14-0.06-0.2c-0.35-1.21-0.76-2.41-1.22-3.6c-0.71-1.84-1.56-3.68-2.52-5.46
				l-0.12-0.22c-0.29-0.24-0.61-0.47-0.94-0.69c-0.7-0.46-1.48-0.92-2.46-1.43l-0.42-0.21c-1.38-0.11-2.77-0.34-4.12-0.68
				c-1.06-0.27-2.1-0.62-3.1-1.03c-0.86-0.35-1.69-0.77-2.5-1.18l-0.56-0.28c-1.03-0.52-2.04-0.92-3.07-1.24
				c-0.23-0.07-0.46-0.14-0.69-0.21c-0.8-0.23-1.62-0.48-2.4-0.81c-1.81-0.76-3.33-2.12-4.27-3.82c-0.47-0.85-0.79-1.75-0.96-2.7
				c-0.06-0.35-0.1-0.7-0.14-1.05c-0.04-0.37-0.09-0.75-0.16-1.12c-0.01-0.08-0.03-0.15-0.04-0.23l-0.03-0.12l0.1-0.08
				c0.03-0.02,0.05-0.03,0.08-0.04l-0.01-0.06l0.03,0.05c0.05-0.01,0.09-0.01,0.14,0c0.08,0.02,0.15,0.08,0.19,0.16
				c0.02,0.05,0.04,0.09,0.06,0.13c0.97,1.91,3.46,2.32,4.85,2.4c0.56,0.03,1.14,0.03,1.69,0.04c0.68,0,1.39,0,2.09,0.06
				c1.16,0.1,2.24,0.38,3.2,0.85c2.08,1.01,3.67,2.76,4.69,3.99c0.66,0.8,1.28,1.65,1.88,2.46c0.62,0.85,1.27,1.73,1.96,2.55
				c0.44,0.53,0.86,0.99,1.28,1.41l0.41,0.21c0.99,0.52,1.82,0.99,2.54,1.47l-0.01-0.01c-0.27-0.46-0.55-0.92-0.84-1.37
				c-0.09-0.14-0.18-0.28-0.27-0.42c-0.25-0.38-0.5-0.76-0.75-1.13c-0.15-0.23-0.31-0.45-0.47-0.67c-0.6-0.69-1.33-1.41-2.27-2.27
				c-0.48-0.44-0.98-0.87-1.47-1.29c-1.19-1.03-2.41-2.1-3.5-3.27c-1.55-1.67-2.84-3.68-3.84-5.95c-0.9-2.04-1.57-4.28-2.07-6.86
				c-0.22-1.14-0.4-2.32-0.54-3.61c-0.07-0.6-0.12-1.19-0.17-1.79l-0.02-0.33c-0.03-0.46-0.06-0.94-0.21-1.37l-0.01-0.03
				c-0.02-0.06-0.04-0.12-0.07-0.17l-0.21-0.48l0.48,0.21c0.07,0.03,0.13,0.06,0.2,0.08l0.34,0.12c0.23,0.08,0.45,0.19,0.65,0.32
				c0.08,0.05,0.16,0.1,0.23,0.16l0.12,0.11c0.09,0.15,0.17,0.31,0.24,0.47c0.23,0.52,0.38,1.07,0.53,1.6
				c0.07,0.27,0.15,0.53,0.23,0.79c0.31,0.99,0.73,1.89,1.24,2.69c0.56,0.87,1.23,1.61,1.98,2.18c0.52,0.4,1.12,0.7,1.7,0.99
				c0.4,0.2,0.82,0.41,1.21,0.66c1.53,0.94,2.82,2.38,3.83,4.26c0.53,0.99,0.98,2.09,1.35,3.33c0.09-0.35,0.22-0.71,0.38-1.09
				c0.25-0.57,0.54-1.12,0.83-1.66c0.33-0.62,0.67-1.25,0.93-1.91c0.5-1.29,0.66-2.69,0.45-4.07c-0.02-0.11-0.03-0.22-0.05-0.32
				l-0.15-0.76l0.49,0.59c0.07,0.08,0.14,0.17,0.21,0.25c0.18,0.21,0.37,0.42,0.56,0.62c0.22,0.25,0.45,0.49,0.66,0.74
				c0.65,0.76,1.09,1.43,1.39,2.12c0.34,0.77,0.56,1.64,0.7,2.73c0.12,0.95,0.16,1.91,0.2,2.84c0.04,0.87,0.06,1.87-0.11,2.83
				c-0.15,0.84-0.46,1.63-0.96,2.42c-0.3,0.48-0.65,0.94-0.99,1.38c-0.16,0.22-0.33,0.43-0.49,0.65c-0.46,0.64-1.03,1.5-1.27,2.5
				c-0.23,0.98-0.19,2,0.11,2.96c0.19,0.32,0.4,0.68,0.6,1.04c0.05,0.09,0.1,0.18,0.15,0.28l0.07,0.12
				c0.79,1.47,1.49,2.92,2.08,4.36c0.65,1.58,1.22,3.21,1.7,4.85l0.06,0.21c0.25,0.88,0.49,1.8,0.7,2.73
				c0.06,0.25,0.11,0.51,0.17,0.77c0.16,0.76,0.3,1.54,0.42,2.32c0.59,3.75,0.72,7.55,0.4,11.29c-0.04,0.47-0.09,0.94-0.14,1.41
				c-0.01,0.08-0.05,0.15-0.12,0.2C259.72,181.12,259.67,181.14,259.61,181.14z M238.04,155.31c0.56,0.36,1.15,0.8,1.8,1.36
				c0.4,0.34,0.79,0.69,1.18,1.04c0.83,0.75,1.7,1.53,2.63,2.17c0.74,0.51,1.45,0.88,2.17,1.13c0.75,0.26,1.59,0.43,2.56,0.51
				c1.19,0.1,2.4,0.05,3.58,0.01c0.61-0.02,1.22-0.04,1.84-0.05c0.67,0,1.25,0.01,1.78,0.06c-0.89-0.79-1.86-1.44-2.91-1.95
				c-1.2-0.59-2.53-0.98-3.95-1.17c-0.38-0.05-0.77-0.09-1.15-0.13c-1.36-0.15-2.77-0.3-4.06-0.88c-0.14-0.07-0.2-0.23-0.14-0.37
				c0.06-0.14,0.23-0.21,0.37-0.14c1.21,0.55,2.57,0.69,3.88,0.83c0.25,0.03,0.51,0.05,0.76,0.08c1.57,0.19,2.93,0.54,4.15,1.1
				c0.82,0.37,1.61,0.82,2.34,1.35c-1.25-1.46-2.76-2.7-4.45-3.65c-1.43-0.81-2.91-1.35-4.4-1.63c-0.78-0.14-1.56-0.2-2.29-0.2
				c-0.86,0.01-1.74,0.14-2.52,0.25l-0.15,0.02C240.07,155.18,239.05,155.34,238.04,155.31z M252.56,149.7
				c0.1,0.16,0.2,0.31,0.3,0.47c-0.06-1.24,0.27-2.49,0.95-3.6c0.32-0.52,0.69-1.01,1.05-1.48c0.63-0.83,1.28-1.68,1.62-2.67
				c0.33-0.96,0.36-2,0.35-2.79c-0.01-0.91-0.06-1.86-0.14-2.82c-0.1-1.14-0.25-1.99-0.51-2.76c-0.26-0.79-0.67-1.52-1.24-2.23
				c-0.29-0.37-0.62-0.73-0.94-1.08c0.05,0.92-0.05,1.83-0.3,2.71c-0.28,0.99-0.76,1.9-1.23,2.77c-0.16,0.31-0.32,0.61-0.48,0.92
				c-0.36,0.72-0.58,1.28-0.71,1.83c-0.09,0.35-0.14,0.72-0.15,1.13c-0.01,0.25-0.01,0.51,0,0.79c0,0.1,0.01,0.19,0.02,0.29
				c0.06,0.72,0.16,1.46,0.26,2.17l0.03,0.21c0.12,0.8,0.24,1.6,0.38,2.39c0.2,1.14,0.42,2.3,0.66,3.44L252.56,149.7z
				 M228.76,137.53c0.11,0.92,0.27,1.89,0.67,2.82c0.74,1.72,2.1,3.19,3.73,4.03c0.94,0.48,1.97,0.79,2.97,1.08
				c0.93,0.27,2.01,0.61,3.04,1.08c0.5,0.23,0.99,0.48,1.47,0.73c0.51,0.26,1.04,0.53,1.57,0.77c0.99,0.45,2,0.83,3.02,1.13
				c1.34,0.4,2.73,0.67,4.11,0.82c-0.09-0.09-0.17-0.18-0.25-0.28c-0.92-1.03-1.75-2.15-2.55-3.24c-0.44-0.6-0.9-1.22-1.36-1.82
				c-1.1-1.41-2.61-3.16-4.53-4.24c-0.95-0.53-1.96-0.87-3.02-1c-0.84-0.11-1.71-0.11-2.56-0.11c-0.4,0-0.8,0-1.19-0.01
				C231.54,139.22,229.83,138.63,228.76,137.53z M237.4,121.7c0.01,0.04,0.01,0.08,0.02,0.13c0.06,0.4,0.09,0.81,0.12,1.2
				c0.01,0.2,0.03,0.39,0.04,0.58c0.12,1.26,0.27,2.48,0.45,3.61c0.43,2.62,1.03,4.9,1.85,6.99c0.92,2.34,2.13,4.4,3.59,6.11
				c1.19,1.4,2.6,2.63,3.97,3.81c0.33,0.29,0.67,0.58,1,0.87c0.54,0.48,1.25,1.12,1.93,1.8c0.32,0.33,0.61,0.64,0.89,0.95
				c0.14,0.16,0.28,0.33,0.42,0.5c-0.44-2.2-0.78-4.35-1.02-6.38c-0.06-0.48-0.12-1.12-0.09-1.76c-0.35-1.46-0.78-2.71-1.3-3.82
				c-0.92-1.94-2.11-3.43-3.55-4.44c-0.48-0.34-1.02-0.61-1.54-0.87c-0.45-0.23-0.91-0.46-1.34-0.74c-0.81-0.52-1.54-1.21-2.17-2.04
				c-0.59-0.78-1.08-1.67-1.46-2.66c-0.19-0.48-0.33-0.98-0.46-1.47c-0.15-0.52-0.3-1.07-0.5-1.57c-0.07-0.16-0.14-0.31-0.22-0.46
				c-0.03-0.02-0.06-0.04-0.09-0.07C237.77,121.88,237.6,121.78,237.4,121.7z"/>
		</g>
	</g>
	<g>
		<g>
			<path class="st0" d="M131.87,16.83v19.35h-0.6l-12.93-19.44h-0.06v18.24h3.33v0.75h-6.99v-0.75h2.92V16.83h-3.12v-0.75h7.5
				l9.16,13.77h0.06V16.83h-3.25v-0.75h6.97v0.75H131.87z"/>
			<path class="st0" d="M157.24,16.83h-3.21v-0.75h7.02v0.75h-3.09v11.88c0,1.72-0.13,2.99-0.39,3.81s-0.73,1.51-1.41,2.07
				s-1.5,0.96-2.45,1.22s-1.94,0.38-2.95,0.38c-2.15,0-3.72-0.34-4.72-1.01s-1.61-1.5-1.84-2.49s-0.34-2.31-0.34-3.97V16.83h-2.84
				v-0.75h9.39v0.75h-3.09v11.54c0,1.59,0.07,2.84,0.22,3.75s0.54,1.67,1.19,2.27s1.67,0.91,3.06,0.91c1.13,0,2.15-0.23,3.05-0.7
				s1.53-1.09,1.88-1.87s0.53-2.24,0.53-4.37V16.83z"/>
			<path class="st0" d="M173.61,16.83v8.42h1.77c0.62,0,1.15-0.06,1.59-0.18s0.83-0.45,1.17-0.99s0.54-1.38,0.59-2.52h0.76v8.32
				h-0.76c-0.08-1.58-0.38-2.62-0.92-3.13S176.48,26,175.38,26h-1.77v8.98h4c2.27,0,3.83-0.48,4.71-1.43s1.39-2.42,1.56-4.4h0.75
				l-0.19,6.58h-17.42v-0.75h3.12V16.83h-3.12v-0.75h16.7l0.34,5.24h-0.75c-0.25-1.59-0.78-2.74-1.57-3.44s-2.11-1.05-3.96-1.05
				H173.61z"/>
			<path class="st0" d="M203.14,15.86l0.09,5.1h-0.69c-0.98-3.06-2.7-4.58-5.17-4.58c-1.37,0-2.43,0.38-3.19,1.14
				s-1.13,1.54-1.13,2.35c0,0.75,0.31,1.39,0.94,1.92s1.78,0.94,3.45,1.22s2.94,0.64,3.82,1.05s1.61,1.11,2.21,2.07
				s0.9,2.08,0.9,3.33c0,1.92-0.63,3.53-1.88,4.8s-2.81,1.92-4.67,1.92c-1.51,0-3.02-0.56-4.53-1.68l-1.38,1.23h-0.51v-5.49h0.63
				c0.58,1.73,1.38,3.03,2.42,3.9s2.17,1.3,3.4,1.3c1.22,0,2.34-0.4,3.36-1.21s1.53-1.82,1.53-3.05c0-1.04-0.35-1.91-1.06-2.61
				s-1.86-1.2-3.44-1.46s-2.8-0.58-3.65-0.94s-1.58-0.98-2.18-1.86s-0.91-1.86-0.91-2.94c0-1.48,0.53-2.81,1.58-3.98
				s2.49-1.75,4.29-1.75c1.51,0,2.92,0.48,4.23,1.44c0.36-0.34,0.67-0.74,0.94-1.2H203.14z"/>
			<path class="st0" d="M210.52,16.08h16.74l0.51,6.68h-0.75c-0.46-2.24-1.07-3.78-1.82-4.64s-1.75-1.29-2.98-1.29h-1.6v18.15h3.52
				v0.75h-10.5v-0.75h3.52V16.83h-1.6c-1.23,0-2.22,0.43-2.98,1.29s-1.37,2.41-1.82,4.64H210L210.52,16.08z"/>
			<path class="st0" d="M236.95,34.98V16.83h-3.09v-0.75h10.77c1.41,0,2.56,0.12,3.46,0.37s1.68,0.75,2.34,1.52s0.98,1.65,0.98,2.64
				c0,1.24-0.48,2.25-1.44,3.02s-2.58,1.35-4.86,1.74v0.07c1.64,0.32,2.99,0.95,4.04,1.88s1.57,2.5,1.57,4.72
				c0,1.27,0.15,2.08,0.45,2.44s0.71,0.53,1.24,0.53c0.34,0,0.75-0.07,1.23-0.21v0.72c-0.85,0.29-1.67,0.44-2.46,0.44
				c-1.61,0-2.75-0.45-3.41-1.35s-0.99-1.78-0.97-2.64l0.06-2.49c0-0.87-0.28-1.73-0.83-2.57s-1.8-1.27-3.76-1.27h-1.83v9.33h3.09
				v0.75h-9.67v-0.75H236.95z M240.43,16.83v8.13h2.64c1.13,0,2-0.08,2.59-0.23s1.07-0.55,1.43-1.19s0.53-1.66,0.53-3.05
				c0-1.14-0.18-1.98-0.54-2.5s-0.8-0.85-1.31-0.97s-1.18-0.18-2.01-0.18H240.43z"/>
			<path class="st0" d="M270.54,29.6h-6.24l-2.01,5.38h3.63v0.75h-7.12v-0.75h2.71l7.16-19.35h0.45L276,34.98h2.64v0.75h-9.36v-0.75
				h3.18L270.54,29.6z M264.58,28.86h5.7l-2.77-7.87h-0.06L264.58,28.86z"/>
			<path class="st0" d="M297.63,34.98V16.83h-3.03v-0.75h10.15c1.11,0,2.05,0.06,2.81,0.17s1.49,0.4,2.2,0.87s1.21,1.05,1.52,1.74
				s0.46,1.34,0.46,1.96c0,2.33-1.79,3.86-5.38,4.58v0.07c4.04,0.65,6.06,2.33,6.06,5.04c0,0.66-0.18,1.36-0.54,2.1
				s-0.94,1.37-1.73,1.91s-1.6,0.87-2.42,1s-1.86,0.2-3.11,0.2H294.6v-0.75H297.63z M304.12,16.83h-3v8.25h2.7
				c1.83,0,2.99-0.36,3.5-1.07s0.76-1.84,0.76-3.37c0-1.2-0.17-2.08-0.5-2.62s-0.75-0.88-1.27-1S305.07,16.83,304.12,16.83z
				 M303.79,25.83h-2.67v9.16h2.75c1.03,0,1.84-0.08,2.45-0.23s1.13-0.57,1.56-1.25s0.64-1.75,0.64-3.2c0-1.55-0.33-2.69-0.97-3.4
				S305.65,25.83,303.79,25.83z"/>
			<path class="st0" d="M328.03,36.18c-2.54,0-4.69-1.06-6.47-3.19s-2.66-4.4-2.66-6.83c0-2.91,0.93-5.39,2.79-7.45
				s4.02-3.08,6.48-3.08c2.31,0,4.39,1.04,6.23,3.13s2.75,4.46,2.75,7.12c0,2.73-0.92,5.13-2.76,7.2S330.43,36.18,328.03,36.18z
				 M328.09,16.38c-1.07,0-2.04,0.25-2.89,0.74s-1.44,1.35-1.74,2.57s-0.46,3.35-0.46,6.39c0,2.1,0.09,3.77,0.26,5.02
				s0.62,2.29,1.34,3.11s1.84,1.23,3.38,1.23c0.94,0,1.88-0.25,2.82-0.75s1.56-1.48,1.85-2.94s0.43-3.7,0.43-6.73
				c0-2.74-0.18-4.64-0.53-5.68s-0.93-1.8-1.71-2.26S329.13,16.38,328.09,16.38z"/>
			<path class="st0" d="M346.36,34.98V16.83h-3.06v-0.75h9.27c2.05,0,3.81,0.29,5.27,0.87s2.68,1.72,3.65,3.41s1.46,3.53,1.46,5.52
				c0,2.1-0.54,3.97-1.61,5.62s-2.31,2.77-3.71,3.35s-3.11,0.87-5.12,0.87h-9.21v-0.75H346.36z M349.85,16.83v18.15h2.55
				c1.34,0,2.43-0.12,3.27-0.37s1.54-0.78,2.09-1.6s0.92-1.86,1.12-3.12s0.29-2.91,0.29-4.94c0-2.44-0.31-4.26-0.93-5.46
				s-1.38-1.95-2.28-2.23s-2.07-0.43-3.52-0.43H349.85z"/>
			<path class="st0" d="M378.12,29.6h-6.24l-2.01,5.38h3.63v0.75h-7.12v-0.75h2.71l7.16-19.35h0.45l6.87,19.35h2.64v0.75h-9.36
				v-0.75h3.18L378.12,29.6z M372.16,28.86h5.7l-2.77-7.87h-0.06L372.16,28.86z"/>
		</g>
	</g>
</g>
</svg>
