<?xml version="1.0" encoding="utf-8"?>
<!-- Generator: Adobe Illustrator 28.1.0, SVG Export Plug-In . SVG Version: 6.00 Build 0)  -->
<svg version="1.1" id="Layer_1" xmlns="http://www.w3.org/2000/svg" xmlns:xlink="http://www.w3.org/1999/xlink" x="0px" y="0px"
	 viewBox="0 0 500 500" style="enable-background:new 0 0 500 500;" xml:space="preserve">
<style type="text/css">
	.st0{fill:#FFFFFF;}
	.st1{fill:#FFFFFF;stroke:#FFFFFF;stroke-width:0.3943;stroke-miterlimit:10;}
</style>
<g>
	<g>
		<path class="st0" d="M-1967.51,248.16c-5.44-0.22-9.45-1.65-12.02-4.3c-2.58-2.65-3.86-6.22-3.86-10.72
			c0-3.77,0.87-8.19,2.61-13.27c0.65-1.89,1.69-4.37,3.1-7.45c1.41-3.08,3.03-6.54,4.84-10.39c1.81-3.84,3.7-7.8,5.66-11.86
			c1.96-4.06,3.79-8.01,5.49-11.86c1.7-3.84,3.16-7.31,4.35-10.39c1.2-3.08,1.94-5.56,2.23-7.45c0.07-0.36,0.11-0.67,0.11-0.92
			c0-0.25,0-0.53,0-0.82c0-1.67-0.47-2.88-1.41-3.64c-0.94-0.76-2.14-1.14-3.59-1.14c-2.32,0-5.15,0.8-8.49,2.39
			c-3.99,1.89-8.07,4.51-12.24,7.89c-4.17,3.37-8.25,7.45-12.24,12.24c-3.77,4.57-7.31,9.52-10.61,14.85
			c-3.3,5.33-6.35,10.72-9.14,16.16c-2.79,5.44-5.35,10.64-7.67,15.61c-2.32,4.97-4.39,9.3-6.2,13c-0.51,1.01-1.36,1.79-2.56,2.34
			s-2.34,0.82-3.43,0.82c-0.94,0-1.74-0.2-2.39-0.6c-0.65-0.4-0.87-1-0.65-1.8c1.09-1.6,2.57-4.12,4.46-7.56
			c1.89-3.44,3.93-7.49,6.15-12.13c2.21-4.64,4.44-9.59,6.69-14.85c2.25-5.26,4.3-10.52,6.15-15.77c1.85-5.26,3.28-10.21,4.3-14.85
			c0.72-3.19,1.09-6.16,1.09-8.92c0-5.08-1.18-8.68-3.54-10.82c-2.36-2.14-5.38-3.21-9.08-3.21c-3.34,0-7,0.73-10.99,2.18
			c-3.99,1.45-7.94,3.41-11.86,5.87c-6.31,3.85-11.53,8.32-15.67,13.44c-4.13,5.11-7.22,10.3-9.25,15.56
			c-2.03,5.26-3.05,10.14-3.05,14.63c0,4.72,1.14,8.63,3.43,11.75c2.28,3.12,5.67,4.68,10.17,4.68c3.84,0,7.38-0.8,10.61-2.39
			c3.23-1.59,6.02-3.66,8.38-6.2c2.36-2.54,4.19-5.18,5.49-7.94c1.31-2.76,1.96-5.29,1.96-7.62c0-2.1-0.58-3.82-1.74-5.17
			c-1.16-1.34-3.05-2.01-5.66-2.01c-0.29,0-0.58,0.02-0.87,0.05c-0.29,0.04-0.62,0.05-0.98,0.05h-0.33c-0.65,0-0.98-0.18-0.98-0.54
			c0-0.65,0.36-1.05,1.09-1.2c1.88-0.44,3.52-0.65,4.9-0.65c2.97,0,5.17,0.8,6.58,2.39c1.41,1.6,2.12,3.63,2.12,6.09
			c0,2.61-0.74,5.49-2.23,8.65c-1.49,3.15-3.59,6.13-6.31,8.92c-2.72,2.79-5.97,5.1-9.74,6.91c-3.77,1.81-7.94,2.72-12.51,2.72
			c-3.48,0-6.75-0.85-9.79-2.56c-3.05-1.7-5.49-4.15-7.34-7.34c-1.85-3.19-2.77-7.03-2.77-11.53c0-2.25,0.25-4.62,0.76-7.13
			c0.51-2.5,1.34-5.09,2.5-7.78c1.74-4.21,4.17-8.19,7.29-11.97c3.12-3.77,6.65-7.23,10.61-10.39c3.95-3.15,8-5.86,12.13-8.1
			c3.63-2.03,7.54-3.64,11.75-4.84c4.21-1.2,8.23-1.79,12.08-1.79c3.48,0,6.67,0.58,9.57,1.74c2.9,1.16,5.2,3.03,6.91,5.6
			c1.7,2.58,2.56,6,2.56,10.28c0,0.73-0.02,1.41-0.05,2.07c-0.04,0.65-0.13,1.45-0.27,2.39c-0.44,4.21-1.58,8.47-3.43,12.78
			c-1.85,4.32-3.72,8.5-5.6,12.57c-1.02,2.25-1.74,3.88-2.18,4.9c-0.44,1.02-0.65,1.6-0.65,1.74c0,0.15,0.2-0.11,0.6-0.76
			c0.4-0.65,0.87-1.45,1.41-2.39c0.54-0.94,1.03-1.74,1.47-2.39c1.67-2.61,3.7-5.58,6.09-8.92c2.39-3.33,5.15-6.89,8.27-10.66
			c4.06-4.93,8.36-9.46,12.89-13.6c4.53-4.13,8.9-7.18,13.11-9.14c1.89-0.87,3.84-1.56,5.87-2.07c2.03-0.51,3.95-0.76,5.77-0.76
			c2.9,0,5.44,0.74,7.62,2.23c2.18,1.49,3.23,4.19,3.15,8.1c0,3.26-0.78,6.89-2.34,10.88c-1.56,3.99-3.59,8.31-6.09,12.95
			c-2.5,4.64-5.21,9.61-8.1,14.9c-2.9,5.29-5.69,10.88-8.38,16.75c-1.96,4.21-3.39,8.1-4.3,11.69c-0.91,3.59-1.36,6.73-1.36,9.41
			c0,2.97,0.58,5.31,1.74,7.02c1.16,1.7,2.83,2.56,5,2.56c1.59,0,3.37-0.47,5.33-1.41c0.65-0.36,1.25-0.6,1.79-0.71
			s0.96-0.16,1.25-0.16c1.09,0,1.63,0.4,1.63,1.2c0,0.8-0.65,1.67-1.96,2.61C-1963.59,247.79-1965.33,248.23-1967.51,248.16z"/>
		<path class="st0" d="M-1933.24,232.49c-0.8,0.07-1.71-0.11-2.72-0.54c-1.02-0.44-1.9-1.23-2.67-2.39
			c-0.76-1.16-1.14-2.79-1.14-4.9c0-1.74,0.33-3.84,0.98-6.31c-0.87,1.38-2,3.06-3.37,5.06c-1.38,2-2.87,3.75-4.46,5.28
			c-1.38,1.31-2.68,2.25-3.92,2.83c-1.23,0.58-2.36,0.87-3.37,0.87c-1.89,0-3.41-0.85-4.57-2.56c-1.16-1.7-1.74-3.93-1.74-6.69
			c0-2.9,0.72-6.2,2.18-9.9c1.45-3.7,3.81-7.54,7.07-11.53c2.1-2.54,4.66-4.59,7.67-6.15c3.01-1.56,5.96-2.34,8.87-2.34
			c1.67,0,3.26,0.27,4.79,0.82s2.86,1.43,4.03,2.67c0.51,0.51,0.76,1.09,0.76,1.74c0,0.44-0.18,0.8-0.54,1.09
			c-0.36,0.29-0.83,0.36-1.41,0.22c-0.8-2.54-2.5-3.81-5.11-3.81c-1.23,0-2.65,0.4-4.24,1.2c-2.47,1.31-5.02,3.45-7.67,6.42
			c-2.65,2.98-4.95,6.06-6.91,9.25c-0.29,0.44-0.74,1.27-1.36,2.5c-0.62,1.23-1.22,2.61-1.79,4.13c-0.58,1.52-0.98,3.01-1.2,4.46
			c-0.07,0.44-0.11,0.74-0.11,0.92c0,0.18,0,0.45,0,0.82c0,2.39,0.91,3.59,2.72,3.59c2.18,0,4.64-1.59,7.4-4.79
			c1.88-2.32,3.59-4.75,5.11-7.29c1.52-2.54,3.08-5.26,4.68-8.16c1.09-1.96,2.1-3.59,3.05-4.9c0.94-1.31,2.28-1.96,4.03-1.96
			c0.8,0,1.59,0.11,2.39,0.33c0.8,0.22,1.63,0.26,2.5,0.11c-0.58,0.58-1.36,1.67-2.34,3.26c-0.98,1.6-2.01,3.41-3.1,5.44
			c-1.09,2.03-2.07,4.1-2.94,6.2c-0.87,2.1-1.49,3.92-1.85,5.44c-0.07,0.44-0.16,1.05-0.27,1.85c-0.11,0.8-0.16,1.38-0.16,1.74
			c0,2.03,0.58,3.05,1.74,3.05c1.16,0,2.41-0.69,3.75-2.07c1.34-1.38,2.67-3.08,3.97-5.11c1.31-2.03,2.5-4.08,3.59-6.15
			c1.09-2.07,1.96-3.75,2.61-5.06c0.29-0.72,0.72-1.09,1.31-1.09c0.36,0,0.54,0.26,0.54,0.76c0,0.22-0.11,0.62-0.33,1.2
			c-0.87,1.81-1.92,3.86-3.16,6.15c-1.23,2.28-2.58,4.5-4.02,6.64c-1.45,2.14-2.96,3.92-4.51,5.33
			C-1930.07,231.57-1931.65,232.35-1933.24,232.49z"/>
		<path class="st0" d="M-1928.89,233.04c3.05-6.24,6.22-12.78,9.52-19.64c3.3-6.85,6.69-13.76,10.17-20.72
			c3.48-6.96,6.93-13.6,10.33-19.91c1.23-2.18,2.37-3.88,3.43-5.11c1.05-1.23,2.45-1.85,4.19-1.85c0.65,0,1.41,0.11,2.28,0.33
			c0.87,0.22,1.7,0.25,2.5,0.11c-0.94,1.02-2.23,2.79-3.86,5.33c-1.63,2.54-3.45,5.59-5.44,9.14c-2,3.55-4.1,7.38-6.31,11.48
			c-2.21,4.1-4.39,8.23-6.53,12.4c-2.14,4.17-4.12,8.07-5.93,11.69c1.45-1.89,2.94-3.66,4.46-5.33c1.52-1.67,3.01-3.12,4.46-4.35
			c1.59-1.45,3.61-2.97,6.04-4.57c2.43-1.59,4.86-2.97,7.29-4.13c2.43-1.16,4.37-1.74,5.82-1.74c0.51,0,0.87,0.04,1.09,0.11
			c-1.6,2.9-2.99,5.48-4.19,7.72c-1.2,2.25-2.43,4.68-3.7,7.29c-1.27,2.61-2.38,5.1-3.32,7.45c-0.94,2.36-1.56,4.3-1.85,5.82
			c-0.22,1.16-0.33,2.14-0.33,2.94c0,1.16,0.22,1.94,0.65,2.34c0.44,0.4,0.91,0.6,1.41,0.6c1.23,0,2.57-0.76,4.03-2.28
			c1.45-1.52,2.86-3.39,4.24-5.6c1.38-2.21,2.63-4.37,3.75-6.47c1.12-2.1,1.98-3.73,2.56-4.9c0.44-0.8,0.87-1.2,1.31-1.2
			s0.65,0.29,0.65,0.87c0,0.29-0.11,0.73-0.33,1.31c-0.94,1.89-2.01,4.01-3.21,6.36c-1.2,2.36-2.54,4.61-4.03,6.74
			c-1.49,2.14-3.12,3.9-4.9,5.28c-1.78,1.38-3.68,2.07-5.71,2.07c-1.45,0-2.94-0.51-4.46-1.52c-1.52-1.01-2.28-2.86-2.28-5.55
			c0-0.8,0.07-1.65,0.22-2.56c0.14-0.91,0.4-1.94,0.76-3.1c0.44-1.45,1.16-3.06,2.18-4.84c1.01-1.78,2.32-4.01,3.92-6.69
			c0.72-1.23,1.09-2.21,1.09-2.94c0-0.87-0.44-1.31-1.31-1.31c-0.73,0-1.71,0.36-2.94,1.09c-1.23,0.73-2.79,2-4.68,3.81
			c-1.81,1.74-4.06,4.28-6.75,7.62c-2.68,3.34-5.55,8.02-8.59,14.03c-0.51,0.94-1.07,1.43-1.69,1.47c-0.62,0.04-1.43,0.09-2.45,0.16
			c-0.65,0.07-1.31,0.13-1.96,0.16C-1927.91,232.47-1928.45,232.67-1928.89,233.04z"/>
		<path class="st0" d="M-1878.63,232.17c-0.8,0-1.76-0.18-2.88-0.54c-1.12-0.36-2.1-1.03-2.94-2.01c-0.83-0.98-1.25-2.45-1.25-4.41
			c0-1.89,0.45-3.72,1.36-5.49c0.91-1.78,1.76-3.5,2.56-5.17c-0.22,0-0.45-0.07-0.71-0.22c-0.25-0.14-0.38-0.36-0.38-0.65
			c0-0.29,0.07-0.58,0.22-0.87c0.29-0.58,0.62-1.2,0.98-1.85c0.36-0.65,0.69-1.34,0.98-2.07c1.09-2.25,2.18-4.41,3.26-6.47
			s2.03-3.9,2.83-5.49c0.8-1.59,2.18-2.39,4.13-2.39h6.74c-1.23,0.94-2.34,1.98-3.32,3.1c-0.98,1.12-2.19,3.17-3.64,6.15
			c-1.02,2.03-1.9,3.83-2.67,5.39c-0.76,1.56-1.52,3.14-2.28,4.73c-0.76,1.6-1.4,2.94-1.9,4.03c-0.94,2.03-1.56,3.64-1.85,4.84
			c-0.29,1.2-0.44,2.3-0.44,3.32c0,2.39,0.8,3.59,2.39,3.59c1.74,0,3.84-1.41,6.31-4.24c2.03-2.39,4.02-5.26,5.98-8.59
			c1.96-3.33,3.82-6.78,5.6-10.33c1.78-3.55,3.35-6.75,4.73-9.57c0.8-1.59,2.21-2.39,4.24-2.39h5.98c-1.09,0.87-2,1.69-2.72,2.45
			c-0.73,0.76-1.43,1.78-2.12,3.05c-0.69,1.27-1.61,3.06-2.77,5.39c-0.94,1.96-1.94,4.04-2.99,6.26c-1.05,2.21-1.98,4.3-2.77,6.26
			c-0.8,1.96-1.31,3.55-1.52,4.79c-0.07,0.73-0.15,1.27-0.22,1.63c-0.07,0.36-0.11,0.76-0.11,1.2c0,1.38,0.23,2.36,0.71,2.94
			c0.47,0.58,1.03,0.87,1.69,0.87c1.74,0,3.5-0.98,5.28-2.94c1.78-1.96,3.48-4.35,5.11-7.18s3.03-5.51,4.19-8.05
			c0.44-0.8,0.83-1.2,1.2-1.2c0.44,0,0.65,0.25,0.65,0.76c0,0.36-0.15,0.8-0.44,1.31c-0.8,1.74-1.78,3.74-2.94,5.98
			c-1.16,2.25-2.47,4.46-3.92,6.64c-1.45,2.18-3.05,3.97-4.79,5.38c-1.74,1.41-3.63,2.12-5.66,2.12c-1.81,0-3.3-0.67-4.46-2.01
			c-1.16-1.34-1.74-3.25-1.74-5.71c0-1.96,0.36-4.06,1.09-6.31c-1.23,2.18-2.65,4.35-4.24,6.53c-1.6,2.18-3.3,3.97-5.11,5.38
			C-1875,231.46-1876.82,232.17-1878.63,232.17z"/>
		<path class="st0" d="M-1839.68,232.17c-2.68,0-4.57-0.78-5.66-2.34c-1.09-1.56-1.63-3.35-1.63-5.39c0-1.09,0.13-2.19,0.38-3.32
			c0.25-1.12,0.56-2.16,0.92-3.1l7.29-18.6c0.22-0.58,0.33-1.09,0.33-1.52c0-0.72-0.18-1.36-0.54-1.9
			c-0.36-0.54-0.62-0.92-0.76-1.14l5.98-0.22c1.09-0.07,1.87,0.05,2.34,0.38c0.47,0.33,0.71,0.71,0.71,1.14s-0.26,1.23-0.76,2.39
			l-9.03,21.21c-0.8,1.81-1.23,2.87-1.31,3.15c-0.22,1.09-0.36,1.78-0.44,2.07c-0.07,0.29-0.11,0.47-0.11,0.54c0,0.07,0,0.36,0,0.87
			c0,0.94,0.23,1.74,0.71,2.39c0.47,0.65,1.29,0.98,2.45,0.98c0.72,0,1.56-0.22,2.5-0.65c0.94-0.44,1.63-0.87,2.07-1.31
			c1.81-1.89,3.61-4.37,5.38-7.45c1.78-3.08,3.43-6.15,4.95-9.19c0.29-0.72,0.65-1.09,1.09-1.09c0.36,0,0.54,0.26,0.54,0.76
			c0,0.29-0.11,0.73-0.33,1.31c-0.73,1.52-1.63,3.41-2.72,5.66c-1.09,2.25-2.38,4.48-3.86,6.69c-1.49,2.21-3.1,4.04-4.84,5.49
			C-1835.77,231.44-1837.65,232.17-1839.68,232.17z M-1830.87,188c-1.09,0-1.98-0.38-2.67-1.14c-0.69-0.76-1.03-1.69-1.03-2.77
			c0-1.38,0.54-2.57,1.63-3.59c1.09-1.02,2.28-1.52,3.59-1.52c1.16,0,2.1,0.36,2.83,1.09c0.72,0.73,1.09,1.6,1.09,2.61
			c0,1.38-0.54,2.61-1.63,3.7S-1829.42,188-1830.87,188z"/>
	</g>
	<g>
		<g>
			<path class="st0" d="M-1786.42,360.36c-0.65,0-0.78-0.49-0.38-1.47c0.4-0.98,0.78-1.87,1.14-2.67c0.65-1.31,0.98-3.34,0.98-6.09
				c0-2.39-0.44-4.97-1.31-7.72c-0.87-2.76-2.58-5.26-5.11-7.51c-3.48-3.19-7.4-5.73-11.75-7.62c-4.35-1.88-8.9-3.41-13.65-4.57
				c-4.75-1.16-9.45-2.18-14.09-3.05c-2.83,3.92-5.86,7.44-9.08,10.55c-3.23,3.12-6.65,5.51-10.28,7.18
				c-2.03,0.94-3.99,1.65-5.87,2.12c-1.89,0.47-3.66,0.71-5.33,0.71c-4.06,0-7.38-1.07-9.95-3.21c-2.58-2.14-3.86-4.66-3.86-7.56
				c0-2.75,1.25-5.46,3.75-8.1c2.5-2.65,6.65-4.84,12.46-6.58c2.32-0.65,4.9-1.14,7.72-1.47s5.77-0.49,8.81-0.49
				c1.89,0,3.75,0.05,5.6,0.16c1.85,0.11,3.57,0.34,5.17,0.71c2.1-3.19,4.06-6.51,5.88-9.95c1.81-3.44,3.7-7.2,5.66-11.26
				c-5.73,0.15-10.7-0.71-14.9-2.56c-4.21-1.85-7.45-4.33-9.74-7.45c-2.28-3.12-3.43-6.45-3.43-10.01c0-2.9,0.83-5.75,2.5-8.54
				c1.67-2.79,4.3-5.33,7.89-7.62c3.59-2.28,8.18-4.08,13.76-5.38c0.36-0.14,0.71-0.22,1.03-0.22s0.63,0,0.92,0
				c1.09,0,1.63,0.22,1.63,0.65c0,0.73-1.16,1.23-3.48,1.52c-3.77,0.44-7.09,1.78-9.95,4.03c-2.87,2.25-5.08,4.93-6.64,8.05
				c-1.56,3.12-2.34,6.27-2.34,9.46c0,2.76,0.65,5.33,1.96,7.72c1.31,2.39,3.37,4.33,6.2,5.82c2.83,1.49,6.49,2.23,10.99,2.23
				c1.59,0,3.3-0.11,5.11-0.33c0.29-0.58,0.78-1.76,1.47-3.54c0.69-1.78,1.47-3.79,2.34-6.04c0.87-2.25,1.72-4.42,2.56-6.53
				c0.83-2.1,1.79-4.57,2.88-7.4c3.34-8.34,6.76-14.89,10.28-19.64c3.52-4.75,6.93-8.1,10.23-10.06c3.3-1.96,6.26-2.94,8.87-2.94
				c2.83,0,5.17,0.83,7.02,2.5c1.85,1.67,2.85,3.55,2.99,5.66c0.07,0.65,0.11,1.12,0.11,1.41c0,0.29,0,0.65,0,1.09
				c0,4.28-0.85,8.56-2.56,12.84c-1.7,4.28-4.06,8.34-7.07,12.18c-3.01,3.85-6.46,7.33-10.33,10.44c-3.88,3.12-8.01,5.73-12.4,7.83
				c-4.39,2.1-8.83,3.55-13.33,4.35c-1.09,2.18-2.05,4.12-2.88,5.82c-0.83,1.71-1.76,3.54-2.77,5.49c-1.02,1.96-2.36,4.46-4.02,7.51
				c-0.51,0.94-0.89,1.61-1.14,2.01c-0.25,0.4-0.64,1-1.14,1.79c3.63,0.87,7.58,2.09,11.86,3.64c4.28,1.56,8.5,3.41,12.67,5.55
				c4.17,2.14,7.89,4.48,11.15,7.02c4.06,3.12,6.94,6.64,8.65,10.55c1.7,3.92,2.56,7.36,2.56,10.33c0,2.1-0.33,3.7-0.98,4.79
				c-0.94,1.59-1.89,2.61-2.83,3.05C-1785.18,360.11-1785.91,360.36-1786.42,360.36z M-1862.68,337.08c1.59,0,3.32-0.22,5.17-0.65
				c1.85-0.44,3.79-1.12,5.82-2.07c6.09-2.97,11.71-8.12,16.86-15.45c-1.67-0.36-3.41-0.63-5.22-0.82
				c-1.81-0.18-3.66-0.27-5.55-0.27c-1.96,0-3.97,0.11-6.04,0.33c-2.07,0.22-4.08,0.62-6.04,1.2c-4.86,1.31-8.58,2.97-11.15,5
				c-2.58,2.03-3.86,4.1-3.86,6.2c0,1.81,0.91,3.35,2.72,4.62C-1868.15,336.45-1865.72,337.08-1862.68,337.08z M-1813.83,289.11
				c4.93-1.09,9.75-3.06,14.47-5.93c4.71-2.86,8.96-6.34,12.73-10.44c3.77-4.1,6.78-8.56,9.03-13.38c2.25-4.82,3.37-9.74,3.37-14.74
				c0-1.23-0.33-2.25-0.98-3.05c-0.65-0.8-1.6-1.2-2.83-1.2c-1.67,0-3.81,0.92-6.42,2.77s-5.59,4.93-8.92,9.25
				c-3.34,4.32-6.93,10.25-10.77,17.79c-1.96,3.77-3.68,7.09-5.17,9.95C-1810.8,283-1812.31,285.99-1813.83,289.11z"/>
			<path class="st0" d="M-1786.96,327.51c-0.8,0-1.76-0.18-2.88-0.54c-1.12-0.36-2.1-1.03-2.94-2.01c-0.83-0.98-1.25-2.45-1.25-4.41
				c0-1.88,0.45-3.72,1.36-5.49c0.91-1.78,1.76-3.5,2.56-5.17c-0.22,0-0.45-0.07-0.71-0.22c-0.25-0.14-0.38-0.36-0.38-0.65
				c0-0.29,0.07-0.58,0.22-0.87c0.29-0.58,0.62-1.2,0.98-1.85c0.36-0.65,0.69-1.34,0.98-2.07c1.09-2.25,2.18-4.41,3.26-6.47
				s2.03-3.9,2.83-5.49c0.8-1.59,2.18-2.39,4.13-2.39h6.74c-1.23,0.94-2.34,1.98-3.32,3.1c-0.98,1.13-2.19,3.17-3.64,6.15
				c-1.02,2.03-1.9,3.83-2.67,5.38c-0.76,1.56-1.52,3.14-2.28,4.73c-0.76,1.6-1.4,2.94-1.9,4.03c-0.94,2.03-1.56,3.64-1.85,4.84
				c-0.29,1.2-0.44,2.3-0.44,3.32c0,2.39,0.8,3.59,2.39,3.59c1.74,0,3.84-1.41,6.31-4.24c2.03-2.39,4.02-5.26,5.98-8.59
				c1.96-3.34,3.82-6.78,5.6-10.33c1.78-3.55,3.35-6.75,4.73-9.57c0.8-1.59,2.21-2.39,4.24-2.39h5.98c-1.09,0.87-2,1.69-2.72,2.45
				c-0.73,0.76-1.43,1.78-2.12,3.05c-0.69,1.27-1.61,3.07-2.77,5.39c-0.94,1.96-1.94,4.04-2.99,6.25c-1.05,2.21-1.98,4.3-2.77,6.26
				c-0.8,1.96-1.31,3.55-1.52,4.79c-0.07,0.73-0.15,1.27-0.22,1.63c-0.07,0.36-0.11,0.76-0.11,1.2c0,1.38,0.23,2.36,0.71,2.94
				c0.47,0.58,1.03,0.87,1.69,0.87c1.74,0,3.5-0.98,5.28-2.94c1.78-1.96,3.48-4.35,5.11-7.18c1.63-2.83,3.03-5.51,4.19-8.05
				c0.44-0.8,0.83-1.2,1.2-1.2c0.44,0,0.65,0.25,0.65,0.76c0,0.36-0.15,0.8-0.44,1.31c-0.8,1.74-1.78,3.74-2.94,5.98
				c-1.16,2.25-2.47,4.46-3.92,6.64c-1.45,2.18-3.05,3.97-4.79,5.39c-1.74,1.41-3.63,2.12-5.66,2.12c-1.81,0-3.3-0.67-4.46-2.01
				c-1.16-1.34-1.74-3.25-1.74-5.71c0-1.96,0.36-4.06,1.09-6.31c-1.23,2.18-2.65,4.35-4.24,6.53c-1.6,2.18-3.3,3.97-5.11,5.39
				C-1783.33,326.8-1785.15,327.51-1786.96,327.51z"/>
			<path class="st0" d="M-1748.01,327.51c-2.68,0-4.57-0.78-5.66-2.34c-1.09-1.56-1.63-3.35-1.63-5.38c0-1.09,0.13-2.19,0.38-3.32
				c0.25-1.12,0.56-2.16,0.92-3.1l7.29-18.6c0.22-0.58,0.33-1.09,0.33-1.52c0-0.72-0.18-1.36-0.54-1.9
				c-0.36-0.54-0.62-0.92-0.76-1.14l5.98-0.22c1.09-0.07,1.87,0.05,2.34,0.38c0.47,0.33,0.71,0.71,0.71,1.14
				c0,0.44-0.26,1.23-0.76,2.39l-9.03,21.21c-0.8,1.81-1.23,2.87-1.31,3.16c-0.22,1.09-0.36,1.78-0.44,2.07
				c-0.07,0.29-0.11,0.47-0.11,0.54s0,0.36,0,0.87c0,0.94,0.23,1.74,0.71,2.39c0.47,0.65,1.29,0.98,2.45,0.98
				c0.72,0,1.56-0.22,2.5-0.65c0.94-0.44,1.63-0.87,2.07-1.31c1.81-1.88,3.61-4.37,5.38-7.45c1.78-3.08,3.43-6.15,4.95-9.19
				c0.29-0.72,0.65-1.09,1.09-1.09c0.36,0,0.54,0.25,0.54,0.76c0,0.29-0.11,0.73-0.33,1.3c-0.73,1.52-1.63,3.41-2.72,5.66
				c-1.09,2.25-2.38,4.48-3.86,6.69c-1.49,2.21-3.1,4.04-4.84,5.49C-1744.1,326.79-1745.98,327.51-1748.01,327.51z M-1739.2,283.34
				c-1.09,0-1.98-0.38-2.67-1.14c-0.69-0.76-1.03-1.69-1.03-2.77c0-1.38,0.54-2.57,1.63-3.59c1.09-1.01,2.28-1.52,3.59-1.52
				c1.16,0,2.1,0.36,2.83,1.09c0.72,0.73,1.09,1.6,1.09,2.61c0,1.38-0.54,2.61-1.63,3.7S-1737.75,283.34-1739.2,283.34z"/>
			<path class="st0" d="M-1729.74,327.95c-3.55,0-6.08-0.92-7.56-2.77c-1.49-1.85-2.23-3.79-2.23-5.82c0-1.67,0.42-3.19,1.25-4.57
				c0.83-1.38,1.83-2.1,2.99-2.18c1.45-2.83,3.03-5.91,4.73-9.25c1.7-3.33,3.28-6.56,4.73-9.68c1.01-2.1,2.3-4.13,3.86-6.09
				c1.56-1.96,3.28-3.08,5.17-3.37h1.09c0.58,0,1.1,0.04,1.58,0.11c0.47,0.07,0.96,0.22,1.47,0.44c0.8,0.36,1.2,0.91,1.2,1.63
				c0,0.43-0.25,0.65-0.76,0.65c-0.22,0-0.51-0.11-0.87-0.33c-0.87-0.36-1.63-0.54-2.28-0.54c-0.44,0-0.83,0.11-1.2,0.33
				c-1.38,0.73-2.34,1.74-2.88,3.05s-0.82,2.68-0.82,4.13c0,1.16,0.13,2.34,0.38,3.54c0.25,1.2,0.56,2.27,0.92,3.21
				c0.8,2.03,1.65,4.03,2.56,5.98c0.91,1.96,1.36,4.06,1.36,6.31c0,2.18-0.73,4.48-2.18,6.91c-1.45,2.43-3.3,4.37-5.55,5.82
				l0.76,0.11c0.36,0.07,0.62,0.11,0.76,0.11c0.14,0,0.25,0,0.33,0c1.67,0,3.25-0.49,4.73-1.47c1.49-0.98,2.81-2.19,3.97-3.64
				c1.16-1.45,2.48-3.48,3.97-6.09c1.49-2.61,2.92-5.37,4.3-8.27c0.22-0.36,0.47-0.54,0.76-0.54c0.36,0,0.63,0.13,0.82,0.38
				c0.18,0.26,0.2,0.56,0.05,0.92c-0.94,2.03-2.01,4.23-3.21,6.58c-1.2,2.36-2.56,4.61-4.08,6.75c-1.52,2.14-3.28,3.88-5.28,5.22
				c-2,1.34-4.23,2.01-6.69,2.01c-0.58,0-1.2-0.04-1.85-0.11s-1.31-0.22-1.96-0.44c-0.73,0.29-1.47,0.53-2.23,0.71
				C-1728.38,327.85-1729.09,327.95-1729.74,327.95z M-1730.61,326.2c0.44,0,0.83-0.05,1.2-0.16c0.36-0.11,0.69-0.2,0.98-0.27
				c-1.09-0.8-2.05-1.87-2.88-3.21c-0.83-1.34-1.32-3.06-1.47-5.17c-1.31,1.38-1.96,2.87-1.96,4.46c0,1.16,0.36,2.18,1.09,3.05
				C-1732.93,325.77-1731.91,326.2-1730.61,326.2z M-1726.48,324.68c1.23-1.02,2.34-2.5,3.32-4.46c0.98-1.96,1.47-4.53,1.47-7.72
				c0-2.83-0.29-5.84-0.87-9.03c-0.58-3.19-0.87-6.02-0.87-8.49c0-0.51,0.02-0.96,0.05-1.36c0.04-0.4,0.09-0.78,0.16-1.14
				c-0.94,1.96-2.03,4.23-3.26,6.8c-1.23,2.58-2.47,5.06-3.7,7.45c-1.23,2.39-2.28,4.42-3.15,6.09c0.8,0.07,1.38,0.34,1.74,0.82
				c0.36,0.47,0.51,1.4,0.44,2.77c-0.07,1.81,0.34,3.5,1.25,5.06C-1729,323.03-1727.85,324.1-1726.48,324.68z"/>
		</g>
	</g>
	<g>
		<path class="st0" d="M-1868.99,258.32l5.99,9.52c0.07,0.22,0.34,0.67,0.82,1.33c2.15-2.92,3.44-6.9,3.89-11.95h-4.99v-1.33h10.13
			v1.33h-3.94c-0.34,5.46-1.79,9.79-4.35,13l4.14,5.75h3.81v1.3h-10.26c-0.75-1.07-1.43-1.98-2.05-2.71
			c-2.95,2.34-6.23,3.5-9.85,3.5c-3.6,0-6.39-0.94-8.38-2.83c-1.99-1.88-2.98-4.16-2.98-6.82c0-2.51,0.89-4.76,2.66-6.75
			c1.77-2,4.31-3.5,7.6-4.5c-1.96-3.34-2.94-5.89-2.94-7.65c0-1.84,0.81-3.46,2.42-4.85c1.61-1.39,3.62-2.08,6.02-2.08
			c2.35,0,4.38,0.56,6.09,1.69c1.71,1.13,2.56,2.59,2.56,4.4c0,1.48-0.57,2.79-1.7,3.91c-1.13,1.13-3.17,2.23-6.1,3.3
			L-1868.99,258.32z M-1876.1,258.27c-3.63,1.36-5.45,3.27-5.45,5.7c0,2.27,0.92,4.86,2.75,7.78c1.83,2.92,3.95,4.37,6.36,4.37
			c1.86,0,3.87-0.87,6.04-2.61C-1870.21,268.06-1873.44,262.98-1876.1,258.27z M-1871.03,254.84c1.65-0.67,2.73-1.46,3.24-2.38
			c0.5-0.92,0.75-2.17,0.75-3.73c0-3.22-1.36-4.83-4.09-4.83c-1.04,0-1.9,0.28-2.58,0.83c-0.68,0.55-1.02,1.26-1.02,2.11
			C-1874.74,248.35-1873.51,251.02-1871.03,254.84z"/>
	</g>
	<g>
		<g>
			<path class="st0" d="M-1996.2,93.91v23.25h-0.72l-15.54-23.36h-0.07v21.91h4v0.9h-8.4v-0.9h3.5V93.91h-3.75v-0.9h9.01l11,16.55
				h0.07V93.91h-3.91v-0.9h8.38v0.9H-1996.2z"/>
			<path class="st0" d="M-1969.67,93.91h-3.85v-0.9h8.43v0.9h-3.71v14.27c0,2.07-0.16,3.59-0.47,4.58c-0.31,0.99-0.88,1.81-1.7,2.48
				c-0.82,0.67-1.8,1.16-2.95,1.46c-1.14,0.31-2.33,0.46-3.55,0.46c-2.58,0-4.47-0.4-5.67-1.21c-1.2-0.81-1.93-1.81-2.21-2.99
				c-0.28-1.19-0.41-2.77-0.41-4.77V93.91h-3.41v-0.9h11.28v0.9h-3.71v13.87c0,1.91,0.09,3.41,0.26,4.51c0.18,1.09,0.65,2,1.43,2.73
				s2,1.09,3.68,1.09c1.36,0,2.58-0.28,3.66-0.84c1.08-0.56,1.83-1.31,2.26-2.24c0.43-0.94,0.64-2.69,0.64-5.25V93.91z"/>
			<path class="st0" d="M-1953.97,93.91v10.12h2.13c0.75,0,1.39-0.07,1.91-0.22c0.52-0.15,0.99-0.54,1.41-1.19s0.65-1.65,0.71-3.03
				h0.92v10h-0.92c-0.09-1.9-0.46-3.15-1.1-3.76c-0.64-0.6-1.62-0.91-2.93-0.91h-2.13v10.79h4.81c2.72,0,4.61-0.57,5.66-1.72
				c1.05-1.14,1.67-2.91,1.87-5.29h0.9l-0.23,7.9h-20.93v-0.9h3.75V93.91h-3.75v-0.9h20.07l0.41,6.3h-0.9
				c-0.31-1.91-0.93-3.29-1.88-4.14s-2.53-1.27-4.75-1.27H-1953.97z"/>
			<path class="st0" d="M-1922.45,92.75l0.11,6.13h-0.83c-1.17-3.67-3.25-5.51-6.21-5.51c-1.64,0-2.92,0.46-3.83,1.36
				c-0.91,0.91-1.36,1.85-1.36,2.83c0,0.9,0.38,1.67,1.14,2.31s2.14,1.12,4.15,1.47c2.01,0.35,3.53,0.77,4.58,1.27
				c1.05,0.5,1.94,1.33,2.66,2.49c0.72,1.16,1.08,2.49,1.08,4c0,2.31-0.75,4.24-2.26,5.77c-1.51,1.54-3.38,2.31-5.61,2.31
				c-1.82,0-3.63-0.67-5.44-2.02l-1.65,1.48h-0.62v-6.6h0.76c0.69,2.08,1.66,3.64,2.9,4.68c1.24,1.04,2.6,1.57,4.08,1.57
				c1.47,0,2.81-0.48,4.04-1.45s1.84-2.19,1.84-3.67c0-1.24-0.43-2.29-1.28-3.14c-0.85-0.85-2.23-1.44-4.14-1.76
				c-1.91-0.32-3.37-0.7-4.39-1.13c-1.02-0.43-1.9-1.17-2.62-2.24c-0.73-1.06-1.09-2.24-1.09-3.53c0-1.78,0.63-3.38,1.9-4.78
				c1.27-1.4,2.99-2.1,5.16-2.1c1.82,0,3.51,0.57,5.09,1.72c0.43-0.41,0.81-0.89,1.13-1.44H-1922.45z"/>
			<path class="st0" d="M-1917.56,93.02h20.12l0.62,8.03h-0.9c-0.55-2.69-1.28-4.55-2.19-5.58c-0.91-1.03-2.1-1.55-3.58-1.55h-1.92
				v21.81h4.22v0.9h-12.62v-0.9h4.22V93.91h-1.92c-1.48,0-2.67,0.52-3.58,1.55c-0.91,1.03-1.64,2.89-2.19,5.58h-0.9L-1917.56,93.02z
				"/>
			<path class="st0" d="M-1889.76,115.72V93.91h-3.71v-0.9h12.94c1.69,0,3.08,0.15,4.16,0.44c1.08,0.29,2.02,0.9,2.81,1.82
				c0.79,0.92,1.18,1.98,1.18,3.18c0,1.49-0.57,2.7-1.72,3.63c-1.15,0.93-3.1,1.63-5.84,2.09v0.09c1.97,0.39,3.59,1.14,4.85,2.25
				c1.26,1.12,1.89,3,1.89,5.67c0,1.53,0.18,2.5,0.54,2.93c0.36,0.43,0.85,0.64,1.49,0.64c0.41,0,0.9-0.08,1.48-0.25v0.86
				c-1.02,0.35-2.01,0.53-2.96,0.53c-1.94,0-3.3-0.54-4.1-1.62c-0.8-1.08-1.19-2.14-1.16-3.17l0.07-2.99c0-1.04-0.33-2.07-0.99-3.09
				c-0.66-1.02-2.17-1.52-4.52-1.52h-2.2v11.21h3.71v0.9h-11.62v-0.9H-1889.76z M-1885.57,93.91v9.77h3.17
				c1.36,0,2.4-0.09,3.12-0.27c0.72-0.18,1.29-0.66,1.72-1.43s0.64-1.99,0.64-3.67c0-1.37-0.22-2.38-0.65-3.01
				c-0.43-0.63-0.96-1.02-1.58-1.17c-0.62-0.15-1.42-0.22-2.42-0.22H-1885.57z"/>
			<path class="st0" d="M-1853.36,109.26h-7.5l-2.41,6.46h4.37v0.9h-8.55v-0.9h3.26l8.61-23.25h0.55l8.26,23.25h3.17v0.9h-11.25
				v-0.9h3.82L-1853.36,109.26z M-1860.53,108.36h6.85l-3.33-9.45h-0.07L-1860.53,108.36z"/>
			<path class="st0" d="M-1828.74,115.72V93.91h-3.64v-0.9h12.2c1.34,0,2.46,0.07,3.38,0.2c0.92,0.13,1.79,0.48,2.64,1.05
				c0.84,0.56,1.45,1.26,1.82,2.09c0.37,0.83,0.55,1.61,0.55,2.35c0,2.8-2.15,4.64-6.46,5.51v0.09c4.86,0.79,7.29,2.8,7.29,6.06
				c0,0.8-0.22,1.64-0.65,2.53c-0.43,0.89-1.13,1.65-2.08,2.3c-0.95,0.65-1.92,1.05-2.91,1.21c-0.99,0.16-2.24,0.24-3.74,0.24
				h-12.04v-0.9H-1828.74z M-1820.94,93.91h-3.61v9.91h3.24c2.19,0,3.6-0.43,4.21-1.29c0.61-0.86,0.92-2.21,0.92-4.05
				c0-1.44-0.2-2.49-0.6-3.15c-0.4-0.66-0.91-1.06-1.52-1.21C-1818.92,93.99-1819.8,93.91-1820.94,93.91z M-1821.34,104.72h-3.2v11
				h3.31c1.23,0,2.21-0.09,2.95-0.28s1.36-0.69,1.88-1.5c0.52-0.82,0.77-2.1,0.77-3.85c0-1.87-0.39-3.23-1.17-4.08
				C-1817.59,105.15-1819.1,104.72-1821.34,104.72z"/>
			<path class="st0" d="M-1796.17,117.17c-3.05,0-5.64-1.28-7.77-3.84s-3.19-5.29-3.19-8.2c0-3.5,1.12-6.48,3.35-8.95
				s4.83-3.71,7.79-3.71c2.78,0,5.27,1.26,7.48,3.77s3.31,5.36,3.31,8.55c0,3.29-1.11,6.17-3.32,8.65
				S-1793.29,117.17-1796.17,117.17z M-1796.1,93.37c-1.29,0-2.45,0.3-3.48,0.89c-1.03,0.59-1.73,1.62-2.09,3.09
				s-0.55,4.02-0.55,7.67c0,2.52,0.11,4.54,0.32,6.04c0.21,1.5,0.75,2.75,1.61,3.73c0.86,0.99,2.21,1.48,4.06,1.48
				c1.13,0,2.26-0.3,3.39-0.9c1.13-0.6,1.87-1.77,2.22-3.53s0.52-4.45,0.52-8.09c0-3.3-0.21-5.57-0.64-6.83
				c-0.43-1.26-1.12-2.16-2.06-2.72C-1793.77,93.65-1794.86,93.37-1796.1,93.37z"/>
			<path class="st0" d="M-1778.11,115.72V93.91h-3.68v-0.9h11.14c2.46,0,4.57,0.35,6.33,1.05s3.22,2.07,4.39,4.1
				c1.17,2.04,1.76,4.25,1.76,6.63c0,2.52-0.65,4.78-1.94,6.76c-1.29,1.98-2.78,3.32-4.46,4.02c-1.68,0.7-3.73,1.05-6.15,1.05
				h-11.07v-0.9H-1778.11z M-1773.93,93.91v21.81h3.06c1.61,0,2.92-0.15,3.93-0.44c1.02-0.29,1.85-0.93,2.52-1.92
				s1.11-2.24,1.35-3.75c0.23-1.51,0.35-3.49,0.35-5.93c0-2.93-0.37-5.12-1.12-6.57c-0.75-1.44-1.66-2.34-2.74-2.68
				s-2.49-0.52-4.22-0.52H-1773.93z"/>
			<path class="st0" d="M-1743.91,109.26h-7.5l-2.41,6.46h4.37v0.9h-8.55v-0.9h3.26l8.61-23.25h0.55l8.26,23.25h3.17v0.9h-11.25
				v-0.9h3.82L-1743.91,109.26z M-1751.08,108.36h6.85l-3.33-9.45h-0.07L-1751.08,108.36z"/>
		</g>
	</g>
</g>
<g>
	<g>
		<path class="st0" d="M-1491.67,340.5v22.59h-0.7l-15.1-22.69h-0.07v21.29h3.88v0.87h-8.16v-0.87h3.4V340.5h-3.64v-0.87h8.76
			l10.69,16.08h0.07v-15.2h-3.8v-0.87h8.14v0.87H-1491.67z"/>
		<path class="st0" d="M-1465.02,355.41h-7.29l-2.34,6.28h4.24v0.87h-8.31v-0.87h3.16l8.36-22.59h0.53l8.02,22.59h3.08v0.87h-10.93
			v-0.87h3.71L-1465.02,355.41z M-1471.98,354.54h6.65l-3.23-9.18h-0.07L-1471.98,354.54z"/>
		<path class="st0" d="M-1440.93,361.68V340.5h-3.61v-0.87h11.32v0.87h-3.64v9.8h9.9v-9.8h-3.57v-0.87h11.25v0.87h-3.61v21.19h3.61
			v0.87h-11.25v-0.87h3.57v-10.52h-9.9v10.52h3.64v0.87h-11.32v-0.87H-1440.93z"/>
		<path class="st0" d="M-1387.96,340.5h-3.75v-0.87h8.19v0.87h-3.61v13.87c0,2.01-0.15,3.49-0.45,4.45
			c-0.3,0.96-0.85,1.76-1.65,2.41s-1.75,1.12-2.86,1.42c-1.11,0.3-2.26,0.44-3.45,0.44c-2.51,0-4.34-0.39-5.51-1.18
			c-1.16-0.79-1.88-1.76-2.15-2.91c-0.27-1.15-0.4-2.7-0.4-4.63V340.5h-3.32v-0.87h10.96v0.87h-3.61v13.48
			c0,1.86,0.09,3.32,0.26,4.38s0.63,1.94,1.39,2.65c0.75,0.71,1.94,1.06,3.57,1.06c1.32,0,2.51-0.27,3.56-0.81
			c1.05-0.54,1.78-1.27,2.2-2.18c0.42-0.91,0.62-2.61,0.62-5.1V340.5z"/>
		<path class="st0" d="M-1368.12,361.68V340.5h-3.75v-0.87h11.6v0.87h-3.78v21.19h3.78v0.87h-11.6v-0.87H-1368.12z"/>
	</g>
</g>
<g>
	<g>
		<path class="st0" d="M-1226.67,340.5v21.19h5.15c0.99,0,1.77-0.07,2.34-0.22c0.57-0.15,1.13-0.51,1.68-1.08s0.98-1.25,1.28-2.04
			c0.3-0.79,0.62-1.88,0.97-3.28h0.8l-0.63,7.49h-19.27v-0.87h3.61V340.5h-3.61v-0.87h11.49v0.87H-1226.67z"/>
		<path class="st0" d="M-1184.71,340.5h-3.75v-0.87h8.19v0.87h-3.61v13.87c0,2.01-0.15,3.49-0.45,4.45
			c-0.3,0.96-0.85,1.76-1.65,2.41s-1.75,1.12-2.86,1.42c-1.11,0.3-2.26,0.44-3.45,0.44c-2.51,0-4.34-0.39-5.51-1.18
			c-1.16-0.79-1.88-1.76-2.15-2.91c-0.27-1.15-0.4-2.7-0.4-4.63V340.5h-3.32v-0.87h10.96v0.87h-3.61v13.48
			c0,1.86,0.09,3.32,0.26,4.38s0.63,1.94,1.39,2.65c0.75,0.71,1.94,1.06,3.57,1.06c1.32,0,2.51-0.27,3.56-0.81
			c1.05-0.54,1.78-1.27,2.2-2.18c0.42-0.91,0.62-2.61,0.62-5.1V340.5z"/>
		<path class="st0" d="M-1164.87,361.68V340.5h-3.75v-0.87h11.6v0.87h-3.78v21.19h3.78v0.87h-11.6v-0.87H-1164.87z"/>
		<path class="st0" d="M-1130.82,339.37l0.1,5.95h-0.8c-1.14-3.57-3.15-5.35-6.04-5.35c-1.6,0-2.84,0.44-3.72,1.33
			c-0.88,0.88-1.33,1.8-1.33,2.75c0,0.88,0.37,1.62,1.1,2.24c0.74,0.62,2.08,1.09,4.03,1.43c1.95,0.34,3.43,0.75,4.46,1.23
			c1.02,0.49,1.88,1.29,2.58,2.42s1.05,2.42,1.05,3.88c0,2.25-0.73,4.12-2.2,5.61c-1.46,1.49-3.28,2.24-5.45,2.24
			c-1.77,0-3.53-0.66-5.29-1.97l-1.61,1.44h-0.6v-6.41h0.74c0.67,2.02,1.61,3.53,2.82,4.55c1.21,1.01,2.53,1.52,3.97,1.52
			c1.42,0,2.73-0.47,3.92-1.41s1.79-2.13,1.79-3.57c0-1.21-0.41-2.23-1.24-3.05c-0.83-0.83-2.17-1.4-4.02-1.71
			c-1.85-0.31-3.28-0.68-4.27-1.09c-0.99-0.42-1.84-1.14-2.55-2.17c-0.71-1.03-1.06-2.17-1.06-3.43c0-1.73,0.62-3.28,1.85-4.64
			c1.23-1.36,2.9-2.04,5.01-2.04c1.77,0,3.41,0.56,4.94,1.68c0.42-0.4,0.79-0.87,1.09-1.4H-1130.82z"/>
	</g>
</g>
<g>
	<g>
		<path class="st0" d="M-1309.09,349.88l4,6.36c0.04,0.15,0.23,0.44,0.55,0.89c1.44-1.95,2.3-4.61,2.6-7.99h-3.33v-0.89h6.77v0.89
			h-2.63c-0.23,3.65-1.2,6.54-2.91,8.69l2.77,3.85h2.55v0.87h-6.86c-0.5-0.72-0.96-1.32-1.37-1.81c-1.97,1.56-4.17,2.34-6.58,2.34
			c-2.41,0-4.27-0.63-5.6-1.89s-1.99-2.78-1.99-4.56c0-1.68,0.59-3.18,1.78-4.52s2.88-2.34,5.08-3.01
			c-1.31-2.23-1.97-3.94-1.97-5.11c0-1.23,0.54-2.31,1.62-3.24c1.08-0.93,2.42-1.39,4.03-1.39c1.57,0,2.93,0.38,4.07,1.13
			c1.14,0.75,1.71,1.73,1.71,2.94c0,0.99-0.38,1.86-1.14,2.62c-0.76,0.75-2.12,1.49-4.08,2.21L-1309.09,349.88z M-1313.85,349.85
			c-2.43,0.91-3.64,2.18-3.64,3.81c0,1.52,0.61,3.25,1.84,5.2c1.23,1.95,2.64,2.92,4.25,2.92c1.24,0,2.59-0.58,4.04-1.74
			C-1309.91,356.39-1312.07,353-1313.85,349.85z M-1310.46,347.56c1.11-0.44,1.83-0.97,2.16-1.59c0.34-0.62,0.51-1.45,0.51-2.5
			c0-2.16-0.91-3.23-2.74-3.23c-0.7,0-1.27,0.19-1.73,0.56c-0.46,0.37-0.68,0.84-0.68,1.41
			C-1312.94,343.22-1312.12,345-1310.46,347.56z"/>
	</g>
</g>
<g>
	<g>
		<path class="st0" d="M-1393.85,278.65c-5.29-0.21-9.18-1.6-11.68-4.18c-2.5-2.57-3.75-6.04-3.75-10.41c0-3.66,0.85-7.96,2.54-12.9
			c0.63-1.83,1.64-4.25,3.01-7.24c1.37-2.99,2.94-6.36,4.7-10.09c1.76-3.73,3.59-7.57,5.5-11.52c1.9-3.95,3.68-7.79,5.34-11.52
			c1.66-3.73,3.07-7.1,4.23-10.09c1.16-3,1.88-5.41,2.17-7.24c0.07-0.35,0.11-0.65,0.11-0.9c0-0.25,0-0.51,0-0.79
			c0-1.62-0.46-2.8-1.37-3.54c-0.92-0.74-2.08-1.11-3.49-1.11c-2.26,0-5,0.78-8.25,2.33c-3.88,1.83-7.84,4.39-11.89,7.66
			c-4.05,3.28-8.02,7.24-11.89,11.89c-3.66,4.44-7.1,9.25-10.31,14.43c-3.21,5.18-6.17,10.41-8.88,15.7
			c-2.71,5.29-5.2,10.34-7.45,15.17c-2.26,4.83-4.26,9.04-6.02,12.63c-0.49,0.99-1.32,1.74-2.48,2.27
			c-1.16,0.53-2.27,0.79-3.33,0.79c-0.92,0-1.69-0.19-2.33-0.58c-0.63-0.39-0.85-0.97-0.63-1.74c1.06-1.55,2.5-4,4.33-7.35
			c1.83-3.35,3.82-7.27,5.97-11.79c2.15-4.51,4.32-9.32,6.5-14.43c2.18-5.11,4.17-10.22,5.97-15.33c1.8-5.11,3.19-9.92,4.18-14.43
			c0.7-3.1,1.06-5.99,1.06-8.67c0-4.93-1.15-8.44-3.44-10.52c-2.29-2.08-5.23-3.12-8.83-3.12c-3.24,0-6.8,0.71-10.68,2.11
			c-3.88,1.41-7.72,3.31-11.52,5.71c-6.13,3.74-11.2,8.09-15.22,13.05c-4.02,4.97-7.01,10.01-8.99,15.12
			c-1.97,5.11-2.96,9.85-2.96,14.22c0,4.58,1.11,8.39,3.33,11.42c2.22,3.03,5.51,4.54,9.88,4.54c3.73,0,7.17-0.77,10.31-2.33
			c3.13-1.55,5.85-3.56,8.14-6.03c2.29-2.47,4.07-5.04,5.34-7.72c1.27-2.68,1.9-5.14,1.9-7.4c0-2.04-0.57-3.72-1.69-5.02
			c-1.13-1.3-2.96-1.96-5.5-1.96c-0.28,0-0.56,0.02-0.85,0.05c-0.28,0.04-0.6,0.05-0.95,0.05h-0.32c-0.63,0-0.95-0.17-0.95-0.53
			c0-0.63,0.35-1.02,1.06-1.16c1.83-0.42,3.42-0.63,4.76-0.63c2.89,0,5.02,0.78,6.39,2.33c1.37,1.55,2.06,3.53,2.06,5.92
			c0,2.54-0.72,5.34-2.17,8.4c-1.45,3.07-3.49,5.96-6.13,8.67c-2.64,2.71-5.8,4.95-9.46,6.71c-3.67,1.76-7.72,2.64-12.16,2.64
			c-3.38,0-6.55-0.83-9.51-2.48c-2.96-1.66-5.34-4.03-7.14-7.13c-1.8-3.1-2.7-6.83-2.7-11.21c0-2.18,0.25-4.49,0.74-6.92
			c0.49-2.43,1.3-4.95,2.43-7.56c1.69-4.09,4.05-7.96,7.08-11.63c3.03-3.66,6.46-7.03,10.31-10.09c3.84-3.07,7.77-5.69,11.79-7.88
			c3.52-1.97,7.33-3.54,11.42-4.7c4.09-1.16,8-1.74,11.73-1.74c3.38,0,6.48,0.57,9.3,1.69c2.82,1.13,5.06,2.94,6.71,5.44
			c1.66,2.5,2.48,5.83,2.48,9.99c0,0.71-0.02,1.37-0.05,2.01c-0.04,0.63-0.12,1.41-0.26,2.33c-0.42,4.09-1.53,8.23-3.33,12.42
			c-1.8,4.19-3.61,8.26-5.44,12.21c-0.99,2.19-1.69,3.77-2.11,4.76c-0.42,0.99-0.63,1.55-0.63,1.69c0,0.14,0.19-0.11,0.58-0.74
			c0.39-0.63,0.85-1.41,1.37-2.33c0.53-0.92,1-1.69,1.43-2.33c1.62-2.54,3.59-5.43,5.92-8.67c2.33-3.24,5-6.69,8.03-10.36
			c3.95-4.79,8.12-9.2,12.53-13.21c4.4-4.02,8.65-6.98,12.74-8.88c1.83-0.85,3.73-1.51,5.71-2.01c1.97-0.49,3.84-0.74,5.6-0.74
			c2.82,0,5.29,0.72,7.4,2.17c2.11,1.44,3.13,4.07,3.06,7.87c0,3.17-0.76,6.7-2.27,10.57c-1.52,3.88-3.49,8.07-5.92,12.58
			c-2.43,4.51-5.06,9.34-7.88,14.48c-2.82,5.15-5.53,10.57-8.14,16.28c-1.9,4.09-3.29,7.88-4.18,11.36
			c-0.88,3.49-1.32,6.54-1.32,9.14c0,2.89,0.56,5.16,1.69,6.82c1.13,1.66,2.75,2.48,4.86,2.48c1.55,0,3.28-0.46,5.18-1.37
			c0.63-0.35,1.22-0.58,1.74-0.69s0.93-0.16,1.22-0.16c1.06,0,1.58,0.39,1.58,1.16c0,0.77-0.63,1.62-1.9,2.54
			C-1390.04,278.3-1391.73,278.72-1393.85,278.65z"/>
	</g>
</g>
<g>
	<g>
		<path class="st0" d="M-1141.6,295.04c-0.63,0-0.76-0.48-0.37-1.43c0.39-0.95,0.76-1.82,1.11-2.59c0.63-1.27,0.95-3.24,0.95-5.92
			c0-2.33-0.42-4.83-1.27-7.5c-0.85-2.68-2.5-5.11-4.97-7.29c-3.38-3.1-7.19-5.57-11.42-7.4c-4.23-1.83-8.65-3.31-13.27-4.44
			c-4.62-1.13-9.18-2.11-13.69-2.96c-2.75,3.8-5.69,7.22-8.83,10.25c-3.14,3.03-6.47,5.35-9.99,6.98c-1.97,0.91-3.88,1.6-5.71,2.06
			c-1.83,0.46-3.56,0.69-5.18,0.69c-3.95,0-7.17-1.04-9.67-3.12c-2.5-2.08-3.75-4.53-3.75-7.35c0-2.68,1.22-5.3,3.65-7.88
			c2.43-2.57,6.46-4.7,12.1-6.39c2.25-0.63,4.76-1.11,7.5-1.43c2.75-0.32,5.6-0.48,8.56-0.48c1.83,0,3.65,0.05,5.44,0.16
			s3.47,0.33,5.02,0.69c2.04-3.1,3.95-6.32,5.71-9.67c1.76-3.35,3.59-6.99,5.5-10.94c-5.57,0.14-10.4-0.69-14.48-2.48
			c-4.09-1.8-7.24-4.21-9.46-7.24c-2.22-3.03-3.33-6.27-3.33-9.72c0-2.82,0.81-5.58,2.43-8.3c1.62-2.71,4.17-5.18,7.66-7.4
			s7.94-3.96,13.37-5.23c0.35-0.14,0.69-0.21,1-0.21c0.32,0,0.62,0,0.9,0c1.06,0,1.59,0.21,1.59,0.63c0,0.71-1.13,1.2-3.38,1.48
			c-3.66,0.42-6.89,1.73-9.67,3.91c-2.79,2.18-4.93,4.79-6.45,7.82c-1.52,3.03-2.27,6.1-2.27,9.2c0,2.68,0.63,5.18,1.9,7.5
			s3.28,4.21,6.03,5.66c2.75,1.45,6.31,2.17,10.68,2.17c1.55,0,3.21-0.11,4.97-0.32c0.28-0.56,0.76-1.71,1.43-3.44
			c0.67-1.73,1.43-3.68,2.27-5.87c0.84-2.18,1.67-4.3,2.48-6.34c0.81-2.04,1.74-4.44,2.8-7.19c3.24-8.1,6.57-14.46,9.99-19.08
			c3.42-4.61,6.73-7.88,9.94-9.78c3.21-1.9,6.08-2.85,8.61-2.85c2.75,0,5.02,0.81,6.82,2.43c1.8,1.62,2.77,3.45,2.91,5.5
			c0.07,0.63,0.11,1.09,0.11,1.37c0,0.28,0,0.63,0,1.06c0,4.16-0.83,8.32-2.48,12.47c-1.66,4.16-3.95,8.1-6.87,11.84
			c-2.92,3.74-6.27,7.12-10.04,10.15c-3.77,3.03-7.79,5.57-12.05,7.61c-4.26,2.04-8.58,3.45-12.95,4.23c-1.06,2.11-1.99,4-2.8,5.66
			c-0.81,1.66-1.71,3.43-2.7,5.34c-0.99,1.9-2.29,4.33-3.91,7.29c-0.49,0.92-0.86,1.57-1.11,1.96c-0.25,0.39-0.62,0.97-1.11,1.74
			c3.52,0.84,7.36,2.03,11.52,3.54c4.16,1.52,8.26,3.31,12.31,5.39c4.05,2.08,7.66,4.35,10.83,6.82c3.95,3.03,6.75,6.45,8.4,10.25
			c1.66,3.81,2.48,7.15,2.48,10.04c0,2.04-0.32,3.59-0.95,4.65c-0.92,1.55-1.83,2.54-2.75,2.96
			C-1140.4,294.79-1141.1,295.04-1141.6,295.04z M-1215.69,272.42c1.55,0,3.22-0.21,5.02-0.63s3.68-1.09,5.66-2.01
			c5.92-2.89,11.38-7.89,16.38-15.01c-1.62-0.35-3.31-0.62-5.07-0.79c-1.76-0.17-3.56-0.26-5.39-0.26c-1.9,0-3.86,0.11-5.87,0.32
			c-2.01,0.21-3.96,0.6-5.87,1.16c-4.72,1.27-8.33,2.89-10.83,4.86c-2.5,1.97-3.75,3.98-3.75,6.02c0,1.76,0.88,3.26,2.64,4.49
			C-1221.01,271.8-1218.65,272.42-1215.69,272.42z M-1168.23,225.8c4.79-1.06,9.48-2.98,14.06-5.76c4.58-2.78,8.7-6.17,12.37-10.15
			c3.66-3.98,6.59-8.31,8.77-13c2.18-4.69,3.28-9.46,3.28-14.32c0-1.2-0.32-2.18-0.95-2.96c-0.63-0.77-1.55-1.16-2.75-1.16
			c-1.62,0-3.7,0.9-6.24,2.7c-2.54,1.8-5.43,4.79-8.67,8.99c-3.24,4.19-6.73,9.95-10.46,17.28c-1.9,3.67-3.58,6.89-5.02,9.67
			C-1165.29,219.86-1166.75,222.77-1168.23,225.8z"/>
	</g>
</g>
<g>
	<path class="st1" d="M-1261.52,244.15c-0.03,0.02-0.06,0.03-0.1,0.05c-2.89,1.15-6.14,1.42-9.25,1.19
		c-2.51-0.19-4.97-0.69-7.43-1.18c-2.28-0.45-4.67-0.84-6.98-0.35c-1.33,0.28-2.64,0.86-3.68,1.74c-0.03,0.02-0.05,0.04-0.07,0.06
		c-1.57,0.4-3.06,1.19-4.16,2.4c-0.61,0.68-1.12,1.44-1.6,2.22c-0.48,0.78-0.92,1.57-1.3,2.4c-0.06,0.13-0.11,0.25-0.17,0.38
		c0.44-1.95,0.91-3.89,1.45-5.81c0.61-2.21,1.41-4.37,2.3-6.49c0.15-0.35,0.3-0.7,0.45-1.05c0,0,0,0,0-0.01
		c1.52-2.86,3.94-5.19,6.69-6.86c1.28-0.78,2.65-1.41,4.05-1.94c1.04-0.4,2.12-0.71,3.23-0.82c0.24-0.02,0.48-0.04,0.71-0.05
		c0,0,0.01,0.01,0.01,0.01c0,0,0.01,0.01,0.01,0.01c2.07,1.98,5.1,2.88,7.92,3.04c2.82,0.16,5.62-0.27,8.43-0.5l0,0
		c0.82,0.03,1.65,0.02,2.48-0.06c0.14-0.01,0.27-0.03,0.41-0.04c0.09-0.01,0.19-0.02,0.29-0.03c0,0,0,0,0,0l0,0
		c-0.07-0.07-0.14-0.15-0.21-0.22c-0.01-0.01-0.01-0.01-0.02-0.02c-0.83-0.81-1.81-1.45-2.88-1.96c-1.56-0.74-3.21-1.35-4.84-1.89
		c-2.89-0.96-6.07-1.48-8.99-0.34c-0.94,0.37-1.87,0.92-2.6,1.66c-0.03,0.03-0.06,0.06-0.09,0.09c-0.09,0-0.17,0.01-0.26,0.01
		c-1.12,0.07-2.21,0.33-3.26,0.7c-2.94,1.04-5.71,2.6-7.98,4.75c-0.86,0.82-1.64,1.71-2.32,2.68c0.6-1.27,1.25-2.52,1.95-3.74
		c0-0.01,0.01-0.01,0.01-0.02c0.01-0.01,0.01-0.02,0.02-0.03c0,0,0,0,0,0c0.37-0.64,0.75-1.27,1.15-1.9c1.68-2.62,3.68-5,5.81-7.26
		c2.04-2.16,4.15-4.24,6.06-6.51c0.08-0.09,0.15-0.18,0.23-0.27c0.05-0.01,0.1-0.02,0.14-0.04c0.01,0,0.02,0,0.03-0.01
		c3.12-0.86,5.74-3.25,7.65-5.82c2.18-2.95,3.78-6.33,5.97-9.26c0.12-0.16,0.25-0.33,0.37-0.49c-0.09,0.05-0.19,0.11-0.28,0.16
		c-0.09,0.05-0.17,0.1-0.26,0.15c-0.14,0.08-0.29,0.16-0.43,0.24c-0.8,0.46-1.61,0.92-2.41,1.38c-1.5,0.87-2.99,1.78-4.36,2.86
		c-2.58,2.05-4.56,4.79-5.71,7.88c-0.31,0.83-0.55,1.68-0.73,2.55c-3.53,4.23-7.73,7.87-10.97,12.34c1.81-2.98,3.73-5.9,5.28-9.03
		c0.03-0.05,0.06-0.1,0.08-0.14c1.7-2.95,3.23-6.01,3.97-9.34c0.49-2.22,0.52-4.48,0.39-6.74c-0.12-2.02-0.27-4.02-0.22-6.05
		c0.02-0.99,0.07-1.99,0.17-2.98c0.02-0.22,0.05-0.44,0.08-0.66c-0.07,0.12-0.14,0.25-0.2,0.38c-0.03,0.06-0.07,0.13-0.1,0.19
		c-0.07,0.14-0.14,0.29-0.2,0.43c-0.05,0.1-0.09,0.21-0.14,0.31c-0.92,2.2-1.23,4.56-1.51,6.91c-0.29,2.53-0.57,5.12-1.58,7.49
		c-0.53,1.24-1.23,2.41-1.69,3.68c-0.36,0.99-0.56,2.02-0.57,3.08c-0.01,1.4,0.3,2.79,0.89,4.05c0.01,0.02,0.02,0.05,0.03,0.07
		c-1.52,2.93-3.36,5.71-5.06,8.51c-0.74,1.21-1.45,2.44-2.11,3.7c-0.82,1.44-1.58,2.92-2.27,4.42c-0.17,0.38-0.34,0.75-0.51,1.13
		c-0.99,2.23-1.86,4.53-2.56,6.87c-0.87,2.92-1.52,5.91-2.17,8.88c0,0.01,0,0.02-0.01,0.03c-0.04,0.15-0.07,0.3-0.1,0.45
		c0,0,0,0,0,0c-0.06,0.28-0.12,0.57-0.18,0.85c0.05-2-0.2-4.02-0.44-6.01c-0.11-0.93-0.21-1.83-0.41-2.74
		c-0.12-0.55-0.16-1.08-0.01-1.63c0.13-0.48,0.35-0.93,0.58-1.36c0.06-0.1,0.11-0.21,0.17-0.31c0,0.02-0.01,0.03-0.01,0.05
		c0.06-0.11,0.13-0.21,0.19-0.32c0.17-0.16,0.33-0.32,0.48-0.48c0.86-0.89,1.6-1.89,2.23-2.96c1.29-2.21,2.08-4.68,2.59-7.17
		c1.08-5.24,0.86-10.62,1.68-15.9c0.06-0.38,0.12-0.76,0.2-1.14c0-0.01,0-0.02,0.01-0.03c0.03-0.15,0.06-0.3,0.09-0.45
		c-0.11,0.12-0.21,0.24-0.31,0.37c0,0,0,0,0,0c-1.35,1.6-2.52,3.34-3.51,5.18c-1.36,2.53-2.36,5.25-2.96,8.06
		c-0.61,2.83-0.8,5.72-0.59,8.61c0.11,1.58,0.24,3.15-0.02,4.73c-0.07,0.4-0.15,0.79-0.24,1.19c-0.01,0.05-0.02,0.1-0.03,0.15
		c-0.26,0.47-0.49,0.95-0.67,1.45c-0.2,0.57-0.26,1.13-0.15,1.73c0.05,0.28,0.12,0.56,0.18,0.84c0.09,0.44,0.14,0.88,0.19,1.32
		c0.18,1.59,0.4,3.18,0.5,4.78c0.08,1.33,0.07,2.66-0.13,3.98c-0.64,3.09-1.22,6.2-1.7,9.32c-0.29,1.87-0.55,3.76-0.73,5.65
		c-0.13,1.38-0.23,2.79-0.13,4.18c0.02,0.25,0.05,0.49,0.09,0.73c0.02,0.15,0.26,0.14,0.24-0.01c-0.21-1.22-0.13-2.49-0.05-3.72
		c0.12-1.8,0.35-3.59,0.61-5.38c0.45-3.11,1.01-6.21,1.63-9.3c0-0.01,0-0.01,0.01-0.02c0.12-0.45,0.21-0.91,0.28-1.37
		c0.12-0.6,0.25-1.2,0.38-1.81c0.07-0.32,0.14-0.64,0.2-0.96c0,0,0,0,0,0c0-0.01,0-0.01,0-0.02c0.01-0.02,0.01-0.05,0.02-0.07
		c0.01-0.05,0.02-0.1,0.03-0.16c0-0.01,0.01-0.03,0.01-0.04c0.38-1.72,1.11-3.31,2.01-4.83c0.93-1.56,1.96-3.05,3.56-3.97
		c0.69-0.4,1.43-0.69,2.2-0.9c0.01,0.02,0.02,0.04,0.03,0.05c0.01,0.02,0.02,0.04,0.04,0.06c0.89,1.39,2.18,2.54,3.64,3.33
		c2.84,1.52,6.22,1.83,9.39,1.56c2.86-0.24,5.68-1.01,8.27-2.25c1.3-0.62,2.55-1.37,3.71-2.23c0.88-0.65,1.7-1.35,2.54-2.05
		c0.01-0.01,0.02-0.02,0.03-0.03c0.16-0.14,0.33-0.27,0.49-0.41c0.05-0.04,0.1-0.08,0.15-0.12c0.09-0.07,0.17-0.14,0.26-0.21
		C-1260.83,243.79-1261.18,243.97-1261.52,244.15z M-1273.87,231.91c-1.15-0.45-2.23-1.08-3.13-1.9c0.17,0,0.34-0.01,0.51,0
		c0,0,0.01,0,0.01,0c0.88,0.02,1.75,0.11,2.62,0.21c0.02,0,0.04,0,0.05,0c2.75,0.38,5.47,1.19,8.15,1.75
		c1.07,0.22,2.14,0.4,3.21,0.51C-1266.27,232.85-1270.21,233.34-1273.87,231.91z M-1274.97,228.38c1.24-0.54,2.6-0.77,3.94-0.77
		c1.57,0.01,3.13,0.34,4.63,0.81c1.59,0.49,3.16,1.09,4.69,1.75c0.89,0.39,1.77,0.83,2.56,1.4c0.27,0.2,0.53,0.42,0.77,0.65
		c-0.91,0.01-1.83,0.06-2.72,0.13c-0.1,0-0.21-0.01-0.31-0.01c-1.2-0.07-2.39-0.25-3.56-0.47c-2.39-0.46-4.74-1.13-7.13-1.59
		c-1.21-0.23-2.43-0.41-3.66-0.47c-0.01,0-0.02,0-0.03,0c-0.43-0.03-0.87-0.04-1.3-0.03
		C-1276.47,229.17-1275.73,228.71-1274.97,228.38z M-1262.89,203.56c0.01-0.01,0.02-0.02,0.03-0.04c-0.21,0.3-0.42,0.59-0.62,0.89
		c-2.61,3.94-4.6,8.48-8.44,11.44c-1.13,0.87-2.4,1.58-3.75,2c0.21-0.3,0.43-0.61,0.65-0.91c0.1-0.13,0.2-0.26,0.31-0.4
		c0.01-0.02,0.02-0.03,0.02-0.05c0.94-1.25,1.93-2.45,2.95-3.64c1.39-1.61,2.83-3.17,4.32-4.69
		C-1265.9,206.63-1264.37,205.12-1262.89,203.56z M-1273.08,211.48c0.93-1.37,2.06-2.6,3.34-3.66c1.3-1.07,2.72-1.97,4.17-2.82
		c0.72-0.42,1.45-0.84,2.17-1.26c-1.21,1.27-2.45,2.5-3.68,3.74c-2.88,2.92-5.66,5.97-8.1,9.28c-0.17,0.22-0.35,0.44-0.52,0.65
		C-1275.2,215.3-1274.3,213.28-1273.08,211.48z M-1277.59,203.87c0.16,2.3,0.25,4.61-0.15,6.9c-0.39,2.21-1.16,4.32-2.11,6.34
		c-0.21,0.45-0.44,0.9-0.67,1.35c0.25-0.63,0.48-1.27,0.68-1.92c0.47-1.22,0.89-2.45,1.18-3.72c0.31-1.33,0.41-2.69,0.5-4.05
		c0.09-1.38,0.15-2.76,0.2-4.14c0.06-1.73,0.12-3.45,0.21-5.18C-1277.76,200.91-1277.69,202.39-1277.59,203.87z M-1282.22,221.51
		c-0.47-1.05-0.73-2.18-0.79-3.32c-0.05-1,0.07-2,0.37-2.96c0.39-1.28,1.07-2.46,1.63-3.67c1.05-2.26,1.43-4.69,1.72-7.14
		c0.27-2.32,0.5-4.67,1.26-6.89c0.06-0.17,0.12-0.34,0.18-0.5c-0.17,2.15-0.25,4.3-0.33,6.46c-0.05,1.39-0.1,2.77-0.17,4.15
		c-0.08,1.39-0.14,2.81-0.37,4.18c-0.27,1.6-0.78,3.13-1.36,4.64c-0.44,1.16-0.93,2.3-1.4,3.44c-0.13,0.32-0.26,0.64-0.38,0.96
		c-0.01,0.01-0.01,0.03-0.02,0.04C-1281.98,221.1-1282.1,221.31-1282.22,221.51z M-1291.14,224.42c-0.34,5.15-0.67,10.49-2.98,15.21
		c-0.62,1.27-1.38,2.46-2.31,3.53c-0.11,0.13-0.22,0.25-0.34,0.37c0.15-0.24,0.3-0.47,0.45-0.7c0.03-0.05,0.02-0.1-0.01-0.13
		c0.1-0.2,0.2-0.4,0.29-0.6c0.77-1.64,1.21-3.35,1.52-5.13c0.71-4.13,0.78-8.34,1.76-12.42c0.56-2.38,1.36-4.68,2.3-6.93
		C-1290.82,219.86-1290.98,222.16-1291.14,224.42z M-1296.97,241.93c0.05-0.77,0.02-1.54-0.03-2.31c-0.1-1.49-0.21-2.96-0.16-4.45
		c0.05-1.46,0.21-2.93,0.47-4.37c0.52-2.84,1.45-5.61,2.74-8.19c0.93-1.86,2.05-3.62,3.34-5.24c-0.77,1.83-1.45,3.7-1.99,5.62
		c-0.56,1.99-0.93,4.02-1.18,6.07c-0.26,2.1-0.43,4.21-0.72,6.31c-0.27,1.92-0.59,3.86-1.32,5.67c-0.33,0.81-0.72,1.59-1.14,2.36
		c-0.09,0.14-0.18,0.28-0.27,0.42C-1297.11,243.2-1297.01,242.57-1296.97,241.93z M-1285.6,244.17c2.33-0.6,4.78-0.22,7.09,0.23
		c2.44,0.48,4.86,0.99,7.34,1.19c2.33,0.19,4.69,0.14,6.98-0.36c0.25-0.05,0.49-0.11,0.73-0.18c-1.35,0.58-2.73,1.05-4.17,1.37
		c-1.54,0.34-3.12,0.51-4.69,0.43c-1.76-0.09-3.45-0.57-5.13-1.05c-1.58-0.46-3.17-0.88-4.81-1c-1.4-0.1-2.82,0-4.2,0.26
		c-0.68,0.13-1.35,0.31-2.01,0.52c-0.01-0.02-0.03-0.03-0.05-0.03C-1287.67,244.9-1286.64,244.44-1285.6,244.17z M-1262.84,245.25
		c-1.07,0.87-2.18,1.68-3.37,2.37c-2.48,1.43-5.24,2.41-8.07,2.85c-3.06,0.48-6.35,0.43-9.3-0.61c-2.06-0.73-3.97-2.08-5.16-3.92
		c0.53-0.19,1.07-0.35,1.62-0.48c1.38-0.33,2.81-0.49,4.23-0.44c1.63,0.05,3.2,0.4,4.76,0.84c1.68,0.48,3.36,1.01,5.1,1.19
		c1.55,0.16,3.11,0.06,4.64-0.21c2.13-0.39,4.16-1.12,6.11-2.04C-1262.47,244.94-1262.66,245.1-1262.84,245.25z"/>
	<path class="st1" d="M-1331.8,234.27c0.02,0.08,0.03,0.16,0.05,0.24c0.13,0.72,0.17,1.45,0.3,2.17c0.16,0.93,0.48,1.82,0.94,2.64
		c0.93,1.68,2.41,2.99,4.17,3.73c0.99,0.42,2.04,0.69,3.07,1c1.07,0.33,2.1,0.74,3.1,1.25c1.01,0.51,2,1.03,3.05,1.46
		c1,0.41,2.03,0.75,3.08,1.02c1.34,0.35,2.72,0.57,4.1,0.68c0.02,0,0.03,0,0.05,0c0.15,0.08,0.29,0.15,0.44,0.23
		c0.85,0.44,1.68,0.91,2.48,1.44c0.33,0.22,0.65,0.45,0.97,0.69c0.01,0.02,0.02,0.04,0.03,0.06c0.04,0.07,0.08,0.15,0.12,0.22
		c0.96,1.77,1.81,3.59,2.53,5.48c0.46,1.19,0.86,2.39,1.22,3.61c0.02,0.07,0.04,0.14,0.06,0.21c0.21,0.73,0.41,1.47,0.58,2.21
		c-0.04-0.07-0.08-0.14-0.12-0.21c-0.5-0.83-1.08-1.6-1.75-2.3c-0.01-0.01-0.01-0.02-0.02-0.03c-0.04-0.07-0.08-0.13-0.13-0.2
		c-0.68-1.06-1.48-2.03-2.38-2.91c-2.28-2.23-5.22-3.89-8.39-4.38c-0.77-0.12-1.55-0.17-2.33-0.14c-0.87,0.03-1.73,0.17-2.59,0.3
		c-1.38,0.2-2.84,0.4-4.21,0.06c-0.33-0.15-0.68-0.27-1.03-0.37c-0.01,0-0.01,0-0.02-0.01c-0.1-0.03-0.13,0.12-0.05,0.16
		c0.01,0,0.01,0.01,0.02,0.01c0.34,0.17,0.7,0.29,1.05,0.38c1.35,0.6,2.51,1.57,3.61,2.55c1.23,1.09,2.43,2.24,3.84,3.1
		c0.71,0.43,1.48,0.77,2.29,0.98c0.85,0.23,1.72,0.33,2.59,0.37c1.79,0.08,3.58-0.1,5.38-0.08c0.68,0.01,1.37,0.05,2.05,0.15
		c0.06,0.06,0.12,0.13,0.19,0.19c0.19,0.2,0.38,0.42,0.56,0.63c0.56,0.67,1.05,1.4,1.46,2.17c0.04,0.08,0.08,0.16,0.12,0.23
		c0,0,0,0,0,0c0.32,1.43,0.57,2.88,0.76,4.33c0.48,3.74,0.51,7.54,0.08,11.29c-0.01,0.11,0.16,0.14,0.17,0.03
		c0.05-0.47,0.1-0.93,0.14-1.4c0.32-3.74,0.18-7.53-0.4-11.24c-0.12-0.77-0.26-1.54-0.42-2.31c-0.05-0.25-0.11-0.51-0.16-0.76
		c-0.2-0.91-0.44-1.82-0.69-2.72c-0.02-0.07-0.04-0.14-0.06-0.21c-0.48-1.64-1.04-3.25-1.69-4.83c-0.61-1.48-1.3-2.91-2.06-4.31
		c-0.01-0.01-0.01-0.02-0.02-0.03c-0.02-0.04-0.05-0.09-0.07-0.13c-0.05-0.09-0.1-0.18-0.15-0.27c-0.2-0.36-0.4-0.72-0.61-1.07
		c-0.32-0.99-0.36-2.05-0.12-3.06c0.23-0.95,0.73-1.79,1.3-2.57c0.49-0.67,1.02-1.32,1.47-2.02c0.46-0.73,0.78-1.5,0.93-2.35
		c0.16-0.92,0.14-1.86,0.11-2.78c-0.04-0.94-0.08-1.89-0.2-2.83c-0.12-0.91-0.31-1.83-0.68-2.67c-0.33-0.77-0.82-1.44-1.36-2.07
		c-0.39-0.46-0.82-0.9-1.22-1.37c-0.07-0.08-0.15-0.17-0.22-0.25c0.02,0.11,0.04,0.22,0.06,0.33c0.21,1.4,0.05,2.85-0.46,4.17
		c-0.48,1.24-1.24,2.35-1.76,3.58c-0.26,0.6-0.45,1.22-0.53,1.87c-0.37-1.42-0.86-2.8-1.56-4.09c-0.9-1.67-2.14-3.19-3.76-4.19
		c-0.96-0.59-2.03-0.98-2.93-1.66c-0.8-0.61-1.48-1.38-2.02-2.23c-0.55-0.85-0.96-1.78-1.27-2.74c-0.25-0.79-0.41-1.62-0.75-2.37
		c-0.07-0.15-0.14-0.31-0.23-0.45c-0.02-0.02-0.04-0.04-0.07-0.05c-0.07-0.05-0.14-0.1-0.22-0.15c-0.19-0.12-0.4-0.23-0.62-0.3
		c-0.11-0.04-0.23-0.08-0.34-0.11c-0.07-0.03-0.15-0.05-0.22-0.09c0.03,0.07,0.06,0.14,0.08,0.22c0,0,0,0,0,0
		c0.18,0.56,0.19,1.17,0.24,1.75c0.05,0.6,0.11,1.19,0.17,1.78c0.14,1.2,0.31,2.4,0.54,3.59c0.45,2.33,1.09,4.64,2.05,6.82
		c0.95,2.15,2.2,4.17,3.8,5.9c1.53,1.65,3.29,3.05,4.96,4.56c0.8,0.73,1.59,1.48,2.3,2.3c0.16,0.22,0.31,0.45,0.47,0.68
		c0.26,0.38,0.51,0.75,0.75,1.14c0.09,0.14,0.18,0.28,0.27,0.42c0.29,0.46,0.57,0.92,0.84,1.38c0.02,0.03,0.04,0.07,0.06,0.1
		c0.13,0.22,0.26,0.45,0.39,0.67c-1.01-0.74-2.12-1.37-3.24-1.96c-0.13-0.07-0.25-0.13-0.38-0.2c-0.02-0.01-0.04-0.02-0.06-0.03
		c-0.46-0.46-0.9-0.95-1.31-1.44c-1.35-1.62-2.5-3.39-3.84-5.02c-1.29-1.56-2.78-3.05-4.62-3.94c-0.99-0.48-2.04-0.74-3.13-0.83
		c-1.26-0.1-2.52-0.02-3.77-0.1c-1.87-0.11-4.09-0.71-5.01-2.51c-0.02-0.04-0.05-0.09-0.07-0.14
		C-1331.69,234.25-1331.76,234.24-1331.8,234.27z M-1309.23,238.14c-0.02,0.59,0.02,1.18,0.09,1.76c0.28,2.41,0.69,4.82,1.19,7.2
		c-0.29-0.4-0.6-0.79-0.93-1.16c-0.28-0.32-0.58-0.64-0.88-0.94c-0.62-0.62-1.27-1.22-1.92-1.8c-1.71-1.51-3.5-2.96-4.99-4.71
		c-1.55-1.83-2.74-3.94-3.62-6.17c-0.89-2.26-1.48-4.63-1.87-7.03c-0.2-1.2-0.34-2.41-0.45-3.63c-0.05-0.59-0.07-1.19-0.16-1.77
		c-0.02-0.16-0.06-0.32-0.1-0.47c0.03,0.01,0.05,0.02,0.08,0.03c0.3,0.1,0.58,0.23,0.84,0.41c0.04,0.03,0.09,0.06,0.13,0.1
		c0.09,0.16,0.18,0.33,0.25,0.51c0.41,0.98,0.58,2.05,0.97,3.04c0.36,0.93,0.84,1.81,1.44,2.61c0.59,0.78,1.3,1.47,2.12,2
		c0.93,0.6,1.98,0.98,2.89,1.61c1.6,1.13,2.78,2.76,3.61,4.52C-1309.97,235.5-1309.55,236.8-1309.23,238.14z M-1306.87,248.87
		c0.01,0.07,0.03,0.15,0.04,0.22c-0.03-0.05-0.06-0.1-0.09-0.15c-0.23-0.38-0.46-0.75-0.7-1.12c-0.03-0.12-0.05-0.24-0.08-0.36
		c-0.24-1.15-0.46-2.3-0.66-3.45c-0.14-0.8-0.26-1.6-0.38-2.4c-0.11-0.79-0.23-1.59-0.29-2.39c-0.01-0.1-0.01-0.2-0.02-0.3
		c-0.01-0.27-0.02-0.54,0-0.81c0.02-0.39,0.07-0.78,0.16-1.17c0.16-0.65,0.43-1.27,0.73-1.87c0.6-1.2,1.33-2.35,1.69-3.66
		c0.29-1.05,0.37-2.15,0.24-3.22c0.45,0.51,0.92,1,1.34,1.53c0.55,0.69,0.99,1.45,1.27,2.29c0.3,0.91,0.44,1.86,0.52,2.8
		c0.08,0.94,0.13,1.89,0.14,2.84c0.01,0.96-0.05,1.94-0.36,2.86c-0.55,1.6-1.82,2.78-2.69,4.2
		C-1306.79,245.98-1307.11,247.44-1306.87,248.87z M-1303.91,259.55c-1.07-1-2.3-1.82-3.63-2.42c-1.3-0.59-2.68-0.91-4.09-1.08
		c-1.59-0.19-3.22-0.27-4.7-0.93c-0.1-0.05-0.17,0.11-0.07,0.16c1.62,0.73,3.42,0.77,5.15,1c1.39,0.19,2.74,0.57,4.01,1.19
		c1.22,0.6,2.35,1.39,3.33,2.33c0.02,0.02,0.04,0.04,0.06,0.06c-0.78-0.1-1.57-0.12-2.35-0.12c-1.81,0.01-3.62,0.19-5.43,0.04
		c-0.88-0.07-1.77-0.22-2.61-0.52c-0.79-0.28-1.53-0.68-2.21-1.16c-1.38-0.95-2.56-2.14-3.83-3.22c-0.78-0.66-1.6-1.29-2.5-1.77
		c1.31,0.18,2.68-0.04,3.98-0.23c0.84-0.12,1.69-0.24,2.54-0.25c0.78-0.01,1.56,0.07,2.33,0.21c1.57,0.29,3.07,0.87,4.46,1.65
		C-1307.28,255.71-1305.35,257.46-1303.91,259.55z M-1331.52,234.91c0.01,0.02,0.03,0.04,0.04,0.06c1.19,1.68,3.45,2.11,5.37,2.17
		c1.26,0.04,2.52-0.03,3.77,0.13c1.09,0.14,2.13,0.49,3.09,1.03c1.84,1.04,3.3,2.64,4.59,4.29c1.31,1.67,2.47,3.46,3.9,5.04
		c0.13,0.14,0.25,0.28,0.38,0.41c0.08,0.08,0.16,0.16,0.24,0.24c-0.06,0-0.11-0.01-0.17-0.01c-1.53-0.14-3.04-0.43-4.52-0.87
		c-1.04-0.31-2.06-0.69-3.05-1.14c-1.03-0.47-2.02-1.03-3.04-1.5c-0.97-0.45-1.98-0.77-3.01-1.07c-1.02-0.3-2.06-0.61-3.01-1.1
		c-1.7-0.87-3.07-2.37-3.82-4.12c-0.4-0.94-0.57-1.91-0.69-2.91C-1331.46,235.34-1331.49,235.13-1331.52,234.91z"/>
</g>
<g>
	<g>
		<path class="st0" d="M-1430.14,111.07v23.25h-0.72l-15.54-23.36h-0.07v21.91h4v0.9h-8.4v-0.9h3.5v-21.81h-3.75v-0.9h9.01l11,16.55
			h0.07v-15.65h-3.91v-0.9h8.38v0.9H-1430.14z"/>
		<path class="st0" d="M-1403.62,111.07h-3.85v-0.9h8.43v0.9h-3.71v14.27c0,2.07-0.16,3.59-0.47,4.58c-0.31,0.99-0.88,1.81-1.7,2.48
			c-0.82,0.67-1.8,1.16-2.95,1.46c-1.14,0.31-2.33,0.46-3.55,0.46c-2.58,0-4.47-0.4-5.67-1.21s-1.93-1.81-2.21-2.99
			c-0.28-1.19-0.41-2.77-0.41-4.77v-14.27h-3.41v-0.9h11.28v0.9h-3.71v13.87c0,1.91,0.09,3.41,0.26,4.51c0.18,1.09,0.65,2,1.43,2.73
			s2,1.09,3.68,1.09c1.36,0,2.58-0.28,3.66-0.84c1.08-0.56,1.83-1.31,2.26-2.24c0.43-0.94,0.64-2.69,0.64-5.25V111.07z"/>
		<path class="st0" d="M-1387.91,111.07v10.12h2.13c0.75,0,1.39-0.07,1.91-0.22c0.52-0.15,0.99-0.54,1.41-1.19
			c0.42-0.65,0.65-1.65,0.71-3.03h0.92v10h-0.92c-0.09-1.9-0.46-3.15-1.1-3.76c-0.64-0.6-1.62-0.91-2.93-0.91h-2.13v10.79h4.8
			c2.72,0,4.61-0.57,5.66-1.72s1.67-2.91,1.88-5.29h0.9l-0.23,7.9h-20.93v-0.9h3.75v-21.81h-3.75v-0.9h20.07l0.41,6.3h-0.9
			c-0.31-1.91-0.93-3.29-1.88-4.14c-0.95-0.84-2.53-1.27-4.75-1.27H-1387.91z"/>
		<path class="st0" d="M-1356.39,109.91l0.11,6.13h-0.83c-1.17-3.67-3.25-5.51-6.21-5.51c-1.64,0-2.92,0.46-3.83,1.36
			c-0.91,0.91-1.36,1.85-1.36,2.83c0,0.9,0.38,1.67,1.13,2.31s2.14,1.12,4.15,1.47s3.54,0.77,4.58,1.27
			c1.05,0.5,1.94,1.33,2.66,2.49c0.72,1.16,1.08,2.49,1.08,4c0,2.31-0.75,4.24-2.26,5.77c-1.51,1.54-3.38,2.31-5.61,2.31
			c-1.82,0-3.63-0.67-5.44-2.02l-1.65,1.48h-0.62v-6.6h0.76c0.69,2.08,1.66,3.64,2.9,4.68s2.61,1.57,4.08,1.57
			c1.47,0,2.81-0.48,4.04-1.45c1.23-0.97,1.84-2.19,1.84-3.67c0-1.24-0.43-2.29-1.28-3.14c-0.85-0.85-2.23-1.44-4.14-1.76
			c-1.91-0.32-3.37-0.7-4.39-1.13c-1.02-0.43-1.89-1.17-2.62-2.24c-0.73-1.06-1.09-2.24-1.09-3.53c0-1.78,0.63-3.38,1.9-4.78
			c1.27-1.4,2.99-2.1,5.16-2.1c1.82,0,3.51,0.57,5.09,1.72c0.43-0.41,0.81-0.89,1.13-1.44H-1356.39z"/>
		<path class="st0" d="M-1351.5,110.17h20.12l0.62,8.03h-0.9c-0.55-2.69-1.28-4.55-2.19-5.58s-2.1-1.55-3.58-1.55h-1.92v21.81h4.22
			v0.9h-12.62v-0.9h4.22v-21.81h-1.92c-1.48,0-2.67,0.52-3.58,1.55s-1.64,2.89-2.19,5.58h-0.9L-1351.5,110.17z"/>
		<path class="st0" d="M-1323.7,132.88v-21.81h-3.71v-0.9h12.94c1.69,0,3.08,0.15,4.16,0.44c1.08,0.29,2.02,0.9,2.81,1.82
			c0.79,0.92,1.18,1.98,1.18,3.18c0,1.49-0.58,2.7-1.72,3.63c-1.15,0.93-3.1,1.63-5.84,2.09v0.09c1.97,0.39,3.59,1.14,4.85,2.25
			c1.26,1.12,1.89,3,1.89,5.67c0,1.53,0.18,2.5,0.54,2.93c0.36,0.43,0.85,0.64,1.49,0.64c0.41,0,0.9-0.08,1.48-0.25v0.86
			c-1.02,0.35-2.01,0.53-2.96,0.53c-1.94,0-3.3-0.54-4.1-1.62c-0.8-1.08-1.19-2.14-1.16-3.17l0.07-2.99c0-1.04-0.33-2.07-0.99-3.09
			s-2.17-1.52-4.51-1.52h-2.2v11.21h3.71v0.9h-11.62v-0.9H-1323.7z M-1319.51,111.07v9.77h3.17c1.36,0,2.4-0.09,3.12-0.27
			c0.71-0.18,1.29-0.66,1.72-1.43c0.43-0.77,0.64-1.99,0.64-3.67c0-1.37-0.22-2.38-0.65-3.01c-0.43-0.63-0.96-1.02-1.58-1.17
			c-0.62-0.15-1.42-0.22-2.42-0.22H-1319.51z"/>
		<path class="st0" d="M-1287.3,126.42h-7.5l-2.41,6.46h4.37v0.9h-8.55v-0.9h3.26l8.61-23.25h0.55l8.25,23.25h3.17v0.9h-11.25v-0.9
			h3.82L-1287.3,126.42z M-1294.47,125.52h6.85l-3.33-9.45h-0.07L-1294.47,125.52z"/>
		<path class="st0" d="M-1262.68,132.88v-21.81h-3.64v-0.9h12.2c1.34,0,2.46,0.07,3.38,0.2c0.92,0.13,1.79,0.48,2.64,1.05
			c0.84,0.56,1.45,1.26,1.82,2.09c0.37,0.83,0.55,1.61,0.55,2.35c0,2.8-2.15,4.64-6.46,5.51v0.09c4.86,0.79,7.29,2.8,7.29,6.06
			c0,0.8-0.22,1.64-0.65,2.53c-0.43,0.89-1.13,1.65-2.08,2.3c-0.95,0.65-1.92,1.05-2.91,1.21c-0.99,0.16-2.24,0.24-3.74,0.24h-12.04
			v-0.9H-1262.68z M-1254.88,111.07h-3.61v9.91h3.24c2.19,0,3.6-0.43,4.21-1.29c0.61-0.86,0.92-2.21,0.92-4.05
			c0-1.44-0.2-2.49-0.6-3.15c-0.4-0.66-0.91-1.06-1.52-1.21C-1252.86,111.14-1253.74,111.07-1254.88,111.07z M-1255.29,121.88h-3.2
			v11h3.31c1.23,0,2.21-0.09,2.95-0.28s1.36-0.69,1.88-1.5s0.77-2.1,0.77-3.85c0-1.87-0.39-3.23-1.17-4.08
			C-1251.53,122.3-1253.04,121.88-1255.29,121.88z"/>
		<path class="st0" d="M-1230.11,134.32c-3.05,0-5.64-1.28-7.77-3.84s-3.19-5.29-3.19-8.2c0-3.5,1.12-6.48,3.35-8.95
			s4.83-3.71,7.79-3.71c2.78,0,5.27,1.26,7.48,3.77s3.31,5.36,3.31,8.55c0,3.29-1.11,6.17-3.32,8.65S-1227.23,134.32-1230.11,134.32
			z M-1230.04,110.52c-1.29,0-2.45,0.3-3.48,0.89c-1.03,0.59-1.72,1.62-2.09,3.09c-0.37,1.47-0.55,4.02-0.55,7.67
			c0,2.52,0.11,4.54,0.32,6.04s0.75,2.75,1.61,3.73s2.21,1.48,4.06,1.48c1.13,0,2.26-0.3,3.39-0.9c1.13-0.6,1.87-1.77,2.22-3.53
			c0.35-1.75,0.52-4.45,0.52-8.09c0-3.3-0.21-5.57-0.64-6.83c-0.43-1.26-1.12-2.16-2.06-2.72
			C-1227.71,110.8-1228.8,110.52-1230.04,110.52z"/>
		<path class="st0" d="M-1212.05,132.88v-21.81h-3.68v-0.9h11.14c2.46,0,4.57,0.35,6.33,1.05c1.75,0.7,3.22,2.07,4.39,4.1
			c1.17,2.04,1.76,4.25,1.76,6.63c0,2.52-0.65,4.78-1.94,6.76c-1.29,1.98-2.78,3.32-4.46,4.02c-1.68,0.7-3.73,1.05-6.15,1.05h-11.07
			v-0.9H-1212.05z M-1207.87,111.07v21.81h3.06c1.61,0,2.92-0.15,3.93-0.44c1.01-0.29,1.85-0.93,2.52-1.92s1.11-2.24,1.35-3.75
			s0.35-3.49,0.35-5.93c0-2.93-0.37-5.12-1.12-6.57s-1.66-2.34-2.74-2.68c-1.08-0.35-2.49-0.52-4.22-0.52H-1207.87z"/>
		<path class="st0" d="M-1177.86,126.42h-7.5l-2.41,6.46h4.37v0.9h-8.55v-0.9h3.26l8.61-23.25h0.55l8.26,23.25h3.17v0.9h-11.25v-0.9
			h3.82L-1177.86,126.42z M-1185.02,125.52h6.85l-3.33-9.45h-0.07L-1185.02,125.52z"/>
	</g>
</g>
<g>
	
		<text transform="matrix(1 0 0 1 -2076.4062 600.181)" class="st0" style="font-family:'GreatVibes-Regular'; font-size:108.7894px;">Nahui</text>
	<g>
		
			<text transform="matrix(1 0 0 1 -1874.4258 695.5248)" class="st0" style="font-family:'GreatVibes-Regular'; font-size:108.7894px;">Luis</text>
	</g>
	<text transform="matrix(1 0 0 1 -1888.8887 645.2914)" class="st0" style="font-family:'BodoniMT'; font-size:52.3876px;">&amp;</text>
	<g>
		<text transform="matrix(1 0 0 1 -2020.1207 484.6351)" class="st0" style="font-family:'BodoniMT'; font-size:36.0484px;">Nuestra Boda</text>
	</g>
</g>
<g>
	
		<text transform="matrix(1 0 0 1 -1514.2598 730.5714)" class="st0" style="font-family:'BodoniMT'; font-size:35.0254px; letter-spacing:8;">Nahui</text>
</g>
<g>
	
		<text transform="matrix(1 0 0 1 -1236.5504 730.5714)" class="st0" style="font-family:'BodoniMT'; font-size:35.0254px; letter-spacing:8;">Luis</text>
</g>
<g>
	<text transform="matrix(1 0 0 1 -1322.3989 730.5714)" class="st0" style="font-family:'BodoniMT'; font-size:35.0254px;">&amp;</text>
</g>
<g>
	
		<text transform="matrix(1 0 0 1 -1499.6547 631.1281)" class="st0" style="font-family:'GreatVibes-Regular'; font-size:105.7022px;">N</text>
</g>
<g>
	
		<text transform="matrix(1 0 0 1 -1227.1094 631.1281)" class="st0" style="font-family:'GreatVibes-Regular'; font-size:105.7022px;">L</text>
</g>
<g>
	<path class="st1" d="M-1261.52,612.16c-0.03,0.02-0.06,0.03-0.1,0.05c-2.89,1.15-6.14,1.42-9.25,1.19
		c-2.51-0.19-4.97-0.69-7.43-1.18c-2.28-0.45-4.67-0.84-6.98-0.35c-1.33,0.28-2.64,0.86-3.68,1.74c-0.03,0.02-0.05,0.04-0.07,0.06
		c-1.57,0.4-3.06,1.19-4.16,2.4c-0.61,0.68-1.12,1.44-1.6,2.22c-0.48,0.78-0.92,1.57-1.3,2.4c-0.06,0.13-0.11,0.25-0.17,0.38
		c0.44-1.95,0.91-3.89,1.45-5.81c0.61-2.21,1.41-4.37,2.3-6.49c0.15-0.35,0.3-0.7,0.45-1.05c0,0,0,0,0-0.01
		c1.52-2.86,3.94-5.19,6.69-6.86c1.28-0.78,2.65-1.41,4.05-1.94c1.04-0.4,2.12-0.71,3.23-0.82c0.24-0.02,0.48-0.04,0.71-0.05
		c0,0,0.01,0.01,0.01,0.01c0,0,0.01,0.01,0.01,0.01c2.07,1.98,5.1,2.88,7.92,3.04c2.82,0.16,5.62-0.27,8.43-0.5l0,0
		c0.82,0.03,1.65,0.02,2.48-0.06c0.14-0.01,0.27-0.03,0.41-0.04c0.09-0.01,0.19-0.02,0.29-0.03c0,0,0,0,0,0l0,0
		c-0.07-0.07-0.14-0.15-0.21-0.22c-0.01-0.01-0.01-0.01-0.02-0.02c-0.83-0.81-1.81-1.45-2.88-1.96c-1.56-0.74-3.21-1.35-4.84-1.89
		c-2.89-0.96-6.07-1.48-8.99-0.34c-0.94,0.37-1.87,0.92-2.6,1.66c-0.03,0.03-0.06,0.06-0.09,0.09c-0.09,0-0.17,0.01-0.26,0.01
		c-1.12,0.07-2.21,0.33-3.26,0.7c-2.94,1.04-5.71,2.6-7.98,4.75c-0.86,0.82-1.64,1.71-2.32,2.68c0.6-1.27,1.25-2.52,1.95-3.74
		c0-0.01,0.01-0.01,0.01-0.02c0.01-0.01,0.01-0.02,0.02-0.03c0,0,0,0,0,0c0.37-0.64,0.75-1.27,1.15-1.9c1.68-2.62,3.68-5,5.81-7.26
		c2.04-2.16,4.15-4.24,6.06-6.51c0.08-0.09,0.15-0.18,0.23-0.27c0.05-0.01,0.1-0.02,0.14-0.04c0.01,0,0.02,0,0.03-0.01
		c3.12-0.86,5.74-3.25,7.65-5.82c2.18-2.95,3.78-6.33,5.97-9.26c0.12-0.16,0.25-0.33,0.37-0.49c-0.09,0.05-0.19,0.11-0.28,0.16
		c-0.09,0.05-0.17,0.1-0.26,0.15c-0.14,0.08-0.29,0.16-0.43,0.24c-0.8,0.46-1.61,0.92-2.41,1.38c-1.5,0.87-2.99,1.78-4.36,2.86
		c-2.58,2.05-4.56,4.79-5.71,7.88c-0.31,0.83-0.55,1.68-0.73,2.55c-3.53,4.23-7.73,7.87-10.97,12.34c1.81-2.98,3.73-5.9,5.28-9.03
		c0.03-0.05,0.06-0.1,0.08-0.14c1.7-2.95,3.23-6.01,3.97-9.34c0.49-2.22,0.52-4.48,0.39-6.74c-0.12-2.02-0.27-4.02-0.22-6.05
		c0.02-0.99,0.07-1.99,0.17-2.98c0.02-0.22,0.05-0.44,0.08-0.66c-0.07,0.12-0.14,0.25-0.2,0.38c-0.03,0.06-0.07,0.13-0.1,0.19
		c-0.07,0.14-0.14,0.29-0.2,0.43c-0.05,0.1-0.09,0.21-0.14,0.31c-0.92,2.2-1.23,4.56-1.51,6.91c-0.29,2.53-0.57,5.12-1.58,7.49
		c-0.53,1.24-1.23,2.41-1.69,3.68c-0.36,0.99-0.56,2.02-0.57,3.08c-0.01,1.4,0.3,2.79,0.89,4.05c0.01,0.02,0.02,0.05,0.03,0.07
		c-1.52,2.93-3.36,5.71-5.06,8.51c-0.74,1.21-1.45,2.44-2.11,3.7c-0.82,1.44-1.58,2.92-2.27,4.42c-0.17,0.38-0.34,0.75-0.51,1.13
		c-0.99,2.23-1.86,4.53-2.56,6.87c-0.87,2.92-1.52,5.91-2.17,8.88c0,0.01,0,0.02-0.01,0.03c-0.04,0.15-0.07,0.3-0.1,0.45
		c0,0,0,0,0,0c-0.06,0.28-0.12,0.57-0.18,0.85c0.05-2-0.2-4.02-0.44-6.01c-0.11-0.93-0.21-1.83-0.41-2.74
		c-0.12-0.55-0.16-1.08-0.01-1.63c0.13-0.48,0.35-0.93,0.58-1.36c0.06-0.1,0.11-0.21,0.17-0.31c0,0.02-0.01,0.03-0.01,0.05
		c0.06-0.11,0.13-0.21,0.19-0.32c0.17-0.16,0.33-0.32,0.48-0.48c0.86-0.89,1.6-1.89,2.23-2.96c1.29-2.21,2.08-4.68,2.59-7.17
		c1.08-5.24,0.86-10.62,1.68-15.9c0.06-0.38,0.12-0.76,0.2-1.14c0-0.01,0-0.02,0.01-0.03c0.03-0.15,0.06-0.3,0.09-0.45
		c-0.11,0.12-0.21,0.24-0.31,0.37c0,0,0,0,0,0c-1.35,1.6-2.52,3.34-3.51,5.18c-1.36,2.53-2.36,5.25-2.96,8.06
		c-0.61,2.83-0.8,5.72-0.59,8.61c0.11,1.58,0.24,3.15-0.02,4.73c-0.07,0.4-0.15,0.79-0.24,1.19c-0.01,0.05-0.02,0.1-0.03,0.15
		c-0.26,0.47-0.49,0.95-0.67,1.45c-0.2,0.57-0.26,1.13-0.15,1.73c0.05,0.28,0.12,0.56,0.18,0.84c0.09,0.44,0.14,0.88,0.19,1.32
		c0.18,1.59,0.4,3.18,0.5,4.78c0.08,1.33,0.07,2.66-0.13,3.98c-0.64,3.09-1.22,6.2-1.7,9.32c-0.29,1.87-0.55,3.76-0.73,5.65
		c-0.13,1.38-0.23,2.79-0.13,4.18c0.02,0.25,0.05,0.49,0.09,0.73c0.02,0.15,0.26,0.14,0.24-0.01c-0.21-1.22-0.13-2.49-0.05-3.72
		c0.12-1.8,0.35-3.59,0.61-5.38c0.45-3.11,1.01-6.21,1.63-9.3c0-0.01,0-0.01,0.01-0.02c0.12-0.45,0.21-0.91,0.28-1.37
		c0.12-0.6,0.25-1.2,0.38-1.81c0.07-0.32,0.14-0.64,0.2-0.96c0,0,0,0,0,0c0-0.01,0-0.01,0-0.02c0.01-0.02,0.01-0.05,0.02-0.07
		c0.01-0.05,0.02-0.1,0.03-0.16c0-0.01,0.01-0.03,0.01-0.04c0.38-1.72,1.11-3.31,2.01-4.83c0.93-1.56,1.96-3.05,3.56-3.97
		c0.69-0.4,1.43-0.69,2.2-0.9c0.01,0.02,0.02,0.04,0.03,0.05c0.01,0.02,0.02,0.04,0.04,0.06c0.89,1.39,2.18,2.54,3.64,3.33
		c2.84,1.52,6.22,1.83,9.39,1.56c2.86-0.24,5.68-1.01,8.27-2.25c1.3-0.62,2.55-1.37,3.71-2.22c0.88-0.65,1.7-1.35,2.54-2.05
		c0.01-0.01,0.02-0.02,0.03-0.03c0.16-0.14,0.33-0.27,0.49-0.41c0.05-0.04,0.1-0.08,0.15-0.12c0.09-0.07,0.17-0.14,0.26-0.21
		C-1260.83,611.81-1261.18,611.99-1261.52,612.16z M-1273.87,599.92c-1.15-0.45-2.23-1.08-3.13-1.9c0.17,0,0.34-0.01,0.51,0
		c0,0,0.01,0,0.01,0c0.88,0.02,1.75,0.11,2.62,0.21c0.02,0,0.04,0,0.05,0c2.75,0.38,5.47,1.19,8.15,1.75
		c1.07,0.22,2.14,0.4,3.21,0.51C-1266.27,600.86-1270.21,601.36-1273.87,599.92z M-1274.97,596.39c1.24-0.54,2.6-0.77,3.94-0.77
		c1.57,0.01,3.13,0.34,4.63,0.81c1.59,0.49,3.16,1.09,4.69,1.75c0.89,0.39,1.77,0.83,2.56,1.4c0.27,0.2,0.53,0.42,0.77,0.65
		c-0.91,0.01-1.83,0.06-2.72,0.13c-0.1,0-0.21-0.01-0.31-0.01c-1.2-0.07-2.39-0.25-3.56-0.47c-2.39-0.46-4.74-1.13-7.13-1.59
		c-1.21-0.23-2.43-0.41-3.66-0.47c-0.01,0-0.02,0-0.03,0c-0.43-0.03-0.87-0.04-1.3-0.03
		C-1276.47,597.19-1275.73,596.72-1274.97,596.39z M-1262.89,571.57c0.01-0.01,0.02-0.02,0.03-0.04c-0.21,0.3-0.42,0.59-0.62,0.89
		c-2.61,3.94-4.6,8.48-8.44,11.44c-1.13,0.87-2.4,1.58-3.75,2c0.21-0.3,0.43-0.61,0.65-0.91c0.1-0.13,0.2-0.26,0.31-0.4
		c0.01-0.02,0.02-0.03,0.02-0.05c0.94-1.25,1.93-2.45,2.95-3.64c1.39-1.61,2.83-3.17,4.32-4.69
		C-1265.9,574.65-1264.37,573.14-1262.89,571.57z M-1273.08,579.49c0.93-1.37,2.06-2.6,3.34-3.66c1.3-1.07,2.72-1.97,4.17-2.82
		c0.72-0.42,1.45-0.84,2.17-1.26c-1.21,1.27-2.45,2.5-3.68,3.74c-2.88,2.92-5.66,5.97-8.1,9.28c-0.17,0.22-0.35,0.44-0.52,0.65
		C-1275.2,583.32-1274.3,581.29-1273.08,579.49z M-1277.59,571.88c0.16,2.3,0.25,4.61-0.15,6.9c-0.39,2.21-1.16,4.32-2.11,6.34
		c-0.21,0.45-0.44,0.9-0.67,1.35c0.25-0.63,0.48-1.27,0.68-1.92c0.47-1.22,0.89-2.45,1.18-3.72c0.31-1.33,0.41-2.69,0.5-4.05
		c0.09-1.38,0.15-2.76,0.2-4.14c0.06-1.73,0.12-3.45,0.21-5.18C-1277.76,568.93-1277.69,570.4-1277.59,571.88z M-1282.22,589.53
		c-0.47-1.05-0.73-2.18-0.79-3.32c-0.05-1,0.07-2,0.37-2.96c0.39-1.28,1.07-2.46,1.63-3.67c1.05-2.26,1.43-4.69,1.72-7.14
		c0.27-2.32,0.5-4.67,1.26-6.89c0.06-0.17,0.12-0.34,0.18-0.5c-0.17,2.15-0.25,4.3-0.33,6.46c-0.05,1.39-0.1,2.77-0.17,4.15
		c-0.08,1.39-0.14,2.81-0.37,4.18c-0.27,1.6-0.78,3.13-1.36,4.64c-0.44,1.16-0.93,2.3-1.4,3.44c-0.13,0.32-0.26,0.64-0.38,0.96
		c-0.01,0.01-0.01,0.03-0.02,0.04C-1281.98,589.12-1282.1,589.32-1282.22,589.53z M-1291.14,592.43
		c-0.34,5.15-0.67,10.49-2.98,15.21c-0.62,1.27-1.38,2.46-2.31,3.53c-0.11,0.13-0.22,0.25-0.34,0.37c0.15-0.24,0.3-0.47,0.45-0.7
		c0.03-0.05,0.02-0.1-0.01-0.13c0.1-0.2,0.2-0.4,0.29-0.6c0.77-1.64,1.21-3.35,1.52-5.13c0.71-4.13,0.78-8.34,1.76-12.42
		c0.56-2.38,1.36-4.68,2.3-6.93C-1290.82,587.88-1290.98,590.18-1291.14,592.43z M-1296.97,609.95c0.05-0.77,0.02-1.54-0.03-2.31
		c-0.1-1.49-0.21-2.96-0.16-4.45c0.05-1.46,0.21-2.93,0.47-4.37c0.52-2.84,1.45-5.61,2.74-8.19c0.93-1.86,2.05-3.62,3.34-5.24
		c-0.77,1.83-1.45,3.7-1.99,5.62c-0.56,1.99-0.93,4.02-1.18,6.07c-0.26,2.1-0.43,4.21-0.72,6.31c-0.27,1.92-0.59,3.86-1.32,5.67
		c-0.33,0.81-0.72,1.59-1.14,2.36c-0.09,0.14-0.18,0.28-0.27,0.42C-1297.11,611.21-1297.01,610.58-1296.97,609.95z M-1285.6,612.18
		c2.33-0.6,4.78-0.22,7.09,0.23c2.44,0.48,4.86,0.99,7.34,1.19c2.33,0.19,4.69,0.14,6.98-0.36c0.25-0.05,0.49-0.11,0.73-0.18
		c-1.35,0.58-2.73,1.05-4.17,1.37c-1.54,0.34-3.12,0.51-4.69,0.43c-1.76-0.09-3.45-0.57-5.13-1.05c-1.58-0.46-3.17-0.88-4.81-1
		c-1.4-0.1-2.82,0-4.2,0.26c-0.68,0.13-1.35,0.31-2.01,0.52c-0.01-0.02-0.03-0.03-0.05-0.03
		C-1287.67,612.91-1286.64,612.45-1285.6,612.18z M-1262.84,613.27c-1.07,0.87-2.18,1.68-3.37,2.36c-2.48,1.43-5.24,2.41-8.07,2.85
		c-3.06,0.48-6.35,0.43-9.3-0.61c-2.06-0.73-3.97-2.08-5.16-3.92c0.53-0.19,1.07-0.35,1.62-0.48c1.38-0.33,2.81-0.49,4.23-0.44
		c1.63,0.05,3.2,0.4,4.76,0.84c1.68,0.48,3.36,1.01,5.1,1.19c1.55,0.16,3.11,0.06,4.64-0.21c2.13-0.39,4.16-1.12,6.11-2.04
		C-1262.47,612.96-1262.66,613.11-1262.84,613.27z"/>
	<path class="st1" d="M-1331.8,602.29c0.02,0.08,0.03,0.16,0.05,0.24c0.13,0.72,0.17,1.45,0.3,2.17c0.16,0.93,0.48,1.82,0.94,2.64
		c0.93,1.68,2.41,2.99,4.17,3.73c0.99,0.42,2.04,0.69,3.07,1c1.07,0.33,2.1,0.74,3.1,1.25c1.01,0.51,2,1.03,3.05,1.46
		c1,0.41,2.03,0.75,3.08,1.02c1.34,0.35,2.72,0.57,4.1,0.68c0.02,0,0.03,0,0.05,0c0.15,0.08,0.29,0.15,0.44,0.23
		c0.85,0.44,1.68,0.91,2.48,1.44c0.33,0.22,0.65,0.45,0.97,0.69c0.01,0.02,0.02,0.04,0.03,0.06c0.04,0.07,0.08,0.15,0.12,0.22
		c0.96,1.77,1.81,3.59,2.53,5.48c0.46,1.19,0.86,2.39,1.22,3.61c0.02,0.07,0.04,0.14,0.06,0.21c0.21,0.73,0.41,1.47,0.58,2.21
		c-0.04-0.07-0.08-0.14-0.12-0.21c-0.5-0.83-1.08-1.6-1.75-2.3c-0.01-0.01-0.01-0.02-0.02-0.03c-0.04-0.07-0.08-0.13-0.13-0.2
		c-0.68-1.06-1.48-2.03-2.38-2.91c-2.28-2.23-5.22-3.89-8.39-4.38c-0.77-0.12-1.55-0.17-2.33-0.14c-0.87,0.03-1.73,0.17-2.59,0.3
		c-1.38,0.2-2.84,0.4-4.21,0.06c-0.33-0.15-0.68-0.27-1.03-0.37c-0.01,0-0.01,0-0.02-0.01c-0.1-0.03-0.13,0.12-0.05,0.16
		c0.01,0,0.01,0.01,0.02,0.01c0.34,0.17,0.7,0.29,1.05,0.38c1.35,0.6,2.51,1.57,3.61,2.55c1.23,1.09,2.43,2.24,3.84,3.1
		c0.71,0.43,1.48,0.77,2.29,0.98c0.85,0.23,1.72,0.33,2.59,0.37c1.79,0.08,3.58-0.1,5.38-0.08c0.68,0.01,1.37,0.05,2.05,0.15
		c0.06,0.06,0.12,0.13,0.19,0.19c0.19,0.2,0.38,0.42,0.56,0.63c0.56,0.67,1.05,1.4,1.46,2.17c0.04,0.08,0.08,0.16,0.12,0.23
		c0,0,0,0,0,0c0.32,1.43,0.57,2.88,0.76,4.33c0.48,3.74,0.51,7.54,0.08,11.29c-0.01,0.11,0.16,0.14,0.17,0.03
		c0.05-0.47,0.1-0.93,0.14-1.4c0.32-3.74,0.18-7.53-0.4-11.24c-0.12-0.77-0.26-1.54-0.42-2.31c-0.05-0.25-0.11-0.51-0.16-0.76
		c-0.2-0.91-0.44-1.82-0.69-2.72c-0.02-0.07-0.04-0.14-0.06-0.21c-0.48-1.64-1.04-3.25-1.69-4.83c-0.61-1.48-1.3-2.91-2.06-4.31
		c-0.01-0.01-0.01-0.02-0.02-0.03c-0.02-0.04-0.05-0.09-0.07-0.13c-0.05-0.09-0.1-0.18-0.15-0.27c-0.2-0.36-0.4-0.72-0.61-1.07
		c-0.32-0.99-0.36-2.05-0.12-3.06c0.23-0.95,0.73-1.79,1.3-2.57c0.49-0.67,1.02-1.32,1.47-2.02c0.46-0.73,0.78-1.5,0.93-2.35
		c0.16-0.92,0.14-1.86,0.11-2.78c-0.04-0.94-0.08-1.89-0.2-2.83c-0.12-0.91-0.31-1.83-0.68-2.67c-0.33-0.77-0.82-1.44-1.36-2.07
		c-0.39-0.46-0.82-0.9-1.22-1.37c-0.07-0.08-0.15-0.17-0.22-0.25c0.02,0.11,0.04,0.22,0.06,0.33c0.21,1.4,0.05,2.85-0.46,4.17
		c-0.48,1.24-1.24,2.35-1.76,3.58c-0.26,0.6-0.45,1.22-0.53,1.87c-0.37-1.42-0.86-2.8-1.56-4.09c-0.9-1.67-2.14-3.19-3.76-4.19
		c-0.96-0.59-2.03-0.98-2.93-1.66c-0.8-0.61-1.48-1.38-2.02-2.23c-0.55-0.85-0.96-1.78-1.27-2.74c-0.25-0.79-0.41-1.62-0.75-2.37
		c-0.07-0.15-0.14-0.31-0.23-0.45c-0.02-0.02-0.04-0.04-0.07-0.05c-0.07-0.05-0.14-0.1-0.22-0.15c-0.19-0.12-0.4-0.23-0.62-0.3
		c-0.11-0.04-0.23-0.08-0.34-0.11c-0.07-0.03-0.15-0.05-0.22-0.09c0.03,0.07,0.06,0.14,0.08,0.22c0,0,0,0,0,0
		c0.18,0.56,0.19,1.17,0.24,1.75c0.05,0.6,0.11,1.19,0.17,1.78c0.14,1.2,0.31,2.4,0.54,3.59c0.45,2.33,1.09,4.64,2.05,6.82
		c0.95,2.15,2.2,4.17,3.8,5.9c1.53,1.65,3.29,3.05,4.96,4.56c0.8,0.73,1.59,1.48,2.3,2.3c0.16,0.22,0.31,0.45,0.47,0.68
		c0.26,0.38,0.51,0.75,0.75,1.14c0.09,0.14,0.18,0.28,0.27,0.42c0.29,0.46,0.57,0.92,0.84,1.38c0.02,0.03,0.04,0.07,0.06,0.1
		c0.13,0.22,0.26,0.45,0.39,0.67c-1.01-0.74-2.12-1.37-3.24-1.96c-0.13-0.07-0.25-0.13-0.38-0.2c-0.02-0.01-0.04-0.02-0.06-0.03
		c-0.46-0.46-0.9-0.95-1.31-1.44c-1.35-1.62-2.5-3.39-3.84-5.02c-1.29-1.56-2.78-3.05-4.62-3.94c-0.99-0.48-2.04-0.74-3.13-0.83
		c-1.26-0.1-2.52-0.02-3.77-0.1c-1.87-0.11-4.09-0.71-5.01-2.51c-0.02-0.04-0.05-0.09-0.07-0.14
		C-1331.69,602.26-1331.76,602.26-1331.8,602.29z M-1309.23,606.15c-0.02,0.59,0.02,1.18,0.09,1.76c0.28,2.41,0.69,4.82,1.19,7.2
		c-0.29-0.4-0.6-0.79-0.93-1.16c-0.28-0.32-0.58-0.64-0.88-0.94c-0.62-0.62-1.27-1.22-1.92-1.8c-1.71-1.51-3.5-2.96-4.99-4.71
		c-1.55-1.83-2.74-3.94-3.62-6.17c-0.89-2.26-1.48-4.63-1.87-7.03c-0.2-1.2-0.34-2.41-0.45-3.63c-0.05-0.59-0.07-1.19-0.16-1.77
		c-0.02-0.16-0.06-0.32-0.1-0.47c0.03,0.01,0.05,0.02,0.08,0.03c0.3,0.1,0.58,0.23,0.84,0.41c0.04,0.03,0.09,0.06,0.13,0.1
		c0.09,0.16,0.18,0.33,0.25,0.51c0.41,0.98,0.58,2.05,0.97,3.04c0.36,0.93,0.84,1.81,1.44,2.61c0.59,0.78,1.3,1.47,2.12,2
		c0.93,0.6,1.98,0.98,2.89,1.61c1.6,1.13,2.78,2.76,3.61,4.52C-1309.97,603.51-1309.55,604.82-1309.23,606.15z M-1306.87,616.89
		c0.01,0.07,0.03,0.15,0.04,0.22c-0.03-0.05-0.06-0.1-0.09-0.15c-0.23-0.38-0.46-0.75-0.7-1.12c-0.03-0.12-0.05-0.24-0.08-0.36
		c-0.24-1.15-0.46-2.3-0.66-3.45c-0.14-0.8-0.26-1.6-0.38-2.4c-0.11-0.79-0.23-1.59-0.29-2.39c-0.01-0.1-0.01-0.2-0.02-0.3
		c-0.01-0.27-0.02-0.54,0-0.81c0.02-0.39,0.07-0.78,0.16-1.17c0.16-0.65,0.43-1.27,0.73-1.87c0.6-1.2,1.33-2.35,1.69-3.66
		c0.29-1.05,0.37-2.15,0.24-3.22c0.45,0.51,0.92,1,1.34,1.53c0.55,0.69,0.99,1.45,1.27,2.29c0.3,0.91,0.44,1.86,0.52,2.8
		c0.08,0.94,0.13,1.89,0.14,2.84c0.01,0.96-0.05,1.94-0.36,2.86c-0.55,1.6-1.82,2.78-2.69,4.2
		C-1306.79,613.99-1307.11,615.45-1306.87,616.89z M-1303.91,627.56c-1.07-1-2.3-1.82-3.63-2.42c-1.3-0.59-2.68-0.91-4.09-1.08
		c-1.59-0.19-3.22-0.27-4.7-0.93c-0.1-0.05-0.17,0.11-0.07,0.16c1.62,0.73,3.42,0.77,5.15,1c1.39,0.19,2.74,0.57,4.01,1.19
		c1.22,0.6,2.35,1.39,3.33,2.33c0.02,0.02,0.04,0.04,0.06,0.06c-0.78-0.1-1.57-0.12-2.35-0.12c-1.81,0.01-3.62,0.19-5.43,0.04
		c-0.88-0.07-1.77-0.22-2.61-0.52c-0.79-0.28-1.53-0.68-2.21-1.16c-1.38-0.95-2.56-2.14-3.83-3.22c-0.78-0.66-1.6-1.29-2.5-1.77
		c1.31,0.18,2.68-0.04,3.98-0.23c0.84-0.12,1.69-0.24,2.54-0.25c0.78-0.01,1.56,0.07,2.33,0.21c1.57,0.29,3.07,0.87,4.46,1.65
		C-1307.28,623.72-1305.35,625.48-1303.91,627.56z M-1331.52,602.93c0.01,0.02,0.03,0.04,0.04,0.06c1.19,1.68,3.45,2.11,5.37,2.17
		c1.26,0.04,2.52-0.03,3.77,0.13c1.09,0.14,2.13,0.49,3.09,1.03c1.84,1.04,3.3,2.64,4.59,4.29c1.31,1.67,2.47,3.46,3.9,5.04
		c0.13,0.14,0.25,0.28,0.38,0.41c0.08,0.08,0.16,0.16,0.24,0.24c-0.06,0-0.11-0.01-0.17-0.01c-1.53-0.14-3.04-0.43-4.52-0.87
		c-1.04-0.31-2.06-0.69-3.05-1.14c-1.03-0.47-2.02-1.03-3.04-1.5c-0.97-0.45-1.98-0.77-3.01-1.07c-1.02-0.3-2.06-0.61-3.01-1.1
		c-1.7-0.87-3.07-2.37-3.82-4.12c-0.4-0.94-0.57-1.91-0.69-2.91C-1331.46,603.36-1331.49,603.14-1331.52,602.93z"/>
</g>
<g>
	<text transform="matrix(1 0 0 1 -1452.5652 501.7887)" class="st0" style="font-family:'BodoniMT'; font-size:36.0484px;">Nuestra Boda</text>
</g>
<g>
	<path d="M-250.83-167.58c-3.9,9.52-4.85,17.82-2.13,26.97c4.01,13.49,6.81,27.35,9.86,41.11c0.35,1.56-0.54,4.58-1.7,5.12
		c-11.71,5.43-23.59,10.49-35.82,15.82c-2.14-10.4-4.21-20.46-6.27-30.51c-0.27-0.06-0.55-0.11-0.82-0.17
		c-2.09,10-4.18,20-6.39,30.62c-12.81-5.55-25.51-11.06-38.5-16.69c3.7-15.71,6.85-31.3,11.19-46.55c2.45-8.62,1.1-16.25-2.48-25.58
		c-4.15,24.97-8.07,48.55-12.06,72.51c-4.37,0-8.74,0-13.29,0c0.61-12.22,1.02-24.18,1.84-36.11c1.04-15.12,2.38-30.21,3.65-45.31
		c1.35-16.08,2.69-32.16,4.26-48.21c0.13-1.37,1.68-3.16,3.01-3.77c6.32-2.92,12.82-5.45,19.22-8.21c5.05-2.18,11-3.17,12.65-10.12
		c0.49,0.17,0.98,0.34,1.46,0.51c5.14,28.81,10.29,57.61,15.43,86.42c0.29,0.02,0.59,0.03,0.88,0.05
		c2.45-14.34,4.82-28.7,7.39-43.02c2.59-14.47,5.37-28.9,8.77-43.53c2.12,5.65,6.82,7.15,11.44,8.96c6.79,2.67,13.39,5.84,20.2,8.46
		c2.77,1.06,3.88,2.73,4.12,5.44c1.07,12.11,2.26,24.2,3.23,36.31c1.61,20.24,3.15,40.49,4.58,60.75
		c0.73,10.41,1.15,20.83,1.73,31.53c-4.62,0-8.57,0-13.31,0C-242.67-118.62-246.66-142.6-250.83-167.58z M-265.53-197.57
		c3.8-0.45,6.4-0.76,9-1.08c0.49-0.06,0.98-0.15,1.46-0.26c3.37-0.8,4.47-3.93,2.19-6.59c-0.92-1.08-2.23-1.84-3.66-2.98
		C-259.34-205.1-262.01-201.84-265.53-197.57z"/>
	<path d="M-130.01-263.74c1.18,7.49,2.56,14.34,3.19,21.25c0.24,2.63-0.82,5.61-1.99,8.1c-4.09,8.72-3.98,17.47-0.3,26.09
		c5.51,12.89,7.33,25.97,4.92,39.93c-1.66,9.57,1.72,18.75,5.11,27.64c8.66,22.68,19.58,44.05,36.79,62.09
		c-7.49,6.16-16.05,5.46-24.66,4.81c-4.58-0.35-6.74-2.76-8.33-6.94c-6.07-15.94-12.51-31.74-19.79-47.38
		c4.08,21.24,8.15,42.48,12.48,65.01c-3.18-0.26-6.56-0.05-9.65-0.89c-4.46-1.22-8.6-3.67-13.07-4.72
		c-2.79-0.65-6.37-0.53-8.86,0.73c-5.53,2.78-12.01,3.69-18.65,1.05c2.83-15.96,5.68-32.03,8.53-48.11
		c-0.29-0.07-0.59-0.15-0.88-0.22c-4.81,12.06-9.52,24.16-14.5,36.15c-1.31,3.15-2.97,7.96-5.32,8.52
		c-5.45,1.31-11.08-0.49-15.6-4.53c5.26-11.34,10.68-22.34,15.52-33.59c7.43-17.27,13.53-34.99,15.86-53.78
		c0.41-3.3,0.73-6.66,0.53-9.96c-0.81-13.31,1.37-26.22,5.38-38.78c2.31-7.24,1.72-14.02-0.81-20.93
		c-2.92-7.96-1.38-11.71,6.52-14.73c4.94-1.89,10.15-3.09,15.21-4.66c4.69-1.45,9.2-3.1,10.32-8.85
		C-131.82-261.57-130.76-262.56-130.01-263.74z"/>
	<path d="M-292.65-241.1c3.91,0,6.66,0,9.68,0c-0.09,0.54,0.01,1.27-0.3,1.69c-2.65,3.47-2.26,6.68,0.88,9.49
		c3.58,3.2,3.38,7.01,2.55,11.26c-2.49,12.84-4.75,25.73-7.79,38.76c-1.01-5.13-2.07-10.25-3.01-15.39
		c-1.62-8.8-3.28-17.6-4.66-26.43c-0.28-1.77,0.1-4.11,1.11-5.52C-291.17-231.45-287.11-235.2-292.65-241.1z"/>
	<path class="st0" d="M-265.53-197.57c3.51-4.27,6.19-7.53,8.98-10.92c1.43,1.15,2.74,1.9,3.66,2.98c2.28,2.67,1.19,5.79-2.19,6.59
		c-0.48,0.11-0.97,0.2-1.46,0.26C-259.13-198.33-261.73-198.02-265.53-197.57z"/>
</g>
<g>
	<path d="M206.63,256.27c-6.36,15.53-7.91,29.06-3.48,43.98c6.53,22,11.11,44.6,16.09,67.04c0.57,2.55-0.88,7.47-2.77,8.35
		c-19.09,8.86-38.47,17.1-58.41,25.8c-3.49-16.97-6.86-33.36-10.23-49.76c-0.45-0.09-0.9-0.18-1.34-0.27
		c-3.4,16.31-6.81,32.62-10.43,49.94c-20.9-9.06-41.6-18.03-62.79-27.21c6.04-25.62,11.17-51.05,18.24-75.92
		c4-14.06,1.8-26.51-4.05-41.72c-6.77,40.72-13.17,79.18-19.67,118.25c-7.13,0-14.25,0-21.67,0c0.99-19.93,1.67-39.43,3.01-58.89
		c1.7-24.65,3.88-49.27,5.94-73.9c2.2-26.22,4.39-52.44,6.95-78.63c0.22-2.24,2.73-5.15,4.91-6.15
		c10.31-4.76,20.91-8.88,31.34-13.39c8.24-3.56,17.94-5.17,20.62-16.51c0.8,0.27,1.59,0.55,2.39,0.82
		c8.39,46.98,16.78,93.96,25.17,140.94c0.48,0.03,0.96,0.05,1.44,0.08c4-23.39,7.87-46.81,12.05-70.17
		c4.22-23.59,8.76-47.13,14.31-70.99c3.46,9.21,11.12,11.65,18.66,14.61c11.08,4.35,21.83,9.53,32.94,13.79
		c4.51,1.73,6.32,4.45,6.71,8.86c1.74,19.74,3.69,39.47,5.26,59.22c2.63,33.01,5.14,66.04,7.47,99.07
		c1.19,16.97,1.88,33.98,2.82,51.43c-7.54,0-13.97,0-21.7,0C219.94,336.11,213.42,297,206.63,256.27z M182.65,207.35
		c6.2-0.74,10.44-1.24,14.67-1.76c0.8-0.1,1.6-0.24,2.38-0.43c5.5-1.31,7.28-6.4,3.57-10.76c-1.51-1.76-3.63-3-5.97-4.87
		C192.75,195.08,188.39,200.39,182.65,207.35z"/>
	<path d="M403.67,99.44c1.92,12.22,4.17,23.39,5.2,34.66c0.39,4.29-1.35,9.15-3.25,13.21c-6.67,14.21-6.49,28.49-0.48,42.55
		c8.98,21.02,11.96,42.35,8.02,65.11c-2.7,15.61,2.8,30.58,8.34,45.07c14.13,36.99,31.94,71.84,60,101.26
		c-12.22,10.05-26.17,8.91-40.22,7.84c-7.47-0.57-10.99-4.51-13.58-11.32c-9.9-25.99-20.4-51.76-32.28-77.26
		c6.65,34.64,13.3,69.28,20.35,106.03c-5.18-0.42-10.7-0.07-15.74-1.46c-7.27-2-14.02-5.98-21.32-7.69
		c-4.54-1.06-10.4-0.86-14.45,1.18c-9.02,4.54-19.59,6.01-30.41,1.72c4.62-26.02,9.27-52.24,13.92-78.46
		c-0.48-0.12-0.96-0.24-1.44-0.37c-7.84,19.67-15.52,39.41-23.64,58.96c-2.13,5.14-4.85,12.98-8.67,13.9
		c-8.89,2.14-18.07-0.8-25.44-7.39c8.58-18.49,17.41-36.44,25.31-54.78c12.12-28.16,22.07-57.06,25.87-87.7
		c0.67-5.37,1.19-10.87,0.86-16.25c-1.33-21.71,2.24-42.76,8.78-63.25c3.77-11.81,2.81-22.86-1.32-34.13
		c-4.75-12.98-2.25-19.09,10.64-24.02c8.06-3.08,16.55-5.04,24.81-7.6c7.66-2.37,15-5.05,16.83-14.43
		C400.71,102.98,402.44,101.37,403.67,99.44z"/>
	<path d="M138.43,136.37c6.38,0,10.86,0,15.79,0c-0.14,0.88,0.02,2.08-0.5,2.75c-4.32,5.65-3.68,10.89,1.44,15.48
		c5.84,5.23,5.51,11.43,4.17,18.36c-4.06,20.95-7.75,41.97-12.7,63.21c-1.64-8.37-3.37-16.72-4.92-25.1
		c-2.64-14.35-5.35-28.7-7.59-43.11c-0.45-2.89,0.16-6.7,1.81-9C140.84,152.1,147.45,145.98,138.43,136.37z"/>
	<path class="st0" d="M182.65,207.35c5.73-6.97,10.1-12.28,14.65-17.8c2.34,1.87,4.46,3.1,5.97,4.87c3.72,4.35,1.94,9.44-3.57,10.76
		c-0.78,0.19-1.58,0.33-2.38,0.43C193.09,206.11,188.86,206.61,182.65,207.35z"/>
</g>
<g>
	<path d="M-277.29,80.92c-9.72,0-18.41,0-27.77,0c0-5.68,0-10.84,0-16.78c8.91,0,17.77,0,27.48,0c0-9.56,0-18.41,0-27.79
		c5.78,0,10.73,0,16.76,0c0,8.97,0,18.01,0,27.67c9.95,0,18.85,0,28.18,0c0,5.62,0,10.61,0,16.6c-9.08,0-18.16,0-27.89,0
		c0,9.9-0.31,18.84,0.2,27.73c0.14,2.47,2.27,5.21,4.17,7.16c24.55,25.22,49.33,50.23,73.72,75.6c2.67,2.77,4.58,7.45,4.69,11.3
		c0.49,17.71-0.03,35.45,0.43,53.17c0.09,3.54,1.98,8.05,4.58,10.35c27.47,24.28,55.25,48.2,82.94,72.22
		c1.28,1.11,2.58,2.21,3.82,3.37c3.89,3.63,5.22,7.87,1.48,12.14c-3.92,4.48-8.48,3.98-12.81,0.23
		c-13.58-11.76-27.16-23.51-40.72-35.29c-42.33-36.78-84.72-73.49-126.89-110.45c-4.14-3.63-6.45-3.04-10.22,0.24
		c-54.92,47.83-109.97,95.51-164.99,143.23c-1.1,0.95-2.16,1.96-3.33,2.83c-4,2.97-8.1,3.52-11.71-0.45
		c-3.79-4.18-3.22-8.41,0.87-12.09c6.5-5.84,13.07-11.59,19.68-17.32c22.57-19.55,45.26-38.96,67.6-58.76
		c2.46-2.18,4.18-6.48,4.26-9.85c0.45-17.72,0.42-35.45,0.2-53.17c-0.06-5.02,1.49-8.59,5.07-12.11
		c25.26-24.85,50.27-49.97,75.53-74.83c3.39-3.33,4.98-6.63,4.76-11.4C-277.55,97.02-277.29,89.52-277.29,80.92z M-345.71,247.34
		c3.86-3.3,6.07-5.15,8.25-7.04c19.62-17.01,39.21-34.04,58.85-51.03c7.48-6.47,9.78-6.48,17.42,0.14
		c19.62,17.01,39.17,34.11,58.77,51.14c2.24,1.94,4.64,3.69,8.19,6.5c0-13.76,0.37-25.62-0.21-37.44
		c-0.19-3.87-1.93-8.52-4.57-11.27c-15.77-16.48-32.04-32.49-48.08-48.72c-7.46-7.54-14.79-15.21-22.01-22.65
		c-1.72,0.98-2.45,1.21-2.93,1.69c-23.62,23.73-47.24,47.46-70.79,71.27c-1.28,1.29-2.73,3.18-2.76,4.82
		C-345.81,218.25-345.71,231.76-345.71,247.34z"/>
	<path d="M-392.79,446.73c28.07,0,54.96,0,82.78,0c0.13-2.65,0.36-5.2,0.36-7.75c0.05-18.7-0.14-37.39,0.11-56.09
		c0.29-20.95,17.16-36.73,38.89-36.8c22.97-0.07,40.04,15.52,40.22,36.99c0.16,18.69,0.03,37.39,0.07,56.09
		c0,2.36,0.21,4.72,0.34,7.44c27.64,0,54.7,0,82.8,0c0-3.12,0-5.94,0-8.76c0-27.92,0-55.84,0.01-83.77c0-2.18-0.76-5.04,0.33-6.41
		c2.29-2.9,5.62-6.99,8.43-6.92c2.79,0.07,5.88,4.35,8.02,7.37c1.04,1.46,0.23,4.24,0.23,6.43c0,32.29,0.01,64.58,0,96.88
		c0,9.99-1.99,12.16-11.82,12.18c-31.08,0.06-62.16,0.05-93.24-0.02c-9.51-0.02-11.54-2.17-11.56-11.65
		c-0.03-21.85,0.02-43.7-0.01-65.56c-0.02-14.44-9.41-23.85-23.57-23.74c-13.57,0.11-22.74,9.63-22.76,23.76
		c-0.04,21.85,0.02,43.7-0.02,65.56c-0.02,9.62-1.98,11.63-11.54,11.64c-30.84,0.04-61.67,0.04-92.51-0.01
		c-10.24-0.02-12.56-2.34-12.56-12.29c-0.02-33.02-0.01-66.04,0-99.06c0-1.7-0.56-3.93,0.29-4.99c2.1-2.6,4.88-6.47,7.37-6.47
		c2.93,0.01,6.35,3.15,8.58,5.77c1.27,1.49,0.74,4.65,0.74,7.06c0.04,28.41,0.02,56.82,0.02,85.22
		C-392.79,441.21-392.79,443.6-392.79,446.73z"/>
</g>
<g>
	<g>
		<path d="M-650.96,160.7c1.89,0,3.43-1.53,3.43-3.43v-2.24c0-1.89-1.53-3.43-3.43-3.43c-1.89,0-3.43,1.53-3.43,3.43v2.24
			C-654.39,159.16-652.85,160.7-650.96,160.7z"/>
		<path d="M-608.92,450.35c-0.38-1.85-2.18-3.05-4.04-2.67c-0.12,0.02-7.8,1.54-23.75,2.6l-29.3-21.67V308.2l16.17-22.95
			c2.21-1.02,4.35-2.19,6.4-3.54c0.05-0.03,0.09-0.06,0.14-0.1c13.62-8.99,21.74-24.09,21.74-40.41c0-2.81-0.26-5.7-0.78-8.6
			l-9.82-106.99c-0.16-1.76-1.64-3.11-3.41-3.11h-68.91c-1.77,0-3.25,1.35-3.41,3.11l-4.71,51.29c-1.09,0.8-1.63,2.21-1.27,3.61
			c0.14,0.56,0.43,1.04,0.8,1.44l-4.65,50.65c-0.52,2.9-0.78,5.8-0.78,8.6c0,16.35,8.17,31.48,21.84,40.49
			c2.18,1.44,4.47,2.67,6.83,3.73l16.97,22.61v120.88l-28.32,21.4c-15.79-1.05-22.98-2.59-23.13-2.62c-1.84-0.4-3.68,0.75-4.09,2.6
			c-0.41,1.85,0.75,3.68,2.6,4.09c0.68,0.15,17.19,3.75,56.37,3.75c39.14,0,57.1-3.58,57.85-3.73
			C-609.74,454.01-608.54,452.2-608.92,450.35z M-701.37,129.35h45.63l1.36,16c0.15,1.79,1.65,3.14,3.41,3.14c0.1,0,0.2,0,0.29-0.01
			c1.89-0.16,3.28-1.82,3.12-3.71l-1.31-15.42h10.14l6.75,73.57c-2.06,0.31-5.87,0.79-12.8,1.43c-18.57,1.71-29.08-7.3-39.25-16.01
			c-1.5-1.29-2.99-2.56-4.48-3.78c-7.14-5.86-13.1-7.82-17.19-8.36L-701.37,129.35z M-670.04,282.81c-8.17,0-16.07-2.36-22.86-6.84
			c-11.75-7.73-18.76-20.73-18.76-34.76c0-2.47,0.23-4.94,0.7-7.53c0.02-0.1,0.03-0.2,0.04-0.3l4.62-50.36
			c2.93,0.44,7.57,1.99,13.47,6.83c1.46,1.19,2.9,2.44,4.37,3.69c9.83,8.42,20.86,17.88,39.15,17.88c1.67,0,3.4-0.08,5.19-0.24
			c6.18-0.57,10.16-1.02,12.8-1.41l2.17,23.62c0.01,0.1,0.02,0.2,0.04,0.3c0.47,2.59,0.7,5.05,0.7,7.52
			c0,14.05-7.02,27.05-18.77,34.76c-0.05,0.03-0.1,0.06-0.14,0.1C-654.08,280.47-661.93,282.81-670.04,282.81z"/>
	</g>
	<g>
		<path d="M-803.63,112.84c-1.47-1.2-1.68-3.36-0.49-4.82l1.42-1.73c1.2-1.47,3.36-1.68,4.82-0.49c1.47,1.2,1.68,3.36,0.49,4.82
			l-1.42,1.73C-800,113.82-802.16,114.03-803.63,112.84z"/>
		<path d="M-1019.88,315.42c0.48,0.59,12.13,14.72,42.44,39.48c30.34,24.78,45.41,32.44,46.03,32.75c1.69,0.85,3.75,0.16,4.6-1.53
			c0.85-1.69,0.15-3.75-1.53-4.6c-0.13-0.07-6.68-3.42-19.57-12.59l-8.4-34.49l76.46-93.63l27.45-6.78c2.5,0.67,5.05,1.17,7.65,1.43
			c16.29,1.68,32.19-4.88,42.53-17.54c1.77-2.17,3.4-4.58,4.83-7.15l28.44-42.17c0.54-0.07,1.07-0.26,1.53-0.6
			c1.16-0.85,1.64-2.29,1.3-3.6l28.8-42.71c0.99-1.47,0.7-3.45-0.67-4.57l-53.38-43.59c-1.37-1.12-3.37-1.01-4.61,0.25l-75.28,76.66
			c-2.24,1.92-4.27,3.99-6.05,6.17c-10.32,12.64-13.58,29.47-8.72,45.05c0.02,0.06,0.03,0.11,0.05,0.16
			c0.73,2.34,1.65,4.61,2.71,6.79l-1.99,28l-76.16,93.26l-36.4-1.75c-11.68-10.9-16.68-16.94-16.75-17.04
			c-1.21-1.47-3.36-1.68-4.82-0.48C-1020.86,311.8-1021.08,313.95-1019.88,315.42z M-771.05,159.44c-3.51-2.17-9.37-4.42-18.6-4.39
			c-1.93,0.01-3.89,0.05-5.86,0.1c-13.39,0.32-27.22,0.65-40.53-12.42c-4.97-4.88-7.61-7.66-9.01-9.21l51.76-52.71l7.86,6.42
			l-10.77,11.11c-1.32,1.36-1.28,3.53,0.08,4.85c0.07,0.07,0.15,0.13,0.22,0.2c1.36,1.11,3.38,1.02,4.63-0.27l11.18-11.53
			l35.35,28.86L-771.05,159.44z M-879.4,199.9c-0.01-0.06-0.03-0.11-0.05-0.17c-4.23-13.41-1.44-27.91,7.45-38.8
			c1.57-1.92,3.3-3.68,5.3-5.39c0.08-0.07,0.15-0.14,0.22-0.21l16.62-16.92c1.79,1.97,4.59,4.84,9.02,9.19
			c1.28,1.26,2.57,2.42,3.86,3.47c14.17,11.57,28.69,11.22,41.63,10.91c1.93-0.05,3.83-0.09,5.72-0.1
			c7.62-0.02,12.2,1.72,14.75,3.23l-28.27,41.93c-0.06,0.08-0.11,0.17-0.16,0.26c-1.27,2.3-2.66,4.36-4.22,6.27
			c-8.88,10.87-22.53,16.5-36.52,15.06c-8.09-0.83-15.7-3.99-22.03-9.16C-872.37,214.35-876.97,207.58-879.4,199.9z"/>
	</g>
	<g>
		<path d="M-688.52,88.92c-1.46,0-2.91-0.62-3.93-1.82c-1.83-2.17-1.56-5.41,0.6-7.24l15.88-13.44c2.17-1.83,5.41-1.56,7.24,0.6
			c1.83,2.17,1.56,5.41-0.6,7.24L-685.2,87.7C-686.16,88.52-687.34,88.92-688.52,88.92z"/>
	</g>
	<g>
		<path d="M-728.5,72.5c-2.37,0-4.5-1.65-5.02-4.07l-4.35-20.34c-0.59-2.78,1.17-5.51,3.95-6.1c2.77-0.59,5.51,1.18,6.1,3.95
			l4.35,20.34c0.59,2.78-1.17,5.51-3.95,6.1C-727.78,72.46-728.14,72.5-728.5,72.5z"/>
	</g>
	<g>
		<path d="M-704.4,71.81c-0.63,0-1.27-0.12-1.88-0.36c-2.64-1.04-3.94-4.03-2.9-6.67l7.63-19.35c1.04-2.64,4.03-3.94,6.67-2.9
			c2.64,1.04,3.94,4.03,2.9,6.67l-7.63,19.35C-700.41,70.58-702.35,71.81-704.4,71.81z"/>
	</g>
</g>
</svg>
